<svg xmlns="http://www.w3.org/2000/svg" viewBox="0 0 477.83 120.26"><defs><style>.cls-1{fill:#f6bb00;}.cls-2,.cls-3{fill:none;stroke-width:1.61px;}.cls-2,.cls-3,.cls-5,.cls-6,.cls-7{stroke:#007a7f;}.cls-3{stroke-linecap:square;stroke-linejoin:round;}.cls-4{fill:#1d1d1b;stroke:#1d1d1b;stroke-miterlimit:27.55;stroke-width:0.75px;}.cls-5,.cls-6,.cls-7{fill:#007a7f;}.cls-5{stroke-width:0.52px;}.cls-6{stroke-width:0.52px;}.cls-7{stroke-width:0.25px;}</style></defs><title>logo ganspoel</title><g id="Layer_2" data-name="Layer 2"><g id="Layer_1-2" data-name="Layer 1"><path class="cls-1" d="M67.69,46.06s-.1.87-.17,1.41C65.44,62.27,51.39,72.54,36.14,70.4S10.23,54.52,12.31,39.71,28.44,14.63,43.68,16.77l4.48.62L53.24,7.1a76.78,76.78,0,0,0-7.93-1.92C23.47,2.11,3.35,16.82.37,38S12.68,78.92,34.52,82,76.47,70.36,79.45,49.14c.16-1.11.32-3.08.32-3.08Z"/><path class="cls-1" d="M44.06,26.78a16.69,16.69,0,0,0-1.74-.33,17.56,17.56,0,0,0-20,14.66A17.57,17.57,0,0,0,37.5,60.73,17.59,17.59,0,0,0,57.42,46.88l.12-.82H45.84l-.32.69a6.47,6.47,0,0,1-6.48,3,6.37,6.37,0,0,1-5.52-7.11c.43-3,2.47-5.45,5.53-5.56Z"/><path class="cls-2" d="M119.05,14.45A6,6,0,0,1,114.34,17a5.62,5.62,0,1,1,0-11.23A5.51,5.51,0,0,1,120,10.87H109.08"/><path class="cls-2" d="M134.76,17.59s0-1.92,0-5.81a6.14,6.14,0,0,0-1.46-4.09,5.14,5.14,0,0,0-8,0,6.23,6.23,0,0,0-1.43,4.08v5.81"/><line class="cls-2" x1="123.91" y1="4.99" x2="123.91" y2="17.6"/><path class="cls-2" d="M104.89,13.64A6,6,0,0,1,99.46,17a5.8,5.8,0,0,1-5.93-5.64,5.79,5.79,0,0,1,5.93-5.64,6,6,0,0,1,4.68,2.17"/><path class="cls-2" d="M161.16,7.69a5.14,5.14,0,0,0-8,0,6.21,6.21,0,0,0-1.43,4.08v5.81"/><line class="cls-2" x1="151.77" y1="4.99" x2="151.77" y2="17.6"/><path class="cls-2" d="M164.88,5.1s0,1.92,0,5.81A6.14,6.14,0,0,0,166.34,15a5.14,5.14,0,0,0,8,0,6.21,6.21,0,0,0,1.43-4.08V5.1"/><line class="cls-2" x1="179.63" y1="4.99" x2="179.63" y2="17.6"/><path class="cls-2" d="M190.48,17.59s0-1.92,0-5.81A6.14,6.14,0,0,0,189,7.69a5.14,5.14,0,0,0-8,0,6.23,6.23,0,0,0-1.43,4.08v5.81m21.69-.1s0-1.92,0-5.82a6.13,6.13,0,0,0-1.46-4.08,5.14,5.14,0,0,0-8,0,6.2,6.2,0,0,0-1.43,4.07"/><path class="cls-2" d="M148.06,15a5.14,5.14,0,0,1-8,0,6.16,6.16,0,0,1-1.43-4.08V5.1"/><line class="cls-2" x1="138.67" x2="138.67" y2="8.15"/><line class="cls-3" x1="143.16" y1="7.48" x2="139.08" y2="7.48"/><path class="cls-4" d="M99.74,106.88a6.55,6.55,0,0,1,4.81,1.92,6.41,6.41,0,0,1,1.93,4.74,5.92,5.92,0,0,1-1.93,4.56,6.67,6.67,0,0,1-4.71,1.78A6.52,6.52,0,0,1,95.08,118a6,6,0,0,1-1.94-4.37,6.84,6.84,0,0,1,.88-3.38,6.44,6.44,0,0,1,2.41-2.45A6.51,6.51,0,0,1,99.74,106.88Zm.05,1.25a5.38,5.38,0,0,0-4.62,2.7,5.5,5.5,0,0,0-.7,2.76A4.68,4.68,0,0,0,96,117.25a5.4,5.4,0,0,0,3.76,1.4,5.5,5.5,0,0,0,2.73-.71,5,5,0,0,0,2-2,4.9,4.9,0,0,0,.71-2.44,5.34,5.34,0,0,0-.71-2.73,5.13,5.13,0,0,0-2-2A5.33,5.33,0,0,0,99.79,108.13Z"/><path class="cls-4" d="M115.93,106.88a6.57,6.57,0,0,1,4.81,1.92,6.41,6.41,0,0,1,1.93,4.74,5.92,5.92,0,0,1-1.93,4.56,6.69,6.69,0,0,1-4.71,1.78,6.52,6.52,0,0,1-4.76-1.92,6,6,0,0,1-1.94-4.37,6.74,6.74,0,0,1,.88-3.38,6.5,6.5,0,0,1,5.72-3.33Zm0,1.25a5.2,5.2,0,0,0-2.66.73,5.08,5.08,0,0,0-2,2,5.5,5.5,0,0,0-.7,2.76,4.68,4.68,0,0,0,1.56,3.66,5.4,5.4,0,0,0,3.76,1.4,5.5,5.5,0,0,0,2.73-.71,5.1,5.1,0,0,0,2-2,4.89,4.89,0,0,0,.7-2.44,5.34,5.34,0,0,0-.7-2.73,5.13,5.13,0,0,0-2-2A5.33,5.33,0,0,0,116,108.13Z"/><path class="cls-4" d="M138.29,109.3l-1,.93a7.36,7.36,0,0,0-2.32-1.58,6.22,6.22,0,0,0-2.46-.54,5.86,5.86,0,0,0-2.84.73,5.39,5.39,0,0,0-2.08,2,4.62,4.62,0,0,0-.75,2.37,5.21,5.21,0,0,0,.77,2.72,5.42,5.42,0,0,0,2.12,2,6.12,6.12,0,0,0,3,.73,5.12,5.12,0,0,0,3.31-1.1,4.4,4.4,0,0,0,1.61-2.86h-4v-1.22H139a6.36,6.36,0,0,1-1.74,4.67,6.25,6.25,0,0,1-4.63,1.72,6.92,6.92,0,0,1-5.55-2.39,6.32,6.32,0,0,1-1.58-4.26,5.87,5.87,0,0,1,.9-3.22,6.86,6.86,0,0,1,2.48-2.29,7.26,7.26,0,0,1,3.57-.88,7.9,7.9,0,0,1,3,.59A9.09,9.09,0,0,1,138.29,109.3Z"/><path class="cls-4" d="M147.94,107.13h1.38l4.19,9.8,4.28-9.8h1.38l-5.52,12.68h-.27Z"/><path class="cls-4" d="M167.65,106.88a6.55,6.55,0,0,1,4.81,1.92,6.42,6.42,0,0,1,1.94,4.74,6,6,0,0,1-1.93,4.56,6.69,6.69,0,0,1-4.71,1.78A6.5,6.5,0,0,1,163,118a6,6,0,0,1-1.94-4.37,6.74,6.74,0,0,1,.88-3.38,6.37,6.37,0,0,1,2.41-2.45A6.48,6.48,0,0,1,167.65,106.88Zm.06,1.25a5.21,5.21,0,0,0-2.67.73,5.15,5.15,0,0,0-2,2,5.5,5.5,0,0,0-.7,2.76,4.68,4.68,0,0,0,1.56,3.66,5.69,5.69,0,0,0,6.49.69,5.13,5.13,0,0,0,2-2,4.89,4.89,0,0,0,.7-2.44,5.34,5.34,0,0,0-.7-2.73,5.22,5.22,0,0,0-2-2A5.29,5.29,0,0,0,167.71,108.13Z"/><path class="cls-4" d="M183.67,106.88a6.54,6.54,0,0,1,4.8,1.92,6.42,6.42,0,0,1,1.94,4.74,5.92,5.92,0,0,1-1.93,4.56,6.69,6.69,0,0,1-4.71,1.78A6.5,6.5,0,0,1,179,118a6,6,0,0,1-1.94-4.37,6.74,6.74,0,0,1,.88-3.38,6.5,6.5,0,0,1,5.72-3.33Zm.05,1.25a5.18,5.18,0,0,0-2.66.73,5.08,5.08,0,0,0-2,2,5.5,5.5,0,0,0-.7,2.76,4.67,4.67,0,0,0,1.55,3.66,5.42,5.42,0,0,0,3.77,1.4,5.5,5.5,0,0,0,2.73-.71,5.17,5.17,0,0,0,2-2,4.89,4.89,0,0,0,.7-2.44,5.34,5.34,0,0,0-.7-2.73,5.2,5.2,0,0,0-2-2A5.33,5.33,0,0,0,183.72,108.13Z"/><path class="cls-4" d="M193.49,107.1H196a15.81,15.81,0,0,1,2.86.17,3.22,3.22,0,0,1,1.84,1.11,3.17,3.17,0,0,1,.71,2.09,3.33,3.33,0,0,1-.49,1.82,3,3,0,0,1-1.39,1.18,4.06,4.06,0,0,1-1.58.41l3.63,5.89H200l-3.64-5.89h-1.65v5.89h-1.26Zm1.26,1.24v4.31h2.18a5.47,5.47,0,0,0,1.88-.24,1.94,1.94,0,0,0,.95-.76,2.23,2.23,0,0,0,.34-1.19,2.08,2.08,0,0,0-.35-1.16,2,2,0,0,0-.9-.74,5.41,5.41,0,0,0-1.86-.23Z"/><path class="cls-4" d="M211.27,108.33V107.1H218l-5.29,11.44h5v1.23h-7L216,108.33Z"/><path class="cls-4" d="M227,106.88a6.54,6.54,0,0,1,4.8,1.92,6.42,6.42,0,0,1,1.94,4.74,6,6,0,0,1-1.93,4.56,6.69,6.69,0,0,1-4.71,1.78,6.5,6.5,0,0,1-4.76-1.92,6,6,0,0,1-1.94-4.37,6.74,6.74,0,0,1,.88-3.38,6.5,6.5,0,0,1,5.72-3.33Zm.05,1.25a5.21,5.21,0,0,0-2.67.73,5.15,5.15,0,0,0-2,2,5.6,5.6,0,0,0-.7,2.76,4.68,4.68,0,0,0,1.56,3.66,5.69,5.69,0,0,0,6.49.69,5.13,5.13,0,0,0,2-2,4.89,4.89,0,0,0,.7-2.44,5.34,5.34,0,0,0-.7-2.73,5.27,5.27,0,0,0-2-2A5.35,5.35,0,0,0,227,108.13Z"/><path class="cls-4" d="M237,107.1h2.52a15.81,15.81,0,0,1,2.86.17,3.28,3.28,0,0,1,1.84,1.11,3.17,3.17,0,0,1,.71,2.09,3.33,3.33,0,0,1-.49,1.82,3.08,3.08,0,0,1-1.4,1.18,4,4,0,0,1-1.57.41l3.63,5.89h-1.56l-3.63-5.89h-1.65v5.89H237Zm1.26,1.24v4.31h2.18a5.51,5.51,0,0,0,1.88-.24,2,2,0,0,0,.95-.76,2.22,2.22,0,0,0,.33-1.19,2.07,2.07,0,0,0-.34-1.16,2,2,0,0,0-.9-.74,5.51,5.51,0,0,0-1.87-.23Z"/><path class="cls-4" d="M260.53,109.3l-1,.93a7.36,7.36,0,0,0-2.32-1.58,6.22,6.22,0,0,0-2.46-.54,5.79,5.79,0,0,0-2.83.73,5.35,5.35,0,0,0-2.09,2,4.62,4.62,0,0,0-.75,2.37,5.21,5.21,0,0,0,.77,2.72,5.45,5.45,0,0,0,2.13,2,6.09,6.09,0,0,0,3,.73,5.07,5.07,0,0,0,3.3-1.1,4.4,4.4,0,0,0,1.61-2.86h-4v-1.22h5.45a6.36,6.36,0,0,1-1.74,4.67,6.25,6.25,0,0,1-4.63,1.72,6.92,6.92,0,0,1-5.55-2.39,6.37,6.37,0,0,1-1.58-4.26,5.87,5.87,0,0,1,.9-3.22,6.86,6.86,0,0,1,2.48-2.29,7.32,7.32,0,0,1,3.57-.88,7.87,7.87,0,0,1,3,.59A9.13,9.13,0,0,1,260.53,109.3Z"/><path class="cls-5" d="M137.68,37.43l3.23-3.54a29.71,29.71,0,0,0-19.35-7.35c-12.65,0-28.7,9.71-28.7,27.85,0,18.65,16.6,27.85,28.7,27.85,17.54,0,28.67-14.55,28.67-26.73V52.36H125.58v4.8h19.73c0,1.49-2.36,20.21-23.75,20.21-19.26,0-24-16.64-24-23,0-8.71,7-23,24-23,10.54,0,16.12,6.06,16.12,6.06"/><path class="cls-5" d="M195.61,59.82a17,17,0,1,1-17-17.25,17.13,17.13,0,0,1,17,17.25m4.94,22.28V37.54h-4.62v8.59a22.19,22.19,0,0,0-17.33-8.59c-7.13,0-22,6.16-22,22,0,17.51,16.21,22.54,22,22.54,11,0,17.09-8.51,17.09-8.51V82.1Z"/><path class="cls-5" d="M207.31,37.54h4.86V45.8s5.26-8.26,17.09-8.26c12.39,0,20.9,11.91,20.9,22.28V82.1H245.3V61.85c0-7.94-4.62-19.37-16-19.37-15.39,0-17,15.32-17,16.94V82.1h-4.94V37.54"/><path class="cls-5" d="M279.28,46.62l3.81-2.84s-4.62-6.24-12.56-6.24-12.15,6.56-12.15,12.32c0,7,8.27,11,11.18,12.71s11,5.11,6.4,11.43c-5.91,8.09-15.79-1.54-15.79-1.54L257,76s6.56,6.11,12.71,6.11a12.7,12.7,0,0,0,11.18-6.64c2.68-4.87,2.27-10.62-6.31-15.64s-11.35-6.64-11.35-10.53a7.11,7.11,0,0,1,7.29-6.72,12.6,12.6,0,0,1,8.75,4"/><path class="cls-5" d="M328.24,59.82c0,9.74-7.58,17.64-16.93,17.64s-16.93-7.9-16.93-17.64S302,42.18,311.31,42.18s16.93,7.9,16.93,17.64m4.94,0a21.88,21.88,0,1,0-43.75,0V94.25h4.95V73.59c4.64,5.16,10.1,8.51,16.92,8.51a22.08,22.08,0,0,0,21.87-22.28"/><path class="cls-5" d="M378.5,59.86a17.05,17.05,0,1,1-17.05-17.21A17.13,17.13,0,0,1,378.5,59.86m4.82,0a21.87,21.87,0,1,0-21.87,22.28,22.07,22.07,0,0,0,21.87-22.28"/><rect class="cls-5" x="440.96" y="26.5" width="4.64" height="55.74"/><path class="cls-6" d="M434.07,60a22,22,0,1,0-43.91-.17h0V60a22.36,22.36,0,0,0,22,22.19,23.79,23.79,0,0,0,18.9-10l-4.23-2.48s-5.86,7.44-14.67,7.44c-14.86,0-16.73-15.41-16.73-15.41h38.69Zm-38.38-3.67c1.07-7.6,8.37-13.44,16.41-13.44a16.89,16.89,0,0,1,16.42,13.44Z"/><path class="cls-7" d="M459.74,26.26,457,32.47l-2.66-6.21h-.87l3.45,8h.17l3.5-8Zm17.1,0-1.66,5.79-2.27-5.79h-.18l-2.3,5.79-1.63-5.79H468l2.27,8h.14l2.43-6.08,2.38,6.08h.16l2.3-8Zm-14.64,0V27h3l-3.38,7.25h4.43v-.78h-3.19l3.36-7.25Z"/></g></g></svg>