<svg xmlns="http://www.w3.org/2000/svg" viewBox="0 0 80 28.05"><defs><style>.cls-1{fill:#fff;}</style></defs><title>Asset 1</title><g id="Layer_2" data-name="Layer 2"><g id="Layer_1-2" data-name="Layer 1"><path class="cls-1" d="M79.9,14.56c.08-.05.16-.23,0-.26l-.24.24Z"/><path class="cls-1" d="M79.48,13.64a.77.77,0,0,0-.55.53c.28-.2.24-.07.56-.32.13,0,.14.19.06.29.08-.05.13.15.29,0,0-.3-.19-.41-.47-.33C79.36,13.74,79.44,13.68,79.48,13.64Z"/><path class="cls-1" d="M68.92,7.81l0,.07A.18.18,0,0,0,68.92,7.81Z"/><path class="cls-1" d="M62,5a.1.1,0,0,0,.1,0C62,5,62,5,62,5Z"/><path class="cls-1" d="M60.86,4.25l.06,0S60.88,4.23,60.86,4.25Z"/><path class="cls-1" d="M68.92,7.81l-.15-.17C68.72,7.73,68.84,7.75,68.92,7.81Z"/><path class="cls-1" d="M77.65,13.53a.31.31,0,0,0,.13,0l-.1,0Z"/><path class="cls-1" d="M72.05,8.9l.06,0,.1-.1Z"/><path class="cls-1" d="M74.35,10s-.18.2-.26.3c.08-.09.14-.12.2-.11A.71.71,0,0,0,74.35,10Z"/><path class="cls-1" d="M77.69,12.27h0Z"/><path class="cls-1" d="M70.41,8.11a.22.22,0,0,0,0-.1A.36.36,0,0,0,70.41,8.11Z"/><path class="cls-1" d="M3.46,13.14l0,0S3.44,13.15,3.46,13.14Z"/><path class="cls-1" d="M.41,14l0,0L.3,13.83A.69.69,0,0,0,.41,14Z"/><path class="cls-1" d="M58.7,3.22h0C58.77,3.22,58.74,3.21,58.7,3.22Z"/><path class="cls-1" d="M37.2.43c.25.24-.39.33,0,.59C37.14.91,37.51.58,37.2.43Z"/><path class="cls-1" d="M77.61,13.46l-.09,0A.12.12,0,0,0,77.61,13.46Z"/><path class="cls-1" d="M37.18,1h0l0,0Z"/><path class="cls-1" d="M53.37,2.07a.51.51,0,0,0,0,.13A.23.23,0,0,0,53.37,2.07Z"/><path class="cls-1" d="M57.21,3.4l-.09-.06A.24.24,0,0,0,57.21,3.4Z"/><path class="cls-1" d="M51.23,2s-.06-.07-.14,0,0,0,0,0A.09.09,0,0,1,51.23,2Z"/><path class="cls-1" d="M49.07,1.66a.43.43,0,0,0,0,.07h.07Z"/><path class="cls-1" d="M8.83,9.69a1.2,1.2,0,0,1-.21-.17C8.74,9.68,8.5,9.88,8.83,9.69Z"/><path class="cls-1" d="M77.72,13.39s-.08.08-.11.07l.07,0A.18.18,0,0,0,77.72,13.39Z"/><path class="cls-1" d="M50.74,4.17l-.32-.1A2,2,0,0,0,50.74,4.17Z"/><path class="cls-1" d="M23.05,4.4l-.07,0A.08.08,0,0,0,23.05,4.4Z"/><path class="cls-1" d="M49.42,3.94a.47.47,0,0,0-.15-.22s0,0-.05.06Z"/><path class="cls-1" d="M8.62,9.51h0Z"/><path class="cls-1" d="M7,11.17c.28-.16,0-.39-.1-.6.28-.29.29.14.49.24.16-.2.16-.58.33-.66s.08,0,.08.14c.08-.38.65-.37.73-.84l.08.06a1.24,1.24,0,0,1-.27-.42c.12-.07.13-.32.29-.14-.08,0-.05.13-.05.21L8.68,9c.28.24-.13.2,0,.42.21-.23.39-.64.64-.65.19.27-.43.34,0,.46l-.37,0c.48.35-.21.06.27.45.45-.12.38-.38.83-.5C10,9,9.87,9,9.88,8.79c.43-.6.82.53,1.06-.08,0-.25-.12-.65.29-.6l0,.4c.42-.16,0-.61.53-.57,0,.17-.26.26-.18.27.39.15.1-.28.31-.38l.18.29c.42-.24.8-.66,1.26-.92,0,.1,0,.23.13.28a3.52,3.52,0,0,1,2-.53l.12-.36c.06,0,.15.09.11.16.27,0-.05-.17,0-.32s.23.09.18.2c.32-.39,1-.91,1.54-.76L17.41,6c.38,0,.2-.7.61-.55L18,5.5c.78-.13,1.55-.61,2.24-.37,0-.43.79,0,.69-.6.5.17.41.3,1.06.33.17,0,.16-.41.34-.52l.08.29.2-.38.23.32L23,4.45a.23.23,0,0,1-.2-.18.63.63,0,0,1,.81.18l.65-.39c0,.12-.1.18-.17.28.31-.38.13.3.42,0-.07-.06,0-.18,0-.25A.94.94,0,0,0,25.34,4v.22c.52-.06,1.08-.31,1.67-.4-.23-.06-.24-.43-.07-.49l.12.3c.08-.21-.2-.09,0-.36.23,0,.21.33.1.46l.25-.16c0,.1,0,.16,0,.28.08-.22.51.24.61-.13l0,.1c.59-.1.84-.25,1.32-.32,0-.28.17-.24.29-.48a4,4,0,0,0,1.21.15c.29-.18.07-.25.19-.43.05.25.47.18.27.38a6,6,0,0,0,1.29-.36c-.08-.1-.17-.14-.13-.23a.22.22,0,0,1,.27.21l0,0c.72-.43,1.74.6,2.3.06l0,0,.59-.29c.29,0-.16.19.05.34.65-.44,1,0,1.58-.26.42.72,1.48-.05,2,.44l0-.18c.15-.16.17.11.28.15,0-.14-.16-.16-.06-.25a5.06,5.06,0,0,1,1.89.12c.63.15,1.26.36,1.88.48.46.08.34-.89.89-.43l-.2.31c1-.33,1.9.23,2.84,0-.06.07-.07.16-.16.15.16.26.71.1.74-.09.13,0,0,.17.08.28s.52-.24.59,0c0,0-.06.06-.1.08.14-.1.57.12.5-.17.32.19.66,0,.91.2.23-.27.55.24.68-.17-.1.43.53.45.79.28-.1.12.16.17,0,.34.25,0,.48,0,.49-.24.34.59,1-.23,1.1.49a12.92,12.92,0,0,1,2.14,0c-.12.43-.73-.12-.8.34.65,0,1.1-.34,1.68-.09.14.1-.13.16-.2.23.65,0,1.16.35,1.76.27,0,0-.08.06-.14.08.11,0,.23.13.27-.07l-.12,0c-.09-.33.59-.48.65-.62-.34.51.5.29,0,.91a.26.26,0,0,0,.22-.22c.09.07.1.16-.05.27.42,0,.34-.24.68-.14,0,.09-.1.11-.17.21.23-.14.46-.27.73-.11,0,0,0,.13-.11.11.51.11,1-.22,1.49.13-.29.36.14.2.06.56h.32l-.06-.21c.26.09.57-.09.75.1l-.24.08.51.09-.23-.22c.32-.1.12-.46.43-.25-.09,0,.25.09.32.34h0c.16-.07.33-.14.5,0,0,.13-.18.37-.17.46.22-.25.63.11.89-.13a.54.54,0,0,0-.14.27l.19-.19c.09.12.09.16,0,.3.34.18,0-.48.4-.14,0,0,0,.05-.12.06.39.26.87.16,1.21.43,0,.39-.37,0-.35.29.58.15,1.31,0,1.82.32l-.08-.08c.26-.46.3.39.67.27-.09,0-.2.23-.16.19a4,4,0,0,0,1.4.28l-.12.09c.17.2.54.31.74.47.13-.1.25,0,.25-.23.4,1,1.52.22,1.89,1.07-.07,0-.23,0-.17.06a5.61,5.61,0,0,1,.59.13c0-.23,0-.16,0-.38a.46.46,0,0,1,.45,0c-.3,0-.15.33-.11.49,0-.07.08-.12.11-.19.1.5.24-.39.5,0l-.07.1c.16,0,.36-.06.5,0,0,.27-.2,0-.31.23.22.09.64-.24.72.09-.12,0-.26,0-.38,0,.08.38.14.32.27.44h0l.3.3-.06-.12c.57-.48.6.16,1.16-.07-.54.21-.17.19-.33.45,0,.11.15.27.07.32.28-.13.2.31.6.11,0,.09.17.1,0,.3.25,0,0-.18.09-.28.5-.13.61.76,1.3.62.49.07.72-.18,1.18-.11.06.21-.27.25-.27.25a.59.59,0,0,0,.56.32c-.08.05-.07.13-.07.26.17.07.28-.25.42,0a1.3,1.3,0,0,1-.35.25c.23,0,.5,0,.74,0,0,.18-.24.16-.36.22.25,0,.63.17.82,0l-.09-.16c.09,0-.07.22-.15.23-.29.08-.22-.23-.19-.32l.17,0c.14-.57-.59-.22-.85-.4l.31-.3-.45.15c0-.13.06-.35.23-.33-.1-.29-.25,0-.31-.26,0,0,0-.06,0-.06h-.25c.08-.06.11-.27.2-.16-.24-.4-.71,0-.69-.38h0c-.55-.14-.19.24-.72.36l.1-.8-.18.24s-.14-.11-.06-.2c-.28.08,0,.13-.23.24-.12-.36-.73-.22-.57-.67-.19.16.16.27-.18.29.16-.5-.34-.08-.46-.4.19-.2.34,0,.22-.29-.34.33-.39-.31-.62-.32-.17.31-.48-.07-.85-.12.07-.1-.51-.48-.75-.74l0-.05c-.21.3-.49.09-.74.05A.41.41,0,0,1,72.32,9l-.21-.1a.38.38,0,0,1-.35.07l.17-.22c-.29-.11-.71,0-1-.28-.12.22,0,.76-.45.75,0-.13.12-.35.25-.36,0,0-.17,0-.21,0l.25-.14c-.13-.16-.17.14-.29.06.08-.18,0-.17,0-.3s.08.12.16.07a.63.63,0,0,1-.27-.44c0,.11-.1.24-.22.22-.29-.12,0-.26-.13-.43-.13.1-.25-.11-.37.16-.09,0,0-.17,0-.26-.2,0-.7-.27-.66.09l0,0h0c-.59.05-.93-.6-1.46-.68l0-.09c-.34,0-.68-.19-1-.07a.26.26,0,0,1-.06-.34c-.25,0-.32.08-.58-.2.29-.07,0-.17.28,0-.26-.18-.28-.36-.68-.23.19-.19-.11-.37-.27-.36l.14.25A1.38,1.38,0,0,1,65,6l.19-.28c-.46-.6-1.3.23-1.53-.57-.24.16.27.27,0,.47-.26-.14-.4-.67-.48-.7-.33-.3-.52.33-.88.08a.38.38,0,0,1-.36.45c-.27-.13-.19-.58,0-.61s.09.06.08.1.24,0,.17-.18l-.08.1c-.1-.16-.49-.27-.34-.43-.24,0-.14.16,0,.27-.3-.28-.55-.19-.89-.42,0,.08,0,.23,0,.21-.5-.31-.31.13-.69.06-.15-.23.2-.38-.21-.36-.19-.19,0-.31.16-.37-.4.1-.59-.34-.77-.43l.2,0a.71.71,0,0,1-.3,0l0,.25c-.09-.07-.18-.09-.15-.18-.16.11,0,.39-.3.53-.11-.15-.47,0-.43-.3.41.22,0-.31.43-.26a.32.32,0,0,1-.27-.08s0-.06.07-.07c-.35-.38-.29.29-.73.16.1-.15,0-.35-.1-.33.18.05,0,.31-.19.39-.24-.21-.33,0-.47,0l.15.11c-.1.15-.24.09-.45.09,0-.14.21,0,.15-.12-.29.24-.41-.44-.76-.32-.11-.16.06-.33,0-.44-.4.13-.31-.34-.72-.23.05.25.08.2-.23.36l.64,0-.47.24c.18,0,.42,0,.51,0-.22.13-.19.08-.15.3-.16-.42-.54.08-.76-.22l.14-.56c-.36-.35-.82.12-1.34-.14l.15.14c-.12.2-.35,0-.55,0,.06-.18,0-.28-.09-.41,0,.14-.4-.11-.53.26l-.19-.3c-.43-.2-.62.42-1,.28.17-.19,0-.35.32-.45-.15,0-.27-.09-.3,0-.06-.13-.45.19-.55,0-.07.07-.13.27-.29.23a.19.19,0,0,1,0-.1c0,.1-.28.09-.17.32-.34-.67-1.25-.16-1.55-.74a8.27,8.27,0,0,1-1,0c0-.05,0-.09.07-.07-.37-.22-.32.53-.75.27-.19-.34.27-.14.14-.27,0-.64-.56,0-.82-.39l.08,0c-.21-.24-.6.18-1,.09a.22.22,0,0,0,0-.1,2.08,2.08,0,0,1-1.17.39c.13-.24.18-.11.13-.38-.17,0,0,.41-.32.45-.1-.14-.32-.28-.33-.55h.31c-.13-.36-.4,0-.56-.09l0-.15c-.48,0-.52.4-1,.33l0,.12c-.31.37-.22-.23-.52,0L42.39,1a4.67,4.67,0,0,1-1,.38c.2-.27.6-.39.85-.55-.18,0-.63,0-.73.17.08,0,.17-.12.24,0a1.06,1.06,0,0,1-.9.4c.09-.75-.94-.21-1.19-.81-.66.27-1.29-.15-2-.11.27.58-.22,0-.17.63-.18,0-.24,0-.26,0L36.64.68c-.13-.18.17-.14.15-.27-.39,0-.17-.26-.43-.41.06.21-.13.31-.35.24l.32.27c-.53.33-.48-.5-1-.17l.17-.19c-.28.12-1,0-1.29.53,0-.07-.13-.23,0-.28-.67,0-1.44.62-2,.36l0-.15c-.13.05-.2.29-.37.16,0-.06,0-.15,0-.16s-.3.28-.48.21L31.5.64c-.67-.12-1,.52-1.48.68C30,.89,29.44.81,29.18.77V.71c-.77,0-1.23.53-1.9.81-.5-.39-1.49,0-2.23-.08.12.05.05.33-.06.4s-.39.39-.44,0h.06c-.2-.36-.51-.19-.77-.15l.06.52a1.18,1.18,0,0,0-1.23,0c-.38.18-.72.36-1,.07-.13.17-.33.22-.46.39l-.06-.28a3.55,3.55,0,0,0-1.23.28L20,2.47c-.32.07-.18.89-.46,1l-.2-.38c-.53.17-1.19,0-1.61.5,0-.06,0-.18.05-.22-.25.07-1.06.06-.79.57-.12-.35-.56.15-.79.4l-.05-.28c-.12.42-.1.51-.4.72-.1,0-.15-.19,0-.16-.31,0-.11.32-.48.3l0-.21c-.27.09-.22.17-.3.42A.47.47,0,0,1,14.33,5c0,.15-.06.4-.24.39a.16.16,0,0,1,0-.19c-.52,0-.56.55-1,.43,0-.08-.08-.12-.12-.13a2.27,2.27,0,0,1,.64-.21c-.1-.24-.4-.17-.3-.58-.17.26-.4.82-.73.83l-.07-.07,0,0a.2.2,0,0,0-.16.12.71.71,0,0,0-.26,0c-.12-.18-.38,0-.53.09.13.25-.08.29.19.42,0,0,0,0,.1-.09L12,6V6l.35-.17c-.06.18-.13.33-.35.26,0,.19,0,.4,0,.49-.35-.27-.81-.3-1-.49-.36.35-1,.57-1,1.16-.1.12-.21-.07-.29-.12s.14-.11.14-.19c-.19.22-.69.39-.59.75-.37,0,0-.39-.37-.13V7.44c-.54-.06-.77.32-1,.68a1.06,1.06,0,0,1-1.12.65.22.22,0,0,1,.17.05c-1.18.27-1.9,1.46-3.14,1.64-.33.09-.23.31-.29.56l-.23-.2-.08.47c-.25.47-1.11-.11-1.32.64L2,12c-.2.1-.47.52-.59.32,0,0,.07.2-.06.17l-.1-.11c-.09.18-.17.37-.25.55-.4.2-.35-.53-.86-.09a.56.56,0,0,0-.09.22l0,.14a1.29,1.29,0,0,0,0,.19c0,.23,0,.38.1.36s.27-.2.39-.1c0,.08,0,.16-.07.23a6.22,6.22,0,0,0,1.11.61c0-.13,0-.26,0-.4l.22.1a1.29,1.29,0,0,0-.16.18c.23.06.16-.14.17-.31a.36.36,0,0,0,.26.1l0-.54c.14.11.12.37.34.31,0-.26-.37-.22-.25-.49.26.07.32.23.36,0a.22.22,0,0,1,.09.25c0-.21.3-.32.22-.56.29.1.42-.4.67,0a.87.87,0,0,1,.15-.55c.07.58.5-.31.75.2-.09-.51.51-.61.69-1,0,0,0,.13,0,.13.2-.08.33,0,.49,0-.18-.35,0-.6.07-.89.42.17.11.47.36.73-.17-.27.22-.51,0-.68.29.1.21,0,.46.23-.22-.43.11-.16.1-.5.37.06.3.35.49.06C7.16,10.88,7,11.17,7,11.17Zm6.34-4.06h0l-.14.08Zm.58-.25a1.49,1.49,0,0,0-.26.1c-.05-.08-.07-.19,0-.21S13.82,6.82,13.93,6.86Zm-2-1.25a.11.11,0,0,1,.17,0l-.16.1v0A.39.39,0,0,1,11.94,5.61Z"/><path class="cls-1" d="M11.91,6s0,0,0,0l.08,0V6Z"/><path class="cls-1" d="M69,7.89h0a.07.07,0,0,1,0,0Z"/><polygon class="cls-1" points="22.4 4.7 22.38 4.63 22.34 4.71 22.4 4.7"/><path class="cls-1" d="M71.82,10.19a.15.15,0,0,0,0,.09A.51.51,0,0,0,71.82,10.19Z"/><path class="cls-1" d="M73.16,10.92l.15.19A.88.88,0,0,0,73.16,10.92Z"/><path class="cls-1" d="M74.15,11.56l.07-.09h0Z"/><path class="cls-1" d="M56.81,5.21h-.05C56.65,5.24,56.72,5.24,56.81,5.21Z"/><path class="cls-1" d="M62.27,6.19l-.21.07C62.14,6.31,62.21,6.34,62.27,6.19Z"/><polygon class="cls-1" points="50.78 4.18 50.78 4.17 50.74 4.17 50.78 4.18"/><path class="cls-1" d="M61.81,6.18a.25.25,0,0,0,.25.08A.38.38,0,0,0,61.81,6.18Z"/><path class="cls-1" d="M78.55,14.05l0,0,0,0Z"/><path class="cls-1" d="M78.62,14.05h.07S78.64,14,78.62,14.05Z"/><path class="cls-1" d="M78.84,14.06h-.15A.11.11,0,0,0,78.84,14.06Z"/><path class="cls-1" d="M77.26,13.19l-.07.08A.3.3,0,0,0,77.26,13.19Z"/><path class="cls-1" d="M76.83,13c.09.08.14.33.31.35l0-.07C77.06,13.37,77,12.89,76.83,13Z"/><path class="cls-1" d="M75.68,11l.32.25c0-.13,0-.3.14-.24C75.84,10.46,76.12,11.23,75.68,11Z"/><path class="cls-1" d="M74.64,10.28c.21.05.07-.14.1-.19C74.58,10.11,74.54,10.12,74.64,10.28Z"/><path class="cls-1" d="M66.49,6.63l.11-.23C66.43,6.37,66.57,6.49,66.49,6.63Z"/><polygon class="cls-1" points="64.44 7.24 64.53 7.44 64.69 7.25 64.44 7.24"/><polygon class="cls-1" points="64.12 5.19 64.2 5.19 63.91 5.17 64.12 5.19"/><path class="cls-1" d="M49.5,1.49V1.8C49.62,1.77,49.7,1.43,49.5,1.49Z"/><path class="cls-1" d="M43,1c-.06-.16-.24-.27-.36-.12C42.78,1,42.92,1.08,43,1Z"/><polygon class="cls-1" points="23.5 1.89 23.6 1.76 23.38 1.89 23.5 1.89"/><path class="cls-1" d="M14.32,6.71c0,.1.08.27.23.16V6.53Z"/><path class="cls-1" d="M15.66,6.82c.13-.23.25-.57,0-.8-.08.37-.18.26-.24.69a.22.22,0,0,1-.35-.1c0,.1-.28,0-.29.26a.58.58,0,0,0,.79-.26C15.68,6.65,15.65,6.76,15.66,6.82Z"/><path class="cls-1" d="M32.43,3.32l-.12,0A.21.21,0,0,0,32.43,3.32Z"/><path class="cls-1" d="M43,3.36c-.08,0-.11,0-.12.06S43,3.39,43,3.36Z"/><path class="cls-1" d="M44.79,3.85l-.11,0S44.76,3.87,44.79,3.85Z"/><path class="cls-1" d="M32.43,3.32l.29.08C32.73,3.3,32.57,3.34,32.43,3.32Z"/><path class="cls-1" d="M17.62,5.23a.37.37,0,0,0-.12.13l.13-.08Z"/><path class="cls-1" d="M27.83,4.19h-.08a1.31,1.31,0,0,0-.05.15Z"/><path class="cls-1" d="M24.35,4.94c.08,0,0-.28,0-.41a.28.28,0,0,1-.13.22A.43.43,0,0,0,24.35,4.94Z"/><path class="cls-1" d="M18.75,6l-.08.07Z"/><path class="cls-1" d="M30.37,3.87a.23.23,0,0,0,.05.1A.19.19,0,0,0,30.37,3.87Z"/><path class="cls-1" d="M14,11.78h0S14,11.76,14,11.78Z"/><path class="cls-1" d="M14.65,7.31l0,.06h.15Z"/><path class="cls-1" d="M48,4.56h0C47.91,4.57,48,4.57,48,4.56Z"/><path class="cls-1" d="M58.55,19.39c.41-.06-.16.6.39.44C58.84,19.79,59,19.21,58.55,19.39Z"/><path class="cls-1" d="M17.72,5.23l.14-.05A.32.32,0,0,0,17.72,5.23Z"/><path class="cls-1" d="M58.94,19.83Z"/><path class="cls-1" d="M55.46,5.78a.28.28,0,0,0,0-.13S55.42,5.71,55.46,5.78Z"/><path class="cls-1" d="M50,4.29l.13.06A.36.36,0,0,0,50,4.29Z"/><path class="cls-1" d="M58.39,6.17c.06,0,.08.09.19.08s0,0,0,0S58.46,6.24,58.39,6.17Z"/><path class="cls-1" d="M61.27,7.14l0-.08h-.1Z"/><path class="cls-1" d="M18.9,20.39a.77.77,0,0,1,.08-.28C18.87,20.28,18.5,20,18.9,20.39Z"/><path class="cls-1" d="M17.67,5.38c0-.08,0-.12,0-.15l-.09,0A.12.12,0,0,0,17.67,5.38Z"/><path class="cls-1" d="M59.14,4.11l.47.19A3.53,3.53,0,0,0,59.14,4.11Z"/><path class="cls-1" d="M40.14,27.83l-.12,0A.12.12,0,0,0,40.14,27.83Z"/><path class="cls-1" d="M61.05,4.73a.89.89,0,0,0,.21.28.18.18,0,0,0,.08,0Z"/><path class="cls-1" d="M19,20.1h0Z"/><path class="cls-1" d="M16.35,17.78c.27.43.43,0,.66,0,.42.43-.06.38-.1.65.29.26.73.29.89.51,0,.05,0,.11-.11.1a1.53,1.53,0,0,1,.61.52A1.44,1.44,0,0,0,19,20a.25.25,0,0,1,0,.1,1.07,1.07,0,0,1,.32-.39c.15.16.43.14.32.36-.09-.09-.17,0-.26,0l.23.09c-.1.38-.31-.14-.48,0,.38.25,1,.4,1.13.71-.18.3-.65-.48-.53.06l-.29-.47c-.08.66-.21-.25-.34.41.45.57.68.45,1.16,1,.24,0,.14-.24.38-.28.95.39.07,1.17.94,1.27.29-.07.58-.36.88.11l-.36.22c.55.4.63-.24,1.08.35-.18.06-.51-.18-.45-.09.23.51.39,0,.68.19l-.11.33c.67.31,1.47.51,2.22.77-.08.07-.25.11-.13.28a4.93,4.93,0,0,1,.73.27c.24.11.49.21.73.34.47.25.93.54,1.37.77l.44-.16c.08,0,.12.17,0,.2.33.22.07-.17.28-.23s.22.25.07.29a12.3,12.3,0,0,1,1.32,0,2.84,2.84,0,0,1,1.24.4l-.15.06c.51.21.72-.47,1.15-.11l-.1,0a7.88,7.88,0,0,0,.87.2l.88.11a4.15,4.15,0,0,1,1.53.44c.21-.41,1.14.27,1.26-.31.64.34.45.44,1.38.65.25,0,.38-.35.69-.4v.3l.42-.31.22.37.29-.08c-.11,0-.24-.13-.23-.22.45-.14,1.11.19,1.12.35L42,27.7c0,.13-.2.17-.34.25.56-.32.12.32.64,0-.08-.06,0-.18,0-.24a2.14,2.14,0,0,0,1.31,0l-.07.22a21,21,0,0,0,2.57-.38.25.25,0,0,1,0-.49l.15.31c.14-.22-.29-.09,0-.37.34,0,.28.33.1.46.13-.06.26-.11.39-.18,0,.1,0,.16,0,.29.13-.23.75.19.93-.2l0,.09a16.48,16.48,0,0,0,2-.56c-.06-.27.24-.28.39-.55a7.18,7.18,0,0,0,1.81-.26c.39-.27,0-.26.18-.49.12.23.73,0,.47.26a6.33,6.33,0,0,0,1.75-1c-.14-.05-.27,0-.25-.14s.42-.08.45,0l0,0a3.8,3.8,0,0,1,1.69-.71,2.2,2.2,0,0,0,1.44-.86l0,0,.58-.78c.37-.23-.09.3.26.23a3.17,3.17,0,0,1,.89-1,2.13,2.13,0,0,0,.8-.83c.5,0,.89-.41,1.25-.9.19-.24.34-.52.52-.74a2.15,2.15,0,0,1,.6-.54l-.17-.06c0-.29.23-.17.36-.29-.13-.06-.27.12-.27-.06a43.64,43.64,0,0,0,2.88-5.23c.25-.7-.76-.63-.14-1.4l.26.32a12.57,12.57,0,0,1,.17-2c0-.34.09-.68.11-1V8.3a6.63,6.63,0,0,0-.07-.79,2.28,2.28,0,0,0-.38-.38c.15.06.24,0,.38.18a1.57,1.57,0,0,0-.7-.81c-.39-.19-.73-.27-.78-.19-.22-.14,0-.18-.06-.34a.77.77,0,0,0-.51-.17c-.18,0-.34,0-.37-.16s.11,0,.17,0c-.23,0-.83-.39-.76-.06-.44-.32-1-.25-1.3-.54-.35.19-.79-.42-1,0,.18-.42-.74-.63-1.11-.51.14-.1-.23-.22-.06-.36-.35-.11-.7-.11-.7.12-.51-.7-1.43,0-1.62-.7-1.12,0-2.14-.11-3.11-.2.12-.43,1.06.18,1.12-.29a7.59,7.59,0,0,1-2.43,0c-.22-.1.17-.16.26-.22A25.31,25.31,0,0,0,50,2.52s.1-.07.19-.09c-.16,0-.36-.12-.37.08l.16,0c.21.33-.73.51-.78.67.36-.54-.78-.26-.24-.93-.12,0-.26.1-.26.24-.15-.06-.19-.15,0-.28-.59,0-.41.27-.93.2,0-.09.12-.12.19-.23a1.19,1.19,0,0,1-1,.19c0-.06,0-.14.13-.12-.77-.07-1.35.36-2.16.1.28-.4-.27-.16-.29-.53l-.46.07.17.19c-.39,0-.76.21-1.09.07l.3-.13-.74,0,.41.17c-.41.16,0,.46-.5.33.11,0-.39,0-.58-.26h0a.78.78,0,0,1-.69.13c-.07-.12.08-.41,0-.49-.2.3-.92,0-1.18.37A.32.32,0,0,0,40.35,2l-.17.25C40,2.12,40,2.08,40,1.93c-.55-.05.17.47-.48.26,0,0,0-.06.13-.1-.65-.11-1.26.14-1.86,0-.18-.37.53-.1.32-.41a23,23,0,0,1-2.62.43l.15,0c-.09.53-.63-.23-1,0,.1-.05.12-.3.09-.24a6,6,0,0,0-2,.44l.09-.14a5.89,5.89,0,0,0-1.26,0c-.1.14-.3.14-.16.32a1.86,1.86,0,0,0-1.63,0,1.84,1.84,0,0,1-1.52.16c.12,0,.27-.16.17-.14-.27.08-.55.15-.82.25.11.21.13.11.34.26a.82.82,0,0,1-.51.34c.35-.22-.06-.36-.25-.46,0,.06,0,.15,0,.22-.5-.32,0,.46-.63.3V3.43c-.21.1-.39.29-.63.31-.15-.24.21-.17.18-.38-.33.07-.56.61-.92.42.13-.1.33-.15.46-.25A.8.8,0,0,0,25,3.39h-.57l.16,0c-.27.77-.83.31-1.29.89.45-.55,0-.27,0-.56-.17,0-.41-.08-.37-.18-.2.31-.49-.06-.78.38,0-.09-.29.06-.29-.19-.33.17.13.14.13.27-.22.23-.56.21-.93.23a1.45,1.45,0,0,0-1.06.4c-.6.38-.62.72-1.16,1.07-.25-.07.05-.39.05-.39a1.17,1.17,0,0,0-.87.31c0-.1-.06-.15-.19-.22-.24.11,0,.39-.41.37a1.18,1.18,0,0,1,.11-.45c-.26.19-.49.46-.75.65-.14-.13.09-.3.16-.45-.32.19-.82.48-.82.77h.24c-.11.06-.14-.19-.07-.27a.27.27,0,0,1,.49,0l-.18.14c.41.44.81-.39,1.25-.52l0,.45.32-.48c.13.07.27.27.08.4.37.08.22-.24.55-.11,0,0,0,0,0,.07L19,5.8c0,.1.14.25-.06.26.61,0,.78-.57,1.07-.34l0,0c.7-.36,0-.31.44-.82l.59.59V5.22c.08,0,.24,0,.24.09.24-.28-.08-.12,0-.35.45.16,1-.4,1.22,0,.08-.26-.41-.07,0-.33.24.46.44-.21.84-.08,0,.29-.4.24,0,.38.1-.5.7-.07,1-.22-.07-.35.6-.28,1.06-.51,0,.12,1,0,1.45,0v.06c0-.37.51-.39.84-.53a.39.39,0,0,1-.19.44l.32-.06a.52.52,0,0,1,.35-.28l0,.28c.43-.08.83-.44,1.41-.35,0-.25-.54-.63,0-.88,0,.13.09.36-.05.44,0,0,.16-.14.27-.1l-.2.26c.26.06.1-.21.31-.22,0,.2.17.12.16.28s-.19-.06-.25,0a.94.94,0,0,1,.63.21.22.22,0,0,1,.13-.3c.44-.06.18.22.45.29.09-.15.38,0,.35-.33.13,0,.17.12.23.19.21-.15,1-.15.76-.43l-.06,0h0c.72-.35,1.56,0,2.28-.14v.1c.43-.13,1-.11,1.28-.34.13,0,.32.17.27.29a1,1,0,0,1,.86,0c-.34.18.12.15-.35.13.44.08.54.23,1,0-.16.25.33.31.54.23l-.31-.18a2.28,2.28,0,0,1,.64,0l-.11.33c.89.41,1.62-.67,2.29,0,.24-.22-.48-.18-.26-.44.41.06.82.55.95.56.55.2.54-.47,1.12-.31-.07-.12-.12-.44.33-.52.41.07.47.52.21.6-.1,0-.14,0-.14-.08s-.31.07-.16.21l.06-.11c.2.13.77.16.62.34.32-.09.15-.18-.08-.26.51.21.82,0,1.35.22-.08-.07-.15-.22-.06-.21.78.22.37-.19.91-.19.29.21-.15.42.41.32.32.15,0,.31-.1.4.51-.18.89.25,1.17.32l-.27.06a.94.94,0,0,1,.41,0L47,4.27c.15.05.28.07.26.17.18-.14-.07-.4.27-.58.18.14.63,0,.66.27-.62-.19,0,.32-.51.3a.61.61,0,0,1,.38.06s0,.06-.08.07c.57.36.33-.31,1-.21-.1.16.1.35.21.32-.25,0-.08-.3.17-.4.39.19.46,0,.67,0l-.24-.11c.11-.16.31-.1.6-.11,0,.14-.27,0-.18.13.37-.25.65.43,1.12.3.18.15,0,.32.12.44.53-.13.48.33,1,.24-.1-.26-.13-.2.27-.36h-.87l.6-.23c-.25,0-.56,0-.7,0,.29-.14.25-.09.17-.31.28.42.72-.07,1.08.24l-.13.57c.54.39,1.13-.07,1.87.25l-.23-.15c.16-.2.49.08.76,0-.07.18.07.28.15.43,0-.15.55.15.72-.21l.28.34c.59.26.85-.35,1.43-.12-.24.16,0,.36-.45.4.2.06.37.14.41,0,.08.15.62-.09.75.14.1-.06.19-.24.41-.16a.11.11,0,0,1,0,.09c0-.09.38,0,.26-.28.42.76,1.7.52,2,1.2a8.49,8.49,0,0,1,1.32.4c-.05,0,0,.08-.1,0,.21.19.34.1.49,0a.34.34,0,0,1,.51.07c0,.19-.06.19-.12.17s-.18-.07-.11,0c-.09.31,0,.31.1.33s.38.06.18.26l0,0,0,.06c0,.08,0,.12.11.22a.75.75,0,0,1,.1.55.13.13,0,0,0-.1,0,2.82,2.82,0,0,1,.32,1.6c-.22-.2-.1-.25-.36-.19,0,.23.42,0,.4.46-.17.13-.34.43-.62.41,0-.14,0-.28.07-.42-.38.14-.1.54-.22.74L63,11.71c-.11.63.26.75,0,1.42l.13,0c.24.49-.3.24-.16.7l-.41,0a5.69,5.69,0,0,1-.1,1.41,4.91,4.91,0,0,1-.13-1.26c-.08.23-.29.78-.17,1,0-.11,0-.26.06-.33a1.48,1.48,0,0,1-.11,1.3c-.62-.43-.79,1.06-1.5,1A2.41,2.41,0,0,1,59.91,18c-.31.33-.69.61-1,1,.67.12-.18.23.29.59-.14.2-.21.26-.25.24l-.77.25c-.24,0,.07-.25,0-.33-.4.32-.33-.05-.68.06.19.11.07.34-.2.47l.49-.06c-.34.72-.78,0-1.15.69l.06-.28c-.11.15-.38.35-.62.59a1.23,1.23,0,0,0-.51.78c-.1,0-.26-.11-.14-.24-.77.41-1.48,1.44-2.25,1.45v-.16c-.14.1-.15.37-.4.32,0-.06,0-.16-.07-.13s-.32.4-.56.4l.12-.22a1.64,1.64,0,0,0-1,.52,3.59,3.59,0,0,1-.84.64c-.13-.41-.82-.33-1.18-.33v-.06a4.23,4.23,0,0,0-1.29.5,13.07,13.07,0,0,1-1.24.58,2.87,2.87,0,0,0-1.39-.11,5.53,5.53,0,0,1-1.62,0c.15.06,0,.34-.16.39s-.61.35-.6,0H43c-.2-.38-.65-.23-1-.23l0,.52a2.14,2.14,0,0,0-1.68-.19c-.57.1-1.09.15-1.34-.18-.23.12-.52.11-.75.24l0-.28a9.73,9.73,0,0,0-1.72-.14l.18-.19c-.44,0-.62.76-1,.75l-.08-.43c-.76-.09-1.48-.53-2.28-.29a.2.2,0,0,1,.19-.17c-.36-.07-1.31-.53-1.3.06,0-.19-.15-.23-.41-.22a6.4,6.4,0,0,0-.79.08l.13-.26c-.42.26-.46.35-1,.33-.1-.07,0-.24.1-.14-.34-.23-.37.18-.78-.1l.22-.12c-.37-.14-.37,0-.64.09s-.71-.29-.68-.55a.44.44,0,0,1-.57.08c0-.1.11-.12.16-.14-.54-.42-1.05,0-1.36-.5a.22.22,0,0,0,0-.18,7.21,7.21,0,0,1,.82.4c.09-.24-.28-.43.16-.64-.38.08-1.07.2-1.39-.08a.16.16,0,0,1,0-.1h0a.33.33,0,0,0-.25-.07,1.31,1.31,0,0,0-.27-.22c.05-.21-.37-.33-.54-.44-.12.25-.34.08-.23.4,0,0,.05,0,.18.05s.07,0,.09,0l0,0,.47.23c-.21.05-.42.07-.56-.18-.18.1-.37.2-.47.24a2.44,2.44,0,0,0-.25-.67,1,1,0,0,1-.13-.51c-.3-.11-.63-.29-1-.42a1.43,1.43,0,0,0-1-.16c-.19-.06-.08-.25-.09-.35s.22.1.31.08c-.39-.1-.86-.65-1.17-.43-.25-.42.42-.08-.11-.45l.14,0a1.41,1.41,0,0,0-.54-.67,7.15,7.15,0,0,0-.73-.38,2.75,2.75,0,0,1-.72-.46,1.53,1.53,0,0,1-.43-.87.3.3,0,0,1,0,.21,16.57,16.57,0,0,0-1.33-2,4.77,4.77,0,0,1-.9-2.24c-.07-.44-.3-.4-.56-.6l.25-.19L16,12.49c-.44-.58.35-1.3-.29-2l-.17.15c0-.3-.32-.92-.08-.91,0,0-.23-.06-.15-.19l.16,0c-.13-.23-.26-.46-.38-.69,0-.58.61,0,.56-.8-.09-.29-.5-.82-.6-.71s-.08.32-.24.33l-.09-.28A3.21,3.21,0,0,0,14,7.3c-.21,0-.41.19-.55.59.11.17.21.34.33.51l-.21.19-.06-.45c-.18.28,0,.42.17.59a.36.36,0,0,0-.22.25l.51.45c-.17.09-.39-.18-.43.18.24.21.36-.29.56.08-.17.28-.34.24-.11.5-.11.06-.2,0-.27-.09.19.23.2.67.47.75-.2.31.28.83-.15.92a1.46,1.46,0,0,1,.54.58c-.62-.27.25.86-.31.93.28.08.43.34.57.64a2.92,2.92,0,0,0,.52.83s-.14,0-.14-.09a2,2,0,0,1,0,.68c.37-.12.66.3,1,.42-.15.52-.52,0-.78.27.27-.16.61.47.77.22-.05.38,0,.29-.17.59.45-.2.22.2.61.26,0,.5-.33.34.06.68,0,.13-.09.14-.19.1A.67.67,0,0,1,16.35,17.78Zm9.2,6.85h0l-.22-.08Zm.86.4L26,24.85c0-.1.08-.18.17-.13C26.14,24.75,26.31,24.9,26.41,25Zm-.91-2.57c.14,0,.15.11.15.17l-.23-.09,0,0A.35.35,0,0,1,25.5,22.46Z"/><path class="cls-1" d="M25.11,22.66h-.06a1,1,0,0,0,0,.1l.09-.05Z"/><path class="cls-1" d="M32.29,3.29h0l0,0Z"/><polygon class="cls-1" points="39.09 27.95 39.09 27.88 39 27.94 39.09 27.95"/><path class="cls-1" d="M27.14,3A.18.18,0,0,0,27.06,3,.18.18,0,0,0,27.14,3Z"/><path class="cls-1" d="M25,3.39l-.33,0A1.52,1.52,0,0,0,25,3.39Z"/><path class="cls-1" d="M23.27,3.63a.28.28,0,0,0,0,.13h0Z"/><path class="cls-1" d="M50.18,2.43h.07C50.41,2.41,50.3,2.41,50.18,2.43Z"/><path class="cls-1" d="M42.12,2.25c.09,0,.17-.09.26-.12C42.24,2.11,42.13,2.1,42.12,2.25Z"/><polygon class="cls-1" points="59.09 4.09 59.09 4.1 59.14 4.11 59.09 4.09"/><path class="cls-1" d="M42.76,2.16a.56.56,0,0,0-.38,0A.81.81,0,0,0,42.76,2.16Z"/><path class="cls-1" d="M16.18,5.73l-.08,0a.09.09,0,0,1,0,0Z"/><path class="cls-1" d="M16.11,5.8,16,5.86A.1.1,0,0,0,16.11,5.8Z"/><path class="cls-1" d="M15.88,6,16,5.86C16,5.89,15.89,5.91,15.88,6Z"/><path class="cls-1" d="M18.35,5.08V5A.15.15,0,0,0,18.35,5.08Z"/><path class="cls-1" d="M19,4.83c-.17,0-.46-.08-.66.06V5C18.39,4.8,18.89,5,19,4.83Z"/><path class="cls-1" d="M22.06,5.21l-.57.07c.13.07.29.18.05.27C22.31,5.68,21.34,5.36,22.06,5.21Z"/><path class="cls-1" d="M23.78,4.92c-.28.12,0,.15,0,.21C24,5,24,5,23.78,4.92Z"/><path class="cls-1" d="M36.24,3.26l0,.25C36.44,3.46,36.21,3.41,36.24,3.26Z"/><path class="cls-1" d="M38.64,1.91l-.23-.16L38.3,2Z"/><polygon class="cls-1" points="40.05 3.73 39.95 3.76 40.34 3.67 40.05 3.73"/><path class="cls-1" d="M60.68,7.18l0-.31C60.55,6.86,60.41,7.18,60.68,7.18Z"/><path class="cls-1" d="M62.86,13a.33.33,0,0,0-.25.44C62.69,13.26,62.87,13.1,62.86,13Z"/><polygon class="cls-1" points="41.51 25.44 41.69 25.33 41.35 25.43 41.51 25.44"/><circle class="cls-1" cx="41.71" cy="12.2" r="9.97"/><path class="cls-1" d="M52.34,12.2c-.09,0-.28,0-.24.08l.32.07Z"/><path class="cls-1" d="M51.7,12.82a1,1,0,0,0,.73.21c-.31-.13-.18-.15-.54-.29,0-.09.11-.16.23-.14-.08,0,.08-.14-.12-.2-.26.12-.28.26-.08.44C51.85,12.87,51.76,12.83,51.7,12.82Z"/><path class="cls-1" d="M47.22,20h0Z"/><path class="cls-1" d="M42.33,21.5a.06.06,0,0,0,.05-.07S42.32,21.48,42.33,21.5Z"/><path class="cls-1" d="M41.46,21.16l0,0S41.48,21.14,41.46,21.16Z"/><path class="cls-1" d="M47.22,20h-.17C47.11,20,47.15,20,47.22,20Z"/><path class="cls-1" d="M52.33,14.18a.17.17,0,0,0-.07-.1.29.29,0,0,1,0,.09Z"/><path class="cls-1" d="M48.73,18.22l0,0-.07-.11Z"/><path class="cls-1" d="M49.68,16.79s.2.17.3.25c-.09-.08-.12-.13-.12-.17A.61.61,0,0,0,49.68,16.79Z"/><path class="cls-1" d="M51.15,14.37l0-.06S51.13,14.35,51.15,14.37Z"/><path class="cls-1" d="M47.82,19.05,47.74,19S47.79,19,47.82,19.05Z"/><path class="cls-1" d="M52.72,9.78h0S52.72,9.8,52.72,9.78Z"/><path class="cls-1" d="M51.61,12.2l0,0h-.15Z"/><path class="cls-1" d="M40,20.65h0S40,20.63,40,20.65Z"/><path class="cls-1" d="M33.09,10.34c-.28.1-.24-.33-.57-.15C32.63,10.19,32.89,10.5,33.09,10.34Z"/><path class="cls-1" d="M52.29,14.23a.25.25,0,0,1,0,.08S52.3,14.25,52.29,14.23Z"/><path class="cls-1" d="M32.52,10.19h0l0,0Z"/><path class="cls-1" d="M36.77,19.46a.93.93,0,0,0,0,.13A.28.28,0,0,0,36.77,19.46Z"/><path class="cls-1" d="M39,21l0-.06Z"/><path class="cls-1" d="M35.46,18.9s0-.08-.06-.08l0,0S35.45,18.84,35.46,18.9Z"/><path class="cls-1" d="M34.47,17.82a.13.13,0,0,0,0,.05l0,0Z"/><path class="cls-1" d="M50.21,5a1.64,1.64,0,0,1-.14.22C50.2,5.08,50.43,5.23,50.21,5Z"/><path class="cls-1" d="M52.18,14.15c.07,0,.1,0,.11.08a.13.13,0,0,0,0-.06A.2.2,0,0,0,52.18,14.15Z"/><path class="cls-1" d="M33.91,20.45l-.19-.23A.8.8,0,0,0,33.91,20.45Z"/><path class="cls-1" d="M38.65,1.54l.05-.05S38.66,1.51,38.65,1.54Z"/><path class="cls-1" d="M33.12,19.62a.44.44,0,0,0,0-.24.11.11,0,0,0-.07,0Z"/><path class="cls-1" d="M50.07,5.23Z"/><path class="cls-1" d="M51.68,6.39c-.14-.24-.38.07-.58.13-.26-.22.15-.27.25-.46-.19-.13-.55-.07-.63-.19s0-.08.12-.1c-.36,0-.39-.5-.82-.46a.22.22,0,0,1,0-.08,1.67,1.67,0,0,1-.36.35c-.08-.08-.32,0-.16-.2,0,.06.11,0,.19,0l-.16,0c.19-.31.2,0,.4-.12-.25-.11-.64-.12-.69-.32.21-.26.37.24.42-.14l.1.29c.24-.51.09.16.38-.37-.2-.35-.41-.21-.62-.55-.2.08-.18.22-.37.3-.61-.11.25-.92-.34-.85-.23.1-.52.41-.6.07l.3-.24c-.27-.26-.49.31-.65-.12.14-.09.31.07.29,0,0-.4-.27.06-.42,0l.16-.3c-.38-.16-.86-.2-1.27-.33.07-.08.18-.14.14-.27A1.89,1.89,0,0,1,46,2a5.31,5.31,0,0,1-.71-.54L45,1.65s0-.15,0-.19c-.17-.16-.06.17-.19.26s-.1-.2,0-.27c-.43.14-1.11.25-1.44-.09l.09-.07c-.29-.16-.42.53-.65.23l.06-.05c-.63-.17-1.33.06-1.84-.33-.06.42-.66-.15-.63.45-.4-.23-.31-.35-.87-.46-.15,0-.13.4-.28.5l-.08-.3-.15.37-.21-.32-.14.11a.25.25,0,0,1,.18.19c-.2.18-.64,0-.7-.18L37.7,2c0-.12,0-.19.09-.29-.19.4-.17-.28-.35.09.07.05.05.17.07.23-.21-.12-.51,0-.7.21L36.76,2a6.85,6.85,0,0,0-1.24.8c.21,0,.37.32.27.42L35.56,3c0,.22.2,0,.17.33-.17.07-.31-.23-.28-.38l-.12.23c-.06-.07,0-.15-.11-.26,0,.22-.51,0-.42.34l-.06-.06c-.43.3-.5.56-.81.85.19.2,0,.27.1.51a2.65,2.65,0,0,0-.87.53c-.06.29.13.21.19.4-.21-.14-.41.16-.44-.1-.11.18-.18.3-.25.44a2.11,2.11,0,0,0-.17.6c.12,0,.19,0,.25.05s-.21.13-.3,0v0c0,.36-.34.55-.63.79s-.59.47-.42.8V8l.08.57c-.12.2-.13-.2-.34-.09a.94.94,0,0,1-.05.72.79.79,0,0,0-.1.61c-.42.09-.44.42-.45.75a2.61,2.61,0,0,1,0,.49.62.62,0,0,1-.18.42l.18,0c.16.13-.11.14-.16.23.14,0,.17-.12.26,0a6.08,6.08,0,0,1,0,1.59c0,.28-.05.55-.07.84l0,.42,0,.42c.06.41.94,0,.66.57l-.35,0a2.69,2.69,0,0,1,.57,1.08,2.53,2.53,0,0,0,.64,1c-.09,0-.18,0-.21,0-.13.26.3.53.47.43,0,.12-.14.12-.18.23s.46.19.32.39c0,0-.09,0-.12,0,.15,0,.27.42.43.18.07.31.42.37.44.65.33-.09.23.46.58.2-.35.29.07.64.36.59-.14.06,0,.21-.16.3.16.14.36.2.48,0-.06.68.86.14.61.81l.47.14.44.11c.3.08.55.18.82.24-.23.4-.54-.25-.75.16.54.14,1-.12,1.4.21.09.11-.15.15-.22.2a2.53,2.53,0,0,1,.74.21,1.23,1.23,0,0,0,.71.11.25.25,0,0,1-.13.09c.09,0,.19.11.23-.08l-.1,0c-.05-.32.51-.5.56-.65-.29.52.38.25,0,.9a.28.28,0,0,0,.18-.23c.08.06.09.14,0,.27.34,0,.27-.28.55-.22,0,.1-.08.12-.13.23.18-.16.35-.33.58-.21,0,.06,0,.14-.07.12.42,0,.75-.44,1.18-.22-.14.41.15.14.17.51l.25-.11-.1-.17c.22,0,.4-.28.59-.17l-.15.16.4-.09-.24-.13c.2-.2-.05-.47.23-.38,0,0,.2,0,.33.19h0c.09-.13.18-.27.34-.2s0,.41.07.48c0-.32.48-.15.54-.51a.63.63,0,0,0,0,.32l0-.27c.11.05.13.09.15.24.3,0-.2-.43.19-.32,0,0,0,.06-.05.11.37,0,.61-.31,1-.32.21.32-.24.18,0,.44a3,3,0,0,0,.6-.47,1.51,1.51,0,0,1,.6-.4h-.1c-.18-.5.42.09.51-.24,0,.06.07.29.06.23.31-.09.49-.44.79-.83l0,.15c.21,0,.42-.23.62-.3,0-.15.07-.19-.11-.31.49.13.63-.18.76-.44s.21-.56.63-.54c-.05.05,0,.19,0,.15l.22-.42c-.2-.12-.14,0-.34-.09a.37.37,0,0,1,0-.37c0,.24.29.23.44.24-.06,0-.11-.11-.17-.14.46.06-.33-.32.07-.4l.09.08c0-.13,0-.31.06-.39.25.11,0,.17.2.3.09-.16-.2-.56.1-.56a3,3,0,0,1,0,.31c.36,0,.3,0,.41-.13h0l.28-.2-.11,0c-.48-.56.16-.46-.12-1,.25.47.2.16.45.32.11,0,.25-.1.31,0-.15-.25.28-.15.05-.5.1,0,.08-.14.29,0,0-.21-.18,0-.28-.09-.18-.38.63-.52.36-1.08-.08-.41-.38-.56-.46-.91.18-.07.32.17.32.17a.35.35,0,0,0,.12-.47c.08.05.15,0,.27,0s-.33-.16-.17-.31a1.17,1.17,0,0,1,.36.2c-.06-.18-.21-.37-.27-.55.17,0,.23.14.33.21,0-.2-.07-.52-.34-.6l-.1.11c0-.07.23,0,.27.05s-.12.22-.22.22l0-.13c-.58,0,0,.48-.06.72l-.38-.17.29.3c-.11,0-.34,0-.38-.11-.23.12.11.18-.15.26a0,0,0,0,1-.06,0l.07.18c-.07-.05-.28,0-.2-.12-.3.21.18.52-.14.54l0,0c0,.42.28.12.52.52l-.78-.05.27.14a.12.12,0,0,1-.18,0c.14.22.13,0,.29.18-.32.09-.09.56-.55.4.17.16.24-.09.29.16-.49-.16,0,.26-.32.32-.21-.17,0-.25-.3-.2.36.3-.24.26-.24.42.31.18,0,.35-.07.63-.08-.07-.43.27-.67.37l0,0c.26.25.07.42,0,.59a.51.51,0,0,1-.22-.35l-.11.12a.26.26,0,0,1,0,.28l-.18-.21c-.13.16,0,.55-.37.61.16.19.67.34.55.68-.1-.09-.27-.26-.25-.35s0,.14-.07.14l-.07-.25c-.17,0,.08.19,0,.24-.13-.14-.15,0-.25-.17s.12,0,.1-.09a.45.45,0,0,1-.42,0c.08.08.17.2.13.27s-.21-.12-.36-.12c0,.14-.15.11,0,.34,0,0-.14-.06-.21-.11,0,.17-.39.34-.11.51h0v0h0c-.13.47-.74.28-1,.58l-.05-.09c-.13.21-.4.27-.45.54-.06,0-.21-.1-.24-.22-.12.14-.09.26-.38.19.1-.21-.11-.12.12-.17-.24,0-.33-.14-.45.19,0-.26-.26-.24-.33-.13l.2.11a.55.55,0,0,1-.3.11l0-.34c-.26-.13-.39.07-.53.25s-.29.34-.51,0c-.07.24.26.13.21.41-.21,0-.49-.45-.55-.44-.28-.15-.18.52-.47.42,0,.11.11.42-.11.55-.21,0-.28-.48-.16-.58s.07,0,.07.06.14-.1.06-.22l0,.12c-.11-.12-.37-.09-.32-.29-.14.12-.05.2.06.25-.26-.16-.39,0-.65-.1,0,.06.08.2,0,.2-.38-.17-.18.21-.45.25-.14-.18.08-.42-.19-.29-.15-.12,0-.31.06-.4-.25.23-.4-.2-.52-.25l.13-.08a.34.34,0,0,1-.19,0l0,.24c-.06-.05-.12-.06-.1-.16-.1.14,0,.39-.19.58-.07-.14-.32.08-.29-.24.27.16,0-.3.28-.31a.15.15,0,0,1-.17,0,.08.08,0,0,1,0-.07c-.21-.34-.2.31-.49.23.08-.16,0-.34,0-.31.11,0,0,.29-.16.39-.15-.17-.23.05-.33,0l.1.09c-.09.16-.18.11-.33.11,0-.13.15,0,.12-.12-.24.24-.22-.42-.48-.29,0-.15.11-.31.06-.42-.31.14-.13-.31-.42-.24,0,.24,0,.2-.25.33l.43,0-.38.19c.12.06.3,0,.35.05-.19.13-.15.07-.18.28,0-.4-.39,0-.48-.27l.27-.52c-.14-.34-.6,0-.85-.29l.05.15c-.16.17-.22-.1-.37-.08a.7.7,0,0,0,.11-.38c-.08.12-.21-.18-.46.12V19.4c-.17-.26-.63.23-.81,0,.2-.1.2-.3.44-.28-.07-.07-.11-.15-.2-.05,0-.13-.38,0-.33-.19-.08,0-.24.17-.31.08a.27.27,0,0,1,.07-.06c-.07.07-.22,0-.3.19a.53.53,0,0,0-.21-.63c-.16-.14-.32-.29-.19-.56a2.59,2.59,0,0,1-.52-.46s.08-.05.08,0c0-.33-.55.16-.55-.23.18-.3.23.06.28-.09.53-.37-.28-.27,0-.64l.05,0c.13-.24-.38-.24-.45-.49l.09,0a1.13,1.13,0,0,1-.78-.53c.27,0,.17.06.39-.07-.07-.09-.37.18-.52,0,.1-.12.16-.31.42-.41a1.54,1.54,0,0,0,.08.19c.29-.21-.1-.25-.06-.38l.15,0c-.13-.29-.51-.2-.57-.55l-.1.06c-.43-.12.18-.2-.13-.34l.37-.13a2.19,2.19,0,0,1-.54-.61,3.12,3.12,0,0,1,.68.48c0-.12-.09-.4-.29-.45,0,0,.15.1.1.15a.61.61,0,0,1-.5-.57c.76,0,.15-.67.77-.83a.71.71,0,0,1,0-.65,1.85,1.85,0,0,0,.23-.66c-.6.07,0-.14-.59-.23,0-.13,0-.17.05-.17L33,9.93c.19,0,.1.13.23.16.11-.23.28,0,.47-.15-.22,0-.28-.17-.17-.28l-.31.12c-.23-.44.57-.14.38-.56l.14.17c0-.21.22-.6-.13-1,.08,0,.24,0,.25.12.13-.17.1-.45.13-.7s.09-.47.3-.53l.11.11c0-.09-.17-.28,0-.28s.1.11.13.09-.08-.32.05-.36l.08.17a.45.45,0,0,0,.2-.5,1.47,1.47,0,0,1,0-.6.73.73,0,0,0,.81.09l0,0a1,1,0,0,0,.35-.56,2.41,2.41,0,0,1,.29-.66.84.84,0,0,0,.7-.11,1.37,1.37,0,0,1,.73-.23.34.34,0,0,1-.09-.38c.13,0,.14-.41.29,0h0c.23.32.37.13.54.09l-.17-.49c.36.28.59.1.82-.05s.46-.29.65,0c.08-.16.21-.18.29-.32l0,.28A1.84,1.84,0,0,0,41,3.57l-.05.2c.19,0,.19-.82.4-.84l.07.41c.38,0,.71.37,1.09,0,0,.06,0,.18-.09.2.18,0,.6.35.63-.22,0,.37.36.08.59,0l-.08.26c.23-.3.26-.39.52-.42,0,0,0,.22-.06.13.14.19.21-.21.4,0l-.14.15c.18.07.2,0,.36-.19s.34.2.28.44c.07-.14.25-.29.33-.18a.23.23,0,0,1-.11.15c.23.27.57-.09.67.24a.35.35,0,0,0,0,.17c-.23-.12-.41-.22-.38-.23-.1.23.06.36-.22.61.21-.11.64-.36.77-.17a.31.31,0,0,1,0,.09l0,0s.08,0,.14,0a.37.37,0,0,0,.1.16c-.09.19.13.21.21.27.14-.24.23-.13.25-.39,0,0,0,0-.1,0h0l-.22-.12c.13-.08.27-.14.29.06L46.83,4c-.07.41,0,.72-.07,1,.33.06.64.33,1.12.08.12,0,0,.19-.05.27s-.11,0-.18,0c.22,0,.43.31.72.08.05.28-.33.15-.06.33l-.11,0c0,.43.32.44.66.5s.65.19.55.68a.2.2,0,0,1,.06-.13,2.15,2.15,0,0,0,.24.56c.11.17.26.32.36.5A1.38,1.38,0,0,1,50.39,9c0,.25.2.19.41.27l-.26.13.39.13c.16.13,0,.32-.09.5s-.2.36.06.52l.19-.08c0,.15.19.46,0,.46,0,0,.21,0,.12.1l-.16,0a3.17,3.17,0,0,1,.3.34c-.09.3-.62,0-.63.41.07.14.48.42.58.37a.23.23,0,0,1,.25-.17l.08.14c.47,0,.94.16,1.24-.25l-.29-.27.22-.11,0,.24c.21-.14,0-.22-.12-.31a.39.39,0,0,0,.24-.14l-.45-.24c.17-.05.37.09.44-.11-.22-.1-.38.17-.54,0,.18-.15.36-.14.16-.27a.22.22,0,0,1,.25,0c-.16-.12-.11-.37-.37-.4.24-.18-.14-.45.28-.53-.11,0-.4-.16-.44-.28.56.1-.1-.48.45-.58-.48,0-.41-.55-.76-.76,0,0,.13,0,.11.05,0-.18.09-.29.13-.43-.36.13-.56-.08-.84-.11.25-.35.47-.08.76-.29-.28.14-.44-.21-.65,0,.14-.25,0-.18.29-.4-.44.2-.14-.11-.47-.08.08-.32.36-.28.1-.43C51.41,6.27,51.68,6.39,51.68,6.39Zm-5-3.7h0l.12,0Zm-.46-.21.19.1c0,.1-.08.18-.13.15S46.2,2.58,46.17,2.48Zm0,2.15c-.08,0-.07-.06,0-.11l.12,0,0,0A.45.45,0,0,1,46.15,4.63Z"/><path class="cls-1" d="M46.44,4.38h0V4.31l-.07.06Z"/><path class="cls-1" d="M47.3,19.94h0s0,0,0,0Z"/><polygon class="cls-1" points="39.19 1.26 39.2 1.33 39.23 1.26 39.19 1.26"/><path class="cls-1" d="M49.86,18.84l.07,0Z"/><path class="cls-1" d="M50.6,17.91l.18-.09A.59.59,0,0,0,50.6,17.91Z"/><path class="cls-1" d="M51.19,17.18l-.1-.07h0Z"/><path class="cls-1" d="M38.5,22.76h0C38.36,22.79,38.42,22.78,38.5,22.76Z"/><path class="cls-1" d="M42.91,22.51a1.11,1.11,0,0,1-.12.16C42.87,22.68,42.93,22.67,42.91,22.51Z"/><polygon class="cls-1" points="33.93 20.47 33.93 20.47 33.91 20.45 33.93 20.47"/><path class="cls-1" d="M42.59,22.67a.16.16,0,0,0,.2,0A.23.23,0,0,0,42.59,22.67Z"/><path class="cls-1" d="M52.49,13.35v0h0Z"/><path class="cls-1" d="M52.46,13.3l0-.05S52.43,13.29,52.46,13.3Z"/><path class="cls-1" d="M52.37,13.14l.06.11S52.44,13.17,52.37,13.14Z"/><path class="cls-1" d="M52.15,14.56l.1,0Z"/><path class="cls-1" d="M52.09,14.93c0-.08.26-.17.23-.31l-.07,0C52.38,14.68,51.94,14.8,52.09,14.93Z"/><path class="cls-1" d="M50.45,15.92c.06-.07.11-.15.17-.23-.12,0-.27,0-.25-.11C50,15.78,50.62,15.6,50.45,15.92Z"/><path class="cls-1" d="M49.94,16.63c0-.16-.14-.07-.19-.11C49.79,16.65,49.8,16.68,49.94,16.63Z"/><path class="cls-1" d="M45.52,20.72l-.09-.23C45.34,20.57,45.47,20.58,45.52,20.72Z"/><path class="cls-1" d="M44.8,22.38l.17.12,0-.24A.88.88,0,0,1,44.8,22.38Z"/><polygon class="cls-1" points="43.65 20.83 43.68 20.78 43.53 20.91 43.65 20.83"/><path class="cls-1" d="M34.81,17.87l-.22.22C34.69,18.11,35,17.9,34.81,17.87Z"/><path class="cls-1" d="M32.67,14.14c.14-.08.22-.21.06-.26C32.72,14,32.62,14.1,32.67,14.14Z"/><polygon class="cls-1" points="38.69 4.01 38.65 4.13 38.77 4 38.69 4.01"/></g></g></svg>