<svg xmlns="http://www.w3.org/2000/svg" viewBox="0 0 24.5 24.5"><defs><style>.cls-1{fill:#fff;}</style></defs><title>logo hoog contrast</title><g id="Layer_2" data-name="Layer 2"><g id="navigatiebalk"><circle class="cls-1" cx="12.25" cy="12.25" r="12.06"/><path d="M12.25,24.5A12.25,12.25,0,1,1,24.5,12.25,12.27,12.27,0,0,1,12.25,24.5Zm0-24.12A11.87,11.87,0,1,0,24.12,12.25,11.89,11.89,0,0,0,12.25.38Z"/><path class="cls-1" d="M12.25,23.28a11,11,0,0,1,0-22.06Z"/><path d="M12.44,23.47h-.19A11.22,11.22,0,0,1,12.25,1h.19Zm-.38-22a10.83,10.83,0,0,0,0,21.66Z"/><path d="M12.3,1.26a11,11,0,0,1,.13,22Z"/><path d="M12.24,23.5,12.11,1.07h.25a11.22,11.22,0,0,1,.07,22.44Zm.25-22,.13,21.67a10.84,10.84,0,0,0-.13-21.67Z"/></g></g></svg>