<?xml version="1.0" encoding="utf-8"?>
<!-- Generator: Adobe Illustrator 23.0.1, SVG Export Plug-In . SVG Version: 6.00 Build 0)  -->
<svg version="1.1" id="Layer_1" xmlns="http://www.w3.org/2000/svg" xmlns:xlink="http://www.w3.org/1999/xlink" x="0px" y="0px"
	 viewBox="0 0 433.5 382.3" style="enable-background:new 0 0 433.5 382.3;" xml:space="preserve">
<style type="text/css">
	.st0{fill:none;stroke:#000000;stroke-width:9;stroke-miterlimit:10;}
</style>
<title>Artboard 1</title>
<g id="Oog">
	<path class="st0" d="M227.1,96.3c64.8,47.2,123.3,81.4,184.9,93.1c-60.2,15.8-120.6,44.4-176.6,93.4"/>
	<path class="st0" d="M149.4,103.4c22.4-27.3,36.1-54.9,41.1-82.6c7,26.9,20.2,53.3,41,79"/>
	<path class="st0" d="M99.4,161.3c-5.2-35-16.4-63.6-33.5-86c24.6,12.9,53,20.9,86.1,22.7"/>
	<path class="st0" d="M104.5,234.8c-27.6-22-55.6-35.6-83.4-40.3c26.8-7.3,53.1-20.8,78.5-41.9"/>
	<path class="st0" d="M160.8,283.2c-35.2,3.2-64.4,12.7-87.7,28.5c14.3-23.8,23.9-51.7,27.6-84.6"/>
	<path class="st0" d="M238.5,279.8c-23,26-37.4,54.2-42.4,81.9c-7-26.9-20.2-53.3-41-79"/>
	<circle class="st0" cx="191.5" cy="190.8" r="97"/>
</g>
</svg>
