<svg id="Layer_1" data-name="Layer 1" xmlns="http://www.w3.org/2000/svg" viewBox="0 0 206.85 315.73"><defs><style>.cls-1{fill:#fff;}</style></defs><title>oor</title><path class="cls-1" d="M241.33,349.18a.43.43,0,0,0,.08-.27A.33.33,0,0,0,241.33,349.18Z" transform="translate(-94.01 -40.79)"/><path class="cls-1" d="M203.21,325.05l.46.36C203.42,325.13,203.3,325.05,203.21,325.05Z" transform="translate(-94.01 -40.79)"/><path class="cls-1" d="M268.57,340.05s0,.06,0,.09l1.73-1.1Z" transform="translate(-94.01 -40.79)"/><path class="cls-1" d="M144.63,235.16l.43.5A3,3,0,0,0,144.63,235.16Z" transform="translate(-94.01 -40.79)"/><path class="cls-1" d="M181.15,288.46a2.8,2.8,0,0,1-.54-.67C180.78,288.16,180.94,288.44,181.15,288.46Z" transform="translate(-94.01 -40.79)"/><path class="cls-1" d="M284.41,333.78l-.9.42C283.65,334.3,284,334.17,284.41,333.78Z" transform="translate(-94.01 -40.79)"/><path class="cls-1" d="M297.54,304.93a.28.28,0,0,0-.1.06C297.47,305,297.5,305,297.54,304.93Z" transform="translate(-94.01 -40.79)"/><path class="cls-1" d="M292.24,316c-.07.25-.12.56-.2.86C292.19,316.54,292.37,316.1,292.24,316Z" transform="translate(-94.01 -40.79)"/><path class="cls-1" d="M292,317.28l.09-.41C292,317.08,291.88,317.26,292,317.28Z" transform="translate(-94.01 -40.79)"/><path class="cls-1" d="M274.7,134.85a7.68,7.68,0,0,0,.81,2.27Z" transform="translate(-94.01 -40.79)"/><path class="cls-1" d="M108.93,151.34l.16.17C109,151.34,109,151.32,108.93,151.34Z" transform="translate(-94.01 -40.79)"/><path class="cls-1" d="M278.13,135.49v.62A2.14,2.14,0,0,0,278.13,135.49Z" transform="translate(-94.01 -40.79)"/><path class="cls-1" d="M272,345.79c-.58.86-2.51,1.45-2.3,1.76C270.51,347,271.9,346.49,272,345.79Z" transform="translate(-94.01 -40.79)"/><path class="cls-1" d="M95.78,130.09l0-.61A4.48,4.48,0,0,0,95.78,130.09Z" transform="translate(-94.01 -40.79)"/><path class="cls-1" d="M278.13,135.49v-.72a1.43,1.43,0,0,0-.16.24A1.6,1.6,0,0,1,278.13,135.49Z" transform="translate(-94.01 -40.79)"/><path class="cls-1" d="M143.39,68.59h0l-.13.15Z" transform="translate(-94.01 -40.79)"/><path class="cls-1" d="M148,66.84l-.87.58A2,2,0,0,0,148,66.84Z" transform="translate(-94.01 -40.79)"/><path class="cls-1" d="M275.51,137.12l.43,1.28A6.21,6.21,0,0,0,275.51,137.12Z" transform="translate(-94.01 -40.79)"/><path class="cls-1" d="M201.49,55.1a3.87,3.87,0,0,0-.49,0A2,2,0,0,0,201.49,55.1Z" transform="translate(-94.01 -40.79)"/><path class="cls-1" d="M182.76,292.15c0,.13.1.3.14.44S183,292.54,182.76,292.15Z" transform="translate(-94.01 -40.79)"/><path class="cls-1" d="M154.78,263.33h0Z" transform="translate(-94.01 -40.79)"/><path class="cls-1" d="M156.57,264.56a4,4,0,0,0-1.79-1.23A4.79,4.79,0,0,0,156.57,264.56Z" transform="translate(-94.01 -40.79)"/><path class="cls-1" d="M151.75,259.85l.14.21A.77.77,0,0,0,151.75,259.85Z" transform="translate(-94.01 -40.79)"/><path class="cls-1" d="M172.68,295.46l0,0h0Z" transform="translate(-94.01 -40.79)"/><path class="cls-1" d="M168.82,287.63a2.49,2.49,0,0,0-.1-.61A1.67,1.67,0,0,0,168.82,287.63Z" transform="translate(-94.01 -40.79)"/><path class="cls-1" d="M136.5,244.57h0l0,0Z" transform="translate(-94.01 -40.79)"/><path class="cls-1" d="M95.65,171.87c.23,1.06.45,2.17.74,3.28l1,3.42c.61,2.33,1.48,4.65,2.25,7s1.74,4.61,2.55,6.84,1.73,4.32,2.52,6.28c1.48,1.37,2.51,3.83,3.89,6.13l-.79.71,1.29,1.86c.13,1-.94-1.46-.57.16l1,.47c-.27.34,2.51,5.18.07,2.22l2.08,3.83,2.2,3.76c.95,1.67,1.31.52,2.21,2.44,0,.53-.58-.53-.8-.19a15.16,15.16,0,0,0,2.08,3.33,18,18,0,0,0,2.15,2,24.25,24.25,0,0,1,2.15,1.89,14.64,14.64,0,0,1,2.23,2.88l-.4-.32c.79.66,1.88,2.21,2,2.14.38-1.21-1.08-.51-1.62-2.33.79-.38,1.66,1.54,2.13,1.05.57,1.28,1.44,1.62,2.19,2.54.76,2,2.9,4,3.29,5.6.84.6,2.2.92,3.57,2.53.44,1.6-.74.15.4,1.89l.6-.07c1,1.34.75,1.23.53,1.34,1.16,1.39,1.49.7,2.74,2.62l-1.2-.63a31.72,31.72,0,0,1,3.15,3.48c-.25.16-.86-.55-1.25-1.13.28,1.46,1.68,1.41,2.08,2,0-.29-1-1.55-.08-1.3.71.92,2.15,1.37,2.27,2.38l-1.21-.61c1.9,1.53,1.33.54,3,2.7-.13-.08-.17,0-.29.08,1.65.85,2.77,2.91,4.5,4.81l-.43-.26c.83.63,1.55.74,1.9,1.17-.79-1.26-.41-1.07-.15-1.5.72,2,2.72,1.48,4.52,4.09-.24.16-1-.15-1.39-1-1.36-.19-2,.22-3.58-.9,1,.73,2,1.66,1.55,1.69l.83-.27c.51.51.87.95,1.24,1.35.58-.13-.4-1.62,1-.64,1.47,1.19.09,1.28.55,1.25,2,1.65,1.35.19,2.83,2.17a2.09,2.09,0,0,1-.73-.6c1,1.51,3,3.09,2.57,4.08-.32-.05-.55.11-.92-.43l.12-.08c-1.76-.94,1.18,1.05.12,1.17.16-.22.58.14,1.05.65a12.26,12.26,0,0,1,1.11,1.56l.29-.59c1.57.72,1.27.85.85,1.05a1.13,1.13,0,0,0-.58.47c-.11.25-.24.34,0,.73,1.26,2.24-.18-.95.74.36.51,1.61.25,2.37,1.41,4.51,0,.7.28,2.08-.27,2.45.81,1.23,1.51,4.18,2.44,4.67-.52-2.49-1.65-2-2-5l.91.49c.77,1.87,2.11,4.08,2.49,5.43,0-.31.09-.49.29-.39,1.41,2.49,2.35,2.95,3.38,5.53-.37.58-1-.92-1.54-2,.35,1.82.77,1.71,1.84,4.27-.4.36-.81-1.68-1.4-1.75l1.52,2.69s-.06,0-.1,0c1,0,1,2.12,2.1,3.68,2.09,3.95,3.44,4,5.24,5.79.12.69,0,1-.3.83-.2-1.14-.37-.82-.75-1,.8,1.27.91,3.27.18,2.72,1.43,1.95,0-1,.93.16l1.61,2.85c.17-.55-.34-1.59.82-.31a35.2,35.2,0,0,1,2.08,3.4c-.32-.12-.26.85-1-.36a4.47,4.47,0,0,0,1.73,2.29c-.76-1.93,2.13,2.63,1.87,1,.26.64.54,1.28.8,1.92-.25-.4-.52-.28-.83-.9-.23.85,1.09,1.29,1.54,1.84.28.68,1.3,2.25,1.19,2.52a4,4,0,0,1,1.23,2.24c.66.71.39-.19.73-.09.61.9,1.28,1.77,1.92,2.66-.19.36-.83,1.2-1.24.89,1,.79,1.12-.3,2.25,1.21-1.25-.41,1.14,2.29-.51,1.59a8.23,8.23,0,0,0,1.39,2.4,20.81,20.81,0,0,0,2.18,2.37c1.13.44-1-1.62-.47-1.91,3.32,3.53,4.74,2.61,7,5.33-.18-.25-.36-.5-.53-.76a9.16,9.16,0,0,0,2.82,1.72c-.46.05-.35.83.23,1.91a13.46,13.46,0,0,0,3.18,3.51c.44-.06-1.11-1.87-.3-1.91l1,.75,1,.7c.1.16-.18.09-.48,0,1.85,1.13,2.64,3.24,3.68,2.88l1.28,2.13-.5-.88a3.86,3.86,0,0,1,1.51.56c.67.3,1.35.61,1.61.68a12.49,12.49,0,0,1,2.54,1.28,9.89,9.89,0,0,1,1.6,1.3c-.28-.46-1-1.52.86-.79-.24.5.63,1.13,1.63,1.49s2,.71,1.87,1c.75.31,2.1,1,2.32.56l-.32.66c.23-.46,1.07-.5,2.14-.38s2.39.22,3.54.31c-.34.65.3.71,1.14.77s1.88-.06,2.41.58c.22-.48,1.27-.5,2.3-.66s2.05-.35,2.2-.77c1.77-.24,1.73.61,2.21.82l.71-.49a9.51,9.51,0,0,0,2.63-.06c1.14-.17,2.41-.39,3.38-.48.51-.4,1-.86,1.49-1.29l.73.17c.22-.28,1.59-.82.62-.85l.93-.23c-.21-.88,1.19-.69,2.85-1.69.47,0,.44.23.09.48.89-.33.67.24,1.27.33-.69,0,2.56-2.8,0-2.2-.3-.28,1-1.06,1.86-1.3l.84.5.64-1.24c1.25-.71,2-.57,3.09-1-1,.6-1.67,2.65,1.12,1.14a22.77,22.77,0,0,0-2.65,2.19c.61-.26,1-.33.16.42,2.15-1.33.53-.82,2.67-2,.22.68,1,.61,3-.33l-1.67.39a.75.75,0,0,1,.17-.33c-.56.25-.78.22-1,0,.45-.21,2-2.23,2.58-2.05-1.36.14-.53-.57.36-1.35s1.89-1.58,1.05-1.43c.13-.31,1.45-1.32,1.8-1.14-1.3,1.64,1.71-.25,1.76.34.48-.62-1.61.53-1-.3a8.3,8.3,0,0,1,2.57-1.22l-.31.42,1.67-.95c0-.47-1.8.69-.58-.55.45-.18,1.6-1.49,1.75-1.24-.28.93.62,1-.42,2.11.44-.44,1.4-1.34,2-2.06s.88-1.29.08-1l1.06-1c-.88.45-3.07,1.84-1.07-.28l.09.12c.35-.6.7-1.2,1-1.83l.87-.39c-.15-.11-.06-.46.45-1,.3,0,.82-.48,1-.25,1.38-1.7,1-1.79,1-2.14.7-1,1.1-1.26,1.09-.55,1.13-1.25,2.69-3.71,3.61-4.48.94-2.07-.37.3-.08-1.06,1-.49,2.11-2,3-3.9.47-.92.85-1.95,1.25-2.93s.7-2,1-2.83c-1.38.5.26-1-.44-1.95.07.87,2-3,1.18.16l.54-1.88c1-1.08-.64,3.21.81,1.57.73-2.13,0-3.86,1-6.26.56,1,.2-2,.89-1.19a5.12,5.12,0,0,1-.22,2l.27-.41c.68-2.38.5-2.79.19-2.91s-.76,0-.79-1.28c.37-2.93,1-2.22,1.36-2.35a6.84,6.84,0,0,0,.1-2.8c.35,1.91-.84,3.33-1.22,2.43,1.09-1.18.43-4.43.07-5.22a23.22,23.22,0,0,0-.67,3.51,10,10,0,0,1-1,3.18c.2.57,1,.62.24,2.86-.11-1.52-.44,0-.68.38.55-.34-.15,1.61-.17,2.33-.53.52-.67-1.59-1.45.59l.92.72c-.42.83-.64-.59-1,1.33-.24-1.16-.9,0-.35-2.49-1.73,2.67-.92,4.63-1.47,7,0-.26-.09-.33-.07-.59a5.79,5.79,0,0,1-.53,2.13c-.87,1.36.05-1.35-.39-1.09-.34.78-.64,1.58-1,2.35-.05,0-.07,0-.09,0-.16.67-.35,1.29-.7,1.38a12.39,12.39,0,0,0-.21-1.83c-.16.89-.3,1.81-.51,2.71-.18-.42-1.57,1.63-.92-.15-.55,1.18-1.18,2.32-1.8,3.46l-.8-.11c-.39.85-.28.95.39.06-.79,1-2.27,5.63-3,4.19a17,17,0,0,1-1.94,3.15c-.67.91-1.46,1.81-2.6,3.29.74-1.27,0-.8-.65-.37s-1.31.89-.36-.27c-1.46,1-1.15,1.83-2.11,2.84-1.17.64-1.21-.29-.37-1.41l-1,1.34-.08-.13c-.25.42-.53.81-.81,1.22-1.4.65-.7-.36-1.95.53l.13.71-1.07.32c.49,0-.16.66-1,1.36l-.07-.13-1.06.86c.9-1.08-1.11.57-.85-.16-1,.63-1,.61-2.74,1.8l.54.19c-2.2,1.7-.42-.49-2.38.53l.36.38c-3.17.76-4.68,2.81-7.09,3.2,1.21-.63.66-1,.7-.9-1.8,1-5,1.87-6.84,3-.93-.48-1.18-.68-3.33-.47-1.5.42-1.72.48-2.14,1a8.73,8.73,0,0,0-1.32.16,13.06,13.06,0,0,1-1.38.22c-.85.09-1.54.14-1.6-.12-.29.45-1.26.11-2,.4l-.17-.22.13.51a7,7,0,0,0-3.41-.38,4.87,4.87,0,0,1-3.38-.69l.46,0-1.1-.07c-.11-.26.35-.28.46-.55l-1.19-.32a7.05,7.05,0,0,1-1.18-.38l-2.34-.88.79.68a13.46,13.46,0,0,0-1.45-.26,3.57,3.57,0,0,1-1.42-.69c2.17.17-1.53-.73-1.55-1.42.35.12.72.19,1.07.29-.68-.28-1-.44-1.19-.48s-.22.11-.29.36c-1.79-.82-.67-1.5-2.51-1.92l1.1.65c.18.44-.84.35-1.58-.11-.13-.18-.52-.72.07-.4-1.4-.72-3.2-2.21-3.84-2.52-.57-.65-.13-.76.31-.59-2.9-1.71-1.15-.94-4-2.82l.23-.18-1.1-.5c-.28-.5-.54-1-.79-1.58l.17.69a13.73,13.73,0,0,1-2.29-2.1l.67.07a10.76,10.76,0,0,1-2.2-2.55,9.59,9.59,0,0,0-2.24-2.35c-.08-.21.33,0,.54.19-2.32-1.68-.83-2-3.21-3.69.21,0,.16-.31.32-.3l-1-.82.51-.28-1.32-.28v-1l-.52-.23c.07-1.76-1.79-2.77-2.18-4.79l-.41.69c-2-1.47-3.36-3.85-4.65-6.38a46.77,46.77,0,0,0-4.23-7.57l.54-.2-1.77-1.7c-.25-1.33.81.41.86-.08-1.54-2-1.27-.49-2.85-3-.4-1.51.62.25,1.15.77-1.61-2.26-3.82-5.72-4.42-7.63-.09,0-.23-.06-.22.05a48.84,48.84,0,0,1-2.85-5.65c.26-.07.51.37.78.8a5.94,5.94,0,0,0-1.06-2.1l.78.47c-.6-1.44-2.26-4-1.88-4.54-.13.26-.56.37-1.08-.87.5-1-1.85-3.2-2.23-5.37.29.16,1,1.59.78,1.18a6,6,0,0,0-1.57-2.59l.44.14-1.15-2.21-.55-1.09-.13-.27-.18-.37-.49-.92c.14-.86-.81-2.3-1.62-3.28-.41-.48-.8-.92-1-1.24s-.33-.5-.14-.53c-1.27-1.55.77,1.53-.93-.33-.15-.78-1.6-1.59-1.1-1.88l.23.15-1.17-1.24,1.14.42c-1.08-1-2.21-1.4-2.57-1.16-.69-1.22-2.18-2.43-2.23-3.22l.45.26c-2.75-2.58-3.12-5.56-5.81-7-.09-.22,0-.3.33,0l-1.52-1.69.68.11-3-2.31.24-.16c-1.6-1.89-4.28-4.66-6.43-7l.42.26c-2.61-2.31-1.95-2.71-3.84-4.42a.53.53,0,0,1,.27.13c-.5-.57-1-1.16-1.45-1.74l.53.21c-1.55-.9-2.38-4.22-2.14-3.09-.8-.57-2.06-1.64-2.52-1.64-1.54-1.93-.09-.7-.81-2.06-1-1.44-1.63-1.39-2.86-3.47l.27-.13c-.7-.89-1.27-1.33-2.21-2.58l.38.3c-2-1.73-1.09-3.1-3.27-4-.41-1-1.65-2.62-1.1-2.85-1-1.24-1.88-2.34-2.7-3.49l-2.5-3.59c.57-.9-.38-.56-.81-2.49l-.38.36c-2.24-3.85-3.24-9-5.32-13.3l.43-.32-.88-.68c-.41-1.23-.9-2.54-1.33-3.89s-.85-2.73-1.26-4.08-.73-2.69-1.08-3.92l-.49-1.77-.38-1.59c-.29-.62-.7-1.39-1.08-2.27-.19-.44-.37-.91-.53-1.4a10.89,10.89,0,0,1-.28-1.55l.11.21a43.65,43.65,0,0,1-1.83-11.52c.23.23.35-.18.52.26-.63-.91-.2-2.36-.25-3.22l-.3,1a3.58,3.58,0,0,1-.29-1.89,4.32,4.32,0,0,1,.48-1.5l-.57-1.8c0-.12.12-.31.2-.33l-.27-.32.66-1c-.18-.41-.27-2.93-.9-3.73.23-.17.45-1.93.54-.57.1-2.3.3-4.59.48-6.87l-.29,1.06c-.51.11-.74-2-.44-3,.32,1.43.71.16,1.14-.41-.2-.94-.52.78-.76.27a11.41,11.41,0,0,1,0-4.29l.15.72c-.08-1.61.9-2.25,1-3.8-.26-1.43.23-2.42-.67-2.24,0-2,.68-.7.85-1.34-.28-1,.38-3.75.87-4-1.1-1.3,1.36-5.22.4-5.81l.95-1.47c-.27-.11-.84-.57-.67-1.9.57-1.15,1-.74,1.38-1l-.83-1.07c1.42-3.35,2.74-7.22,4.29-11.07A46,46,0,0,1,122.74,89a40.21,40.21,0,0,1,6.39-9.35L129,80c.93-.88,1.93-1.68,2.88-2.52l-2.31,1.62a14,14,0,0,1,1.41-1.86c3.37-2.65,8.1-5.62,12.44-8.68,1.15-1.43,1.86-1.39,2.48-1.38a2.94,2.94,0,0,0,2.54-1c-.21.21-.22.43-.39.65,1.51-1,2.73-1.61,3.91-2.37s2.45-1.39,4-2.39c0,1.27,2.26-.77,2.15-.06l.13-.57c.88,0,2.73-.46,2.57,0,.45-.36.92-.69,1.39-1l.27.46c1.05-.25,2.63-.86,4.18-1.17s3-.51,3.65-.13a51.68,51.68,0,0,1,9.57-2.28c1.81-.31,3.69-.49,5.53-.69s3.67-.33,5.39-.44a14.21,14.21,0,0,1,4.49-.88l1.72.49c1.56-.27,3.29-1.22,4.67-.8,0,.07-.06.12-.16.16,1.52-.15,3,.16,4.4-.43,1.68.06,3.25.57,2.71,1.08.11-.5,1-.4,1.82-.18a12.28,12.28,0,0,1,1.63.57l3.54.67c.56.12,1.2.2,1.87.38l2.16.61,2.47.7,2.66,1c7.49,2.67,16.59,8.87,24,18.09S262,98.61,266,109.3s6.59,20.26,8.69,25.55c.61.67,1.16,2.68,1.66,1.83.37,1.56-.45,2.38.07,2.58.08-1,.41-.92.78-.77s.79.29,1-.81l.25,1.35c.39.26-.57-1.82.1-1.54l-1-.29A4.34,4.34,0,0,1,278,135c-.51-1-1.83-1.49-1.68-4l.16.67c-.35-2,.39-1.33.48-1.78l.07.45.16-1.79c-.07,1.35,1,3.37.78,2.26-.15-2.48-.11.66-.53-1.14-.25-1.12.3-.89.59-.89-.12-.68-.25-1.36-.4-2,.44,0,.24,1.35.52.44l-.95-2.47c1-.7-1.1-2.67-.34-4.05.65,1.78.32-.25.73,0-.39-1.49-.73-3-1.15-4.48,0-.46.64,1.1.4.43.07-.92-.62-1.32-.73-1.78a6.92,6.92,0,0,0-.29-1.85c-.18-.78-.28-1.51.08-1.55-.43-3.16-1.22-1-1.72-3.93.3-.5.81,2.19.85.81l-1.1-2.85a1.9,1.9,0,0,1,1.13,1.46c-.48-2-.86-3.83-1.17-5.53s-.6-3.3-.91-4.87A28.21,28.21,0,0,0,269.43,87c0-1.22.67.54,1.32,1.09A24.93,24.93,0,0,1,267.9,82l-.44-1.37c-.17-.46-.34-.91-.54-1.37a18.68,18.68,0,0,0-1.52-2.92l-.41.16a35.45,35.45,0,0,0-2.5-4.79c-1-1.57-2.21-3.1-3.41-4.66s-2.62-3-4-4.45L253,60.46c-.7-.72-1.36-1.48-2.1-2.15l.53.84A23.73,23.73,0,0,1,247.76,57c0-.3,1.31-.12-.59-1.45.28.43.93,1.17.57,1.16-.28-.33-.58-.68-.93-1l-1.16-1c-.82-.7-1.73-1.44-2.72-2.22s-2.16-1.43-3.33-2.19l-1.81-1.12c-.63-.36-1.3-.67-2-1-1.34-.64-2.69-1.37-4.11-2l-4.33-1.66c-.36-.14-.72-.29-1.08-.4l-1.11-.32L223,43.16A43.37,43.37,0,0,0,218.76,42l-2.87-.42c-1-.12-1.92-.35-2.89-.38l-5.84-.43c-3.88,0-7.91-.06-11.5.18a160.54,160.54,0,0,0-21.78,2.38c2.13-.37,1.4.83-.25.84a12.52,12.52,0,0,0-6.14.5,18.61,18.61,0,0,1-6.14,1.21c-4,1.37-7.88,2.28-11.65,3.56-.94.32-1.88.64-2.81,1s-1.82.78-2.72,1.2-1.79.86-2.65,1.38-1.69,1.11-2.5,1.72l-.38-.38c-1.19.33-1.31.8-2.38,1.49l0-.14a26.35,26.35,0,0,0-4,2.48,23.29,23.29,0,0,1-3.09,2.1l.25.54c-1.4,1.13-1,.21-2.28,1.59l-.13-.26c-.46.59-.92,1.16-1.35,1.75-.49-.89-3.93,3.24-5.19,4-.77.89-1.87,2.19-3,3.68l-1.76,2.21c-.57.77-1.14,1.5-1.72,2.18-.85.18-3.35,3.76-5,6a89.1,89.1,0,0,0-4.15,8.4c-1.36,3.12-2.64,6.45-3.74,9.6l.67.08-.48,1.67c-.13-.07-.27.13-.26-.14-1.16,1.06-.89,3.89-1.68,5.1.8-.69.4-1.14.67-2.09.66-1.27.92.2.13,1.94l-.13-.07v1.34c-.54,0-1.06,1.1-1.57,1.13a60.88,60.88,0,0,0-1,7.51c-.24,2.37-.39,4.74-.91,7.56-.52-.66-.32,4.08-1.18,2.83,0,3.45.86-.47,1.39,1.16-.12.94,0,2-.33,2.1-.19-.47-.69.71-.7-.07,0,.76-.07,1.52-.11,2.28-.09.21-.19-.3-.23-.56.18,4.66-1.22,8.16-.78,12.32.35.32.14-1.63.49-1.32a8.83,8.83,0,0,1-.08,3.88,8,8,0,0,0-.19,3.71l-.5-.83a6.77,6.77,0,0,1,.42,4c-.58.39-.5-1.81-.79-2.85,0,1.48.21,5.22.72,4.06a9.2,9.2,0,0,1-.29,3.37c.14,0,.27-1.66.61-.65a42.27,42.27,0,0,0,0,4.33c.13,1.58.35,3.23.51,4.68-.14,0-.33.23-.44,0C96.2,168.74,94.9,168.69,95.65,171.87Z" transform="translate(-94.01 -40.79)"/><path class="cls-1" d="M173.11,296.51l-.43-1.05c-.12.06-.27.08-.63-.32Z" transform="translate(-94.01 -40.79)"/><path class="cls-1" d="M145.78,254.13a3.49,3.49,0,0,0-.39-.19C145.59,254.12,145.7,254.15,145.78,254.13Z" transform="translate(-94.01 -40.79)"/><path class="cls-1" d="M136.41,245.12c.69.62.27-.11.09-.55C136.4,244.63,136.31,244.74,136.41,245.12Z" transform="translate(-94.01 -40.79)"/><path class="cls-1" d="M190,321.8c-.16-.13-.29-.18-.37-.09C189.82,321.87,189.91,321.87,190,321.8Z" transform="translate(-94.01 -40.79)"/><path class="cls-1" d="M263.47,350.45l-.35.07A.92.92,0,0,0,263.47,350.45Z" transform="translate(-94.01 -40.79)"/><path class="cls-1" d="M258.69,351.47a6.65,6.65,0,0,0-.89.41A2.86,2.86,0,0,0,258.69,351.47Z" transform="translate(-94.01 -40.79)"/><path class="cls-1" d="M179,304.7a2.17,2.17,0,0,0-.59-.68A2,2,0,0,0,179,304.7Z" transform="translate(-94.01 -40.79)"/><path class="cls-1" d="M256.91,352.33l-1.16.35s0,.07,0,.11Z" transform="translate(-94.01 -40.79)"/><path class="cls-1" d="M264.9,349.86c-.44.18-1,.46-1.43.59A3.43,3.43,0,0,0,264.9,349.86Z" transform="translate(-94.01 -40.79)"/><path class="cls-1" d="M211.24,344.38l-.11-.07C210.23,343.93,210.76,344.21,211.24,344.38Z" transform="translate(-94.01 -40.79)"/><path class="cls-1" d="M252.14,354.86l-.16,0-.3.24Z" transform="translate(-94.01 -40.79)"/><path class="cls-1" d="M269.68,347.55a1.81,1.81,0,0,0-.48.41l.63-.3C269.74,347.62,269.7,347.59,269.68,347.55Z" transform="translate(-94.01 -40.79)"/><path class="cls-1" d="M226.69,354.3c.41-.08.58-.18.63-.28C226.92,353.89,226.64,353.89,226.69,354.3Z" transform="translate(-94.01 -40.79)"/><path class="cls-1" d="M265.12,242.41a.81.81,0,0,0,.27,0A.41.41,0,0,0,265.12,242.41Z" transform="translate(-94.01 -40.79)"/><path class="cls-1" d="M249.82,217.71l.33.09C250,217.69,249.88,217.68,249.82,217.71Z" transform="translate(-94.01 -40.79)"/><path class="cls-1" d="M266.35,260s0,0-.05-.05a11,11,0,0,1-.27,1.26A8.63,8.63,0,0,0,266.35,260Z" transform="translate(-94.01 -40.79)"/><path class="cls-1" d="M269.2,180.53l-.15.53A1.81,1.81,0,0,0,269.2,180.53Z" transform="translate(-94.01 -40.79)"/><path class="cls-1" d="M242.17,205.52a.42.42,0,0,1,.05-.33C242.11,205.28,242.06,205.38,242.17,205.52Z" transform="translate(-94.01 -40.79)"/><path class="cls-1" d="M258.15,265.63l.52-.08A.41.41,0,0,0,258.15,265.63Z" transform="translate(-94.01 -40.79)"/><path class="cls-1" d="M245.9,273.59a.18.18,0,0,0,0,.08S245.94,273.61,245.9,273.59Z" transform="translate(-94.01 -40.79)"/><path class="cls-1" d="M252.46,273.34c.11-.09.24-.22.36-.34C252.64,273.09,252.41,273.19,252.46,273.34Z" transform="translate(-94.01 -40.79)"/><path class="cls-1" d="M253,272.82l-.16.18C252.93,272.94,253,272.88,253,272.82Z" transform="translate(-94.01 -40.79)"/><path class="cls-1" d="M133.11,131.09a2.75,2.75,0,0,0,.1,1.5Z" transform="translate(-94.01 -40.79)"/><path class="cls-1" d="M254.29,132.72l.17.09C254.39,132.71,254.34,132.7,254.29,132.72Z" transform="translate(-94.01 -40.79)"/><path class="cls-1" d="M136.11,132.63l-.17.31A.8.8,0,0,0,136.11,132.63Z" transform="translate(-94.01 -40.79)"/><path class="cls-1" d="M259.78,258.86a.89.89,0,0,1,0-.75c0-.25.07-.46-.11-.47C259.67,258.08,259.28,258.6,259.78,258.86Z" transform="translate(-94.01 -40.79)"/><path class="cls-1" d="M238.33,124.48l-.1-.27A1.79,1.79,0,0,0,238.33,124.48Z" transform="translate(-94.01 -40.79)"/><path class="cls-1" d="M136.11,132.63l.2-.36a1.41,1.41,0,0,0-.22.06A.61.61,0,0,1,136.11,132.63Z" transform="translate(-94.01 -40.79)"/><path class="cls-1" d="M219.93,83.78h0Z" transform="translate(-94.01 -40.79)"/><path class="cls-1" d="M217.12,82l.7.14A1,1,0,0,0,217.12,82Z" transform="translate(-94.01 -40.79)"/><path class="cls-1" d="M133.21,132.59l.06.87A2.82,2.82,0,0,0,133.21,132.59Z" transform="translate(-94.01 -40.79)"/><path class="cls-1" d="M182.56,77l.34-.07A.91.91,0,0,0,182.56,77Z" transform="translate(-94.01 -40.79)"/><path class="cls-1" d="M241.46,206.24a.6.6,0,0,0-.11.06C241.43,206.34,241.49,206.36,241.46,206.24Z" transform="translate(-94.01 -40.79)"/><path class="cls-1" d="M250.5,186.67h0Z" transform="translate(-94.01 -40.79)"/><path class="cls-1" d="M249.93,187.71a1.35,1.35,0,0,0,.57-1A1.49,1.49,0,0,0,249.93,187.71Z" transform="translate(-94.01 -40.79)"/><path class="cls-1" d="M252.4,185.34l-.13,0Z" transform="translate(-94.01 -40.79)"/><path class="cls-1" d="M232.47,200.84l0,0,0,0Z" transform="translate(-94.01 -40.79)"/><path class="cls-1" d="M236.56,195.84a1.76,1.76,0,0,0,.41-.13A.81.81,0,0,0,236.56,195.84Z" transform="translate(-94.01 -40.79)"/><path class="cls-1" d="M257.24,177.66h0Z" transform="translate(-94.01 -40.79)"/><path class="cls-1" d="M239.78,144.44a64.62,64.62,0,0,0,1.53,8.18c.39,1.48.82,3,1.37,4.52l.42,1.15c.14.39.33.79.49,1.18.29.75.76,1.62,1.16,2.4,1.55,1.12,3.11,3.12,5.29,4.4l-.34,1a13.69,13.69,0,0,0,2.08.76c.69.66-1.62-.54-.34.48.35-.07.68-.15,1-.25,0,.21,1.31.75,2.21,1s1.34.55-.63.49a17,17,0,0,0,2.18.41l1,.11.72.06,1,.07h.18v-.1l.07-.41,0-.2c0-.27.06-.54.1-.81.08-.54.19-1.08.32-1.61s.11-.5.16-.68.07-.3.11-.43a5.59,5.59,0,0,1,.22-.63c.1-.26.11-.32.17-.45a5.45,5.45,0,0,1,.28-.48s0,0,0,0l0,0,0,0,0,0c.07-.09,0,0,0,0l-.08,0a1.71,1.71,0,0,1-.61.32,9.61,9.61,0,0,1-2.31.66,9.31,9.31,0,0,1-1.34.15l-.84.1-.39,0h0l.19,0s.07,0,.1,0l.1.22a11.79,11.79,0,0,1,.77,1.73,5.13,5.13,0,0,1,.28,2.12l-.15-.27c.31.55.35,1.51.5,1.52,1-.48-.6-.48-.07-1.51.87.06.56,1.14,1.21,1-.25.76.26,1.1.35,1.66-.47,1-.1,2.17-.83,2.65.28.38,1,.84.93,1.63-.82.32-.6-.26-1.05.3l.45.26c-.22.53-.35.38-.55.28-.29.53.41.74-.22,1.34a5.9,5.9,0,0,0-.25-.63,1.19,1.19,0,0,1-.25.71l-.55.8c-.23-.19,0-.46.16-.63-.86,0-.11.85-.39,1,.11,0,.3-.07.47-.11s.32,0,.45.24c-.36.33-.12,1.25-.8,1.17l0-.73a3.57,3.57,0,0,0-.15.91c0,.18-.12.33-.64.73,0-.08-.1-.14-.16-.23-.09,1-1.19,1.41-2.18,2.18l.09-.26c-.26.46-.17,1-.39,1.14.72-.27.68,0,1,.29-1.26,0-.45,1.73-2.07,2.36a.53.53,0,0,1,.47-.79c-.11-1-.5-1.59-.09-2.52-.28.54-.74,1.08-.87.71l.36.72c-.27.24-.53.39-.74.56.19.49,1.1.17.63,1s-.91-.32-.8.06c-.86,1.06.1,1-1.11,1.59.07-.13.2-.38.33-.39-.95.28-1.8,1.45-2.57.83,0-.25-.16-.5.18-.64l.07.13c.43-1.16-.58.64-.82-.24.35.37-.76,1-1.31,1.29l.48.38c-.69,2.53-.55-1-2.07.23-.82,1,.49-.12.07.64-.76.38-1.3.11-2.2,1-.4,0-1.31.22-1.72-.29a6.7,6.7,0,0,1-1.48,1c-.55.4-1,.81-1.05,1.23,1.61-.59.89-1.58,2.88-1.89l-.06.81c-1.06.61-2.15,1.94-3,2.31.22,0,.39.06.39.23a9.89,9.89,0,0,0-1.23,1.83,7.79,7.79,0,0,1-1.31,1.75c-.62-.15.18-1,.7-1.65a2.64,2.64,0,0,0-1.07.92c-.24.37-.53.69-1.21,1.65-.25-.08,0-.41.21-.77s.52-.64.4-.9a15.28,15.28,0,0,0-1.25,2.14s-.06,0-.09,0c.28.37,0,.74-.33,1.32-.17.28-.37.59-.55.94a2.61,2.61,0,0,0-.34,1.14,5.58,5.58,0,0,0-.19,2.32,4.34,4.34,0,0,0,.44,1.52,20.31,20.31,0,0,0,1.55,2.18c-.09.53-.25.75-.52.6.14-.92-.1-.7-.4-.95a3.48,3.48,0,0,1,.05,1.75c-.1.48-.31.78-.61.52,1,1.74.15-.82.86.19.16.4.33.83.51,1.2l.56,1c.23-.47-.08-1.2.79-.36.3.41.51.65.72,1s.42.7.79,1.14c-.28,0-.29.71-.83,0,.23.56.8,1.27,1.34,1.26-.26-.64.15-.26.62,0s1,.62.91.05c.19.39.37.78.56,1.15-.18-.2-.42,0-.64-.37-.23.73.84.56,1.18.81.21.4,1,1.15.87,1.4.4.12,1,.82.9,1.18.51.25.31-.3.57-.37.46.42.92.82,1.39,1.21-.16.35-.67,1.24-1,1.18.76.17.87-.69,1.67,0-.91.19.75,1.27-.45,1.41.15.79,1.51,1.8,2.35,2.19.78-.11-.6-.85-.21-1.28,2.17,1.37,3.25.18,4.53,1.51l-.27-.42a3.21,3.21,0,0,0,1.77.43c-.69.38-.16,2.3,1.2,3.29.36-.17-.27-1.15.3-1.4.34.23.64.46.95.69,0,.1-.15.1-.32.07,1,.52.67,1.93,1.43,1.54a3.33,3.33,0,0,1-.33,1.24,2.49,2.49,0,0,0,.21-.47c.34-.15.88.39,1.06.49a.9.9,0,0,1,.46.8,1.11,1.11,0,0,1-.11.37c0,.2-.1.43-.15.64.22-.33.71-1.09,1.11-.05-1.13.33.23,2.29-.35,2.42.15.39,0,1.21.5,1.11l-.71.16c1-.22,1.41,1.22,1.93,2.24-1.38.17.47,1.15-.58,2,1-.07.91,1.78,1.72,1.76.27.81-.59.95-.82,1.24l.43.28c-.31.53,0,2.06-.12,3l1,.68-.3.37c.24.1.46.77.7.29l0,.46c.88-.1.36.6.84,1.47-.12.22-.34.19-.48,0,0,.45-.44.31-.71.58.2-.36,1.76,1.48,2.05.22.36-.13.68.59.55,1.07l-.79.32.88.52c.12.72-.4,1-.49,1.6-.06-.61-1.54-1.27-1.55.15-.07-.75-.55-1.12-.71-1.49,0,.29-.11.43-.45,0,.25,1.07.51.36.59,1.43-.72-.08-1,.2-1.27,1.05l.57-.62a.49.49,0,0,1,.19.14c.09-.25.21-.32.49-.36,0,.19.83,1.31.34,1.44,1.27-1,.61,2,1.37,1.43.17.16,0,.95-.32.94-.35-1-.94.49-1.41.19.05.17.23.05.41-.06s.35-.23.43,0c-.09.54-.65.77-.95,1l-.06-.24a6.53,6.53,0,0,1-.56.61c.29.26.86-.48.76.26-.22.11-.33.86-.58.71-.32-.51-1-.57-.91-1.12a10.25,10.25,0,0,0-.28,1c-.07.35,0,.64.43.54l-.3.49c.42-.14,1.45-.83.93.29l-.12-.08a5.79,5.79,0,0,1,0,1l-.53.1c.16.09.21.31,0,.57-.22-.06-.46.12-.68-.09-.59.69-.27.9-.2,1.13-.31.45-.6.44-.7,0-.3.2-.67.52-1,.8a2,2,0,0,1-1.1.42c-.61.83.25,0,0,.75a2.43,2.43,0,0,0-2.21.47c-.83.4-1.64,1.09-2.45,1.4.8.89-.4.26-.4,1.32.24-.45-1.81-.29-.47-1.07a6.48,6.48,0,0,1-.85.38c-.39-.22,0-.41.24-.64s.49-.5-.06-.75c-.92.3-1.3,1.63-2.58,1.51.25-.83-.88.42-.75-.48.2-.32.55-.28.87-.42l-.24-.1c-2.25.16-.46,1-1.56,1.75-1.38.35-1.2-.46-1.32-.79A1.78,1.78,0,0,0,242,272c.8-.57,1.65.31,1.32.85-.74-.82-2.11.16-2.49.55,2.16.7,1.42-.09,3.51.66.22-.33.05-1.11,1.25-1-.65.52.13.43.36.52-.31-.42.77-.31,1.07-.59.4.29-.47,1.21.74,1.1l0-1.11c.49.05,0,.82.9.33-.39.68.38.81-.92,1.31a2,2,0,0,0,2-.45,17.06,17.06,0,0,1,1.37-1.44c-.1.1-.06.24-.16.35.16-.35.63-.48.94-.67s.32.13.15.34-.44.43-.28.54a11.34,11.34,0,0,0,1.24-.54s.06,0,.06.06c.27-.28.54-.5.77-.31-.22.48-.23.87-.38,1.25.36-.44.71-.84,1-1.29,0,.4,1.35,0,.55.7.61-.41,1.26-.77,1.84-1.23l.55.5c.38-.42.31-.54-.27-.25a5.66,5.66,0,0,0,1.33-1.45c.42-.58.82-.94,1.16-.28.87-1.65,1.47-2,2.35-3.92-.16.85.29.61.67.29s.71-.68.39.2c.79-.79.27-1.34.46-2.13.58-.57,1.12,0,1,.93l.11-1.08.12.07a7.88,7.88,0,0,0,0-1c.65-.75.75.06,1.15-.85l-.56-.38a6.62,6.62,0,0,0,.53-.53c-.34.16-.34-.42-.24-1.1l.14,0c0-.28,0-.56,0-.84.28.88.24-.74.65-.29a6.88,6.88,0,0,0,.12-2l-.46.19c-.28-1.67.67,0,.77-1.39l-.5.07a3.43,3.43,0,0,0,.09-2.53,4.16,4.16,0,0,1-.25-2.13c.2.79.77.53.62.53-.3-1.2-.45-3.2-1.31-4.29.64-.58.84-.74.88-2.07-.25-.9-.36-1-.85-1.2.07-.95-.8-2.44-.29-2.63-.46-.08-.14-.79-.63-1.15l.18-.16-.46.22c.64-1.84-1.39-2.32-.92-4.09l.21.21-.39-.56c.18-.16.39,0,.68,0L263,234l-.2.65c-.23-.56-.81-.81-.69-1.53.52.43.46.2.34-.16l-.08-.29c0-.15-.08-.31-.11-.46,0-.3-.09-.54,0-.66a8.36,8.36,0,0,1,.46.83c-.41-1.21-.44-1.2-.87-.92a2,2,0,0,1-.2-1.37c0-.31.09-.66-.6-1.12a6.58,6.58,0,0,1,.55.92c-.13.42-.81-.07-1.2-.6,0-.18-.13-.71.23-.31a14.18,14.18,0,0,0-2.27-2.39c-.28-.51.09-.64.41-.52a6.06,6.06,0,0,1-1.28-.94,3.56,3.56,0,0,0-1.26-.86l.21-.2c-.26-.06-.51-.13-.77-.18l-.39-1.1,0,.52a5.49,5.49,0,0,1-1.5-1.06l.5-.15c-1.6-.93-1.25-1.86-3-2.4,0-.13.25-.08.4,0-1.67-.41-.48-1.32-2.22-1.61.16-.06.14-.3.26-.36l-.72-.21.4-.42-1,.33,0-.74-.38.06c.11-1.32-1.2-1.32-1.39-2.57l-.35.66a4.41,4.41,0,0,1-3-2.51,13.91,13.91,0,0,0-1.84-3.06l.52-.24-.25-.09-.2-.06-.43-.13c.29-.43.55,0,.77-.21a1.2,1.2,0,0,0-.68-.18.53.53,0,0,1-.55-.39c.36-.38.42.09.68.17-.46-.44-.63-1.54-.11-1.82-.07,0-.15-.1-.19-.09-.09-.51.52-.93,1-1.55.19.19.11.36,0,.53.21-.18.49-.33.52-.68a2.76,2.76,0,0,0,.16.54c.47-.32,1-1.5,1.58-1.14-.21-.12-.46-.47,0-.82.42.25.61-.09,1-.49a2.47,2.47,0,0,1,1.29-1c0,.25-.58.7-.4.6a.82.82,0,0,0,.58-.44,8.45,8.45,0,0,0,.49-.82l.05.4,2.19-2c.42.25,1-.15,1.46-.54s.86-.8,1-.47c.88-.59-1,.19.08-.67.51.1.89-.85,1.18-.35l-.08.14.74-.58-.15.8a1.6,1.6,0,0,0,.51-1.74c.81-.19,1.52-1.11,2.12-.92l-.14.29a7.3,7.3,0,0,1,2.62-1.38,3.09,3.09,0,0,0,2-1.75c.16,0,.24.08,0,.26a12.13,12.13,0,0,0,1.08-1l.05.57,1.24-2.27.2.22.47-.46.49-.6c.34-.43.69-.89,1-1.37a12.73,12.73,0,0,0,1-1.59c.31-.56.63-1.1.9-1.65a2.44,2.44,0,0,1-.06.39c.79-2.65,1.44-2.28,1.75-4.39a.37.37,0,0,1,.05.24,11.68,11.68,0,0,0,.45-1.81l.2.46a4.11,4.11,0,0,1,.49-2.34c.27-.65.52-1.05.23-.66-.11-.39-.23-.9-.37-1.34a1.69,1.69,0,0,0-.51-.85c-.06-1.72.37-.45.59-1.5,0-1.12-.55-1.38-.4-2.73h.29c-.1-.66-.33-1-.43-1.78l.16.23a1.34,1.34,0,0,1,0-1.35.79.79,0,0,0,.05-.5c-.06-.2-.2-.25-.54-.85a6.3,6.3,0,0,0,.07-.93c0-.37-.07-.84-.11-1.22,0-.2,0-.36-.06-.56a4.69,4.69,0,0,1-.08-.56c0-.32,0-.52.15-.53a9.94,9.94,0,0,0-2.78-3.79,8.54,8.54,0,0,0-2-1.23c-.32-.14-.64-.27-1-.38l-.79-.21a10.67,10.67,0,0,0-2.41-.27c-.31,0-.54,0-.82,0l-.67,0c-.08-.48-.15-.48-.31-.42s-.29.15-.4-.13l-.07.51c-.34,0-.59-.43-.61-.83a2.89,2.89,0,0,1,0-.51.81.81,0,0,0,0-.17,1.05,1.05,0,0,0-.19-.33l.45-.26a2.15,2.15,0,0,1-.62,0,43.86,43.86,0,0,1-1.13-6.92,4.88,4.88,0,0,1-1-2.79l.08.11a22.57,22.57,0,0,1-.49-3,24.93,24.93,0,0,1-.07-3.69c.23.14.36-.12.52.16-.61-.57-.15-1.5-.18-2.05l-.33.67a1.94,1.94,0,0,1,.17-2.16L254.1,133c0-.08.11-.21.19-.23l-.29-.17.59-.7c-.15-.26-.56-1.76-1.27-2.13.21-.15.21-1.24.46-.44-.13-1.4-.38-2.81-.59-4.22,0,.23-.06.47-.09.7-.47.18-1.07-1-1-1.68.6.75.72-.09,1-.55-.4-.5-.32.6-.66.37a5.34,5.34,0,0,1-.69-1.33,2.51,2.51,0,0,1-.25-1.18l.31.37c-.45-.9.29-1.59,0-2.53-.67-.73-.52-1.47-1.29-1-.57-1.15.41-.66.36-1.08-.57-.44-1-2.2-.66-2.59-1.4-.18-1-3.41-2.05-3.22l.07-1.22a1.22,1.22,0,0,1-1.44-.52c-.09-.87.44-.94.58-1.3l-1.21,0a23.39,23.39,0,0,0-3.67-7c-1.69-2.28-3.56-4.47-5.15-6.64-1.88-1.47-4.42-3-6.55-4.67l.32.07c-.67-.6-1.35-1.22-2.06-1.77.47.48.91,1,1.35,1.5a10.38,10.38,0,0,1-1.51-.64A22.52,22.52,0,0,0,220,83.79c-2.58.21-1-1.62-3.38-1.59.22,0,.35-.18.55-.23a27,27,0,0,0-3-.5,20.31,20.31,0,0,0-3.07-.15c.6-1.1-1.46-.39-1.08-.95l-.32.43c-.42-.45-1.57-.85-1.31-1.15l-1.14.36,0-.52c-1.31-.4-4.23-.53-4.73-1.69a41.54,41.54,0,0,1-6.08-.4L193,77l-1.64-.22-.81-.11-.85-.07a7.31,7.31,0,0,1-3,.4,11.79,11.79,0,0,0-1.11-.59c-1.08.24-2.14,1.07-3.15.74a.17.17,0,0,1,.1-.16c-1.06.2-2.13.08-3,.76-1.17.11-2.36.07-2.12-.56,0,.51-.58.61-1.22.6a9.52,9.52,0,0,1-1.31-.15l-.69.14c-.44.11-1.09.31-1.92.55a25.76,25.76,0,0,0-3,1,37.91,37.91,0,0,0-3.77,1.61L163.39,82l-2.17,1.3A26.58,26.58,0,0,0,159,84.73c-.73.54-1.54,1-2.26,1.66a57.1,57.1,0,0,0-8.56,8.3A71.29,71.29,0,0,0,136.3,115c-2.52,6.65-3.56,12.56-3.19,16.13.34.57.32,1.85,1,1.55-.08,1-1,1.16-.61,1.52.67-1.25,1.15.69,2.08-.39l-.09.82c.31.23-.11-1.16.46-.81l-.84-.46a1.84,1.84,0,0,1,1-1c-.17-.67-1.28-1.42-.31-2.62l-.07.39c.32-1.12.79-.49,1-.68l-.09.24.76-.77c-.54.6-.18,2,0,1.37.66-1.23-.33.27-.12-.75.16-.62.57-.29.84-.18l.33-1.09c.4.18-.26.71.31.42l0-1.51c1.12.12.05-1.66,1.25-1.91-.12,1.06.38.05.65.33.27-.79.58-1.57.86-2.36.23-.16.07.74.16.37.46-.32,0-.82.15-1,.37-.09.73-1.73,1.37-1.37,1.13-1.35-.55-1,.48-2.3.48,0-.43,1.18.28.74.17-.52.34-1,.54-1.55.13.23.5.59.16,1.1,2.42-3.75,5.57-4.64,7.07-8.24.73-.19.09.52.19,1,.87-2.76,3.07-2.67,4.35-4.57l-.32-.29c3-1.79,4.82-5.19,7.8-7.15l-.51.06a4.48,4.48,0,0,1,.92-1.72c.21.11.3,1,.95.18-.26,0-.69.17-.73-.08a21,21,0,0,0,2.55-1.25c.47-.26,1-.55,1.46-.86s1.05-.55,1.59-.86l.81-.45c.28-.15.57-.27.85-.4.57-.26,1.14-.55,1.72-.79a20.93,20.93,0,0,1,3.46-1.05,23.66,23.66,0,0,1,9.3-1.53c3.07.12,6.91.66,10.29,1-1-.11-.45-1.12.3-.75a3.29,3.29,0,0,0,2.82,1.15,4,4,0,0,1,2.85.84,15,15,0,0,1,2.82.56c.89.31,1.74.65,2.58,1a17.91,17.91,0,0,0,2.51.9,8.71,8.71,0,0,0,2.69.42l-.13.5c.39.43.66.16,1.18.34l-.07.12c1.13.67,2.74.94,3.3,1.49l.31-.49c.71.32.14.58,1,.68l-.16.24,1.07,0c-.57.8,1.79,1.22,2.07,1.92.44.21,1.11.5,1.81.86a8.62,8.62,0,0,1,1.89,1.41c0,.28.24.73.65,1.22a12,12,0,0,1,1.2,1.53,24.82,24.82,0,0,1,5.27,6.24l.52-.4.44.61c-.13.07-.14.19-.26.13-.3.87,1.1,1.36,1,2.12.33-.62-.18-.5-.37-.88,0-.7.8-.5.93.4l-.13,0,.59.33c-.42.3-.38.87-.81,1.17,1.23,2.1,2.7,3.36,3.37,5.91-.62-.07.73,1.75-.37,1.55.84,1.38.68-.49,1.58,0,.11.43.5.81.17,1-.29-.13-.49.52-.67.2l.36,1c0,.11-.24-.08-.34-.17a6,6,0,0,1,.68,2.89,6.29,6.29,0,0,0,.51,2.79c.38.08,0-.78.34-.71,1,1.86-.34,1.84.41,3.61l-.53-.32c.41.55.86.77.58,1.8-.56.24-.57-.78-.9-1.22.06.67.4,2.36.87,1.79.25.8-.24,1.15-.36,1.6.14,0,.32-.8.63-.34a25.78,25.78,0,0,0-.12,4.29c-.14,0-.36.11-.43,0C240.84,142.73,239.53,142.64,239.78,144.44Z" transform="translate(-94.01 -40.79)"/><path class="cls-1" d="M231.93,201.64a8,8,0,0,1,.54-.8c-.11-.07-.22-.17-.11-.63C232.21,200.69,232,201.14,231.93,201.64Z" transform="translate(-94.01 -40.79)"/><path class="cls-1" d="M254.88,182.28a1,1,0,0,0,0-.24A.19.19,0,0,0,254.88,182.28Z" transform="translate(-94.01 -40.79)"/><path class="cls-1" d="M256.79,177.61c0,.32.24.14.45,0A.67.67,0,0,0,256.79,177.61Z" transform="translate(-94.01 -40.79)"/><path class="cls-1" d="M239.85,220.71a.24.24,0,0,0-.29.08C239.74,220.81,239.82,220.78,239.85,220.71Z" transform="translate(-94.01 -40.79)"/><path class="cls-1" d="M260,254.71l.07-.16A.22.22,0,0,0,260,254.71Z" transform="translate(-94.01 -40.79)"/><path class="cls-1" d="M260.67,252.42a1.46,1.46,0,0,0-.14-.45A.65.65,0,0,0,260.67,252.42Z" transform="translate(-94.01 -40.79)"/><path class="cls-1" d="M232.17,209.93a2.66,2.66,0,0,0-.31-.66A.93.93,0,0,0,232.17,209.93Z" transform="translate(-94.01 -40.79)"/><path class="cls-1" d="M260.33,251.52l0-.58h-.12Z" transform="translate(-94.01 -40.79)"/><path class="cls-1" d="M259.9,255.39c0-.21,0-.5.05-.68A.76.76,0,0,0,259.9,255.39Z" transform="translate(-94.01 -40.79)"/><path class="cls-1" d="M253.25,230.38l-.06,0C252.7,230.25,253,230.35,253.25,230.38Z" transform="translate(-94.01 -40.79)"/><path class="cls-1" d="M258.92,249.22v-.08l-.19-.13Z" transform="translate(-94.01 -40.79)"/><path class="cls-1" d="M259.62,257.64a.45.45,0,0,0-.09-.26c0,.08-.06.17-.09.28A.65.65,0,0,1,259.62,257.64Z" transform="translate(-94.01 -40.79)"/><path class="cls-1" d="M256.05,237.26a1,1,0,0,0,.53.1C256.51,237.16,256.38,237.06,256.05,237.26Z" transform="translate(-94.01 -40.79)"/></svg>