<svg id="Layer_1" data-name="Layer 1" xmlns="http://www.w3.org/2000/svg" viewBox="0 0 313.08 322.31"><defs><style>.cls-1{fill:#fff;}</style></defs><title>rolstoel</title><path class="cls-1" d="M276.72,71l.13-.57C276.8,70.42,276.76,70.58,276.72,71Z" transform="translate(-42.68 -38.56)"/><path class="cls-1" d="M276.15,71.34l0,0S276.15,71.37,276.15,71.34Z" transform="translate(-42.68 -38.56)"/><path class="cls-1" d="M287.59,117.05a2.7,2.7,0,0,0-.59-.2A.87.87,0,0,0,287.59,117.05Z" transform="translate(-42.68 -38.56)"/><path class="cls-1" d="M323.94,113a.52.52,0,0,0,0,.14A.09.09,0,0,0,323.94,113Z" transform="translate(-42.68 -38.56)"/><path class="cls-1" d="M278.81,64.52l-.15.22C278.75,64.84,278.85,64.61,278.81,64.52Z" transform="translate(-42.68 -38.56)"/><path class="cls-1" d="M279.89,109.77a.4.4,0,0,0-.15,0A.31.31,0,0,0,279.89,109.77Z" transform="translate(-42.68 -38.56)"/><path class="cls-1" d="M293.7,50.89a1.29,1.29,0,0,1,.17-.16A.38.38,0,0,0,293.7,50.89Z" transform="translate(-42.68 -38.56)"/><path class="cls-1" d="M334.76,118.43c.1-.12.15-.2.15-.27C334.79,118.27,334.71,118.38,334.76,118.43Z" transform="translate(-42.68 -38.56)"/><path class="cls-1" d="M334.21,117.25c-1.58,1.39.76.42.7.91.43-.38,1.49-.94.85-.9a1.66,1.66,0,0,0,1-.29,6.3,6.3,0,0,0,.92-.82,4,4,0,0,1,1.86-1.34c0-.09-.72.11-.19-.53.92-.8,1-.51,1.54-.7a5.39,5.39,0,0,1,1.33-1.58c.46-.68-1.16,0-.57-1,.2-.86,1.18-1.3,1.67-2,1-.53-.52,1-.69,1.41l1.85-2.39c.8-.48.13.64-.53,1.26a4.47,4.47,0,0,0,1.33-1.34,2,2,0,0,0,.38-1.29,14,14,0,0,1,1.26-1.38c-.23.71.42,1.13-.17,2.12-1.15,1.46-.05-.9-1.09.29l.27.4c-.64.34-.75,1-1.21,1.52-.36.22-.06-.18.07-.42a9.27,9.27,0,0,0-2.08,2.65,8.82,8.82,0,0,0,2.17-2.07,5.74,5.74,0,0,1,1.66-1.54l1.62-3.23c-.18-.12-1.18.66-.84-.31.7,0,1.44-.75,2.22-1.87-.75.12.67-2.11-.09-1.76a.83.83,0,0,1-.74.75c.63-1.11-.38-.42,0-1,.66-1,.67-.92.76-.84s.17.16.76-.83a10.93,10.93,0,0,1,0,1.34,7.26,7.26,0,0,1-.45,1.84c.27,0,.67-1.12,1.16-1.48-.6.55-.25-.74-.64-.23.58-1.83,1.06-4,1.6-6.15.35.31.18,1.26.07,2.1s-.28,1.54.36,1.42c.37-1.07-.06-1.24.31-2.06a3,3,0,0,0,.82-1.63c.22-.73.4-1.57.55-2.32l-.42.58a7.08,7.08,0,0,1,.56-2.25l.07.2v-.68c.05-.1.08-.11.11-.11a9.89,9.89,0,0,1,.25-1.72,19.24,19.24,0,0,0,.28-2.22c-.42-.05-.21,1.36-.36,2-.06.08-.18.43-.31.68s-.31.37-.38,0c.26-1.68-.05-2.92.17-4.81a4,4,0,0,1-.18.59,7.37,7.37,0,0,1,0-2.33c.36-1.64.54,1.24.83.25.34.68-.12,1.8.39,2,.22-.34.42-.68.64-1-.32-.92.26-1.89.2-2.53l-.29.67c-.45-.14-.08-.75,0-1.07l-.69.44c-.15,1,.41,1.66,0,2.34-.15-1.73-.68-1.35-.65-3.39.27-.09.11.4.29.61.22-.71-.42-1.43-.25-2.57.2.64.52,1.69.83.84l-.54-.59c.05-.53.26-.33.26-.55.05-.76-.51.21-.45-1,.09-.18.17-.59.3-.42-.12-1.36-.24-.64-.67-1.86.18,1.12-.57,1.24-.83.12-.18-1.63-.74-2.63-.45-3.85l-.5-.63c.58.34-.1-1-.16-1.56.46-.31.61,2.38,1.43,2.18-.19-1.08.18-.68.49-.39-.38-1.14-.7-.28-1.16-.7.21-.06-.45-2,.17-1.42-.24-1-.87-1-1-1.69a1.07,1.07,0,0,0,.76-.08c-.2,0-.33-1-.38-1.19,0,.2-.53-.17-.09.6-.46-.06-.74-1.93-1-1.76.41-.27-.72-1.74-.94-2.65-1,.56,1.13,1.36.43,2a13.12,13.12,0,0,1-1.39-2.37A11,11,0,0,0,347.3,58c-.69-1.55.36-.23.53-.74,1,1.26.91,1.75,1.74,2.84a12.36,12.36,0,0,0-1.3-2.34,6.93,6.93,0,0,0-1.56-1.8c-1-1.25-.16-2.14-1.64-3.52a1,1,0,0,0,.09,1,16.06,16.06,0,0,1-1.11-1.3c-.41-.11.37.83-.3.38-.15-.27-.55-.79-.29-.86l.11.08a2,2,0,0,1-.9-1.33c-.09-.35-.18-.66-1-1,0,.22.4.28.6.65,0,.4-1,0-1.6-.42.27-.09-.44-.47-.77-.88,0-.54,1,.79,1.42.77l-1-1,.18.25L339,48.06c.89.63.06.73-.32.46-.75-.77-1.6-1.43-1.2-1.73-.39.28-1.44-.53-2.25-1,.73.75-.12.39-.44.36L333.76,45c1.46.73-.08-.52.41-.59s1.42.53,2.06,1.14a2.18,2.18,0,0,0-1.62-1.22,3.18,3.18,0,0,1-1.69-.8c.1-.19.34-.33.88,0-.17-.24-1.34-.4-2.14-1,.17.25.48.86-.5.59l-.94-1c-1.33-.76-.71.27-1.92,0l.58.67c-.15.18-.52,0-.88-.16s-.75-.26-.86,0c.71.24,1.23.12,1.89.58.07.57-1-.2-1.52-.14a8.24,8.24,0,0,1-2.15-1.43c.19-.74,2.25-.2,2.36-1.21-.81-.22-1.8-.48-2.71-.76a15.33,15.33,0,0,1-2.26-.74c-1.51-.15-1.5.48-1.4,1a2.73,2.73,0,0,1-1.22-.4l.71-.08a17.58,17.58,0,0,0-2.35-.07,16.54,16.54,0,0,1-2.37-.19c-1.07,0-.68.54-.47.89l-1.12,0,.16.1c-.28.48-1.25.27-2,.23,0-.21.46-.25.42-.38a3.33,3.33,0,0,0-2.19.07,1,1,0,0,1,1.24-.56c.08,0,0,.13.12.18l1.35-.22a3.56,3.56,0,0,1-1.82-.18c-.42-.17-.65-.39-.64-.65-1.57.35,1.29.44-.57.74a7.32,7.32,0,0,0-3.45-.16,3.29,3.29,0,0,1-2.71-.31,31,31,0,0,1-4,1.8c.12.39-1.09.47-.76.94a4.72,4.72,0,0,0,2.25-.73A2.56,2.56,0,0,1,304,40.4c.7-.32.38-.63.68-.91.67-.14,1.31-.19,1.43.06-1.5.5-.25,1.07-2.17,1.4.32.31,1.83-.06,2.54-.08-.18.23.06.42.52.51-.44.42-1.45.88-1.94,1.25.16-.22-.21-.28-.08-.41a12.82,12.82,0,0,0-1.76,1c-.63-.11-.87-.36-.61-.67a11.4,11.4,0,0,0-1.78.56c-.57.19-1,.38-1.1.07-1.28.58.54.2.7.33l-.1.07c.45-.19.93-.29,1.4-.44.36.65-1.67.24-1.65,1,.22,1.34-2.05.29-2.95.87.24-.45.49-.87.75-1.31l-.9.56c.42-.56.18-1.14.93-1.84a18,18,0,0,0-4.25,1.72c-.48-.13-.78-.33-.78-.69-1.07,1.23-2.21.94-3.38,1.6-1,1,1.46-.32.84.61a2.1,2.1,0,0,0-1.28.88c.22-.42,1.69-.88,2.62-1.27-.65.38-.34.74-.41,1l1.1-.55c.23.55-1.26.82-1.59,1.37,0-.63-.16-.54-.12-1.17a11.43,11.43,0,0,1-3,2c-.57.16.21-.48.36-.78-.42-.13-.75.83-1.19.6-.07-.35.52-.43.77-.73a24.28,24.28,0,0,0-2.63,1.89c-.13-.15.41-.77.87-1A3.14,3.14,0,0,0,284,50.24c-1,.55-2.06,1.3-2,.81-.25.47.12.35.28.5-1.1,1-.65,1.65-1.23,2.31l.75-.24c-1.25.79.25.64-.77,1.4a1.49,1.49,0,0,0-1.08-.76c.19.43-.57.85-.9,1.29.53,0-.4,1.17.45.7a4.16,4.16,0,0,1-.83,1.25,1.84,1.84,0,0,0-.47,1.18c.4-.42-.2,1.14.31.87-.58,1-1.43,1.48-1.65,1,.25-.34.74-.82.43-.95a18.07,18.07,0,0,0-1,1.95c-.42.4-.81,1-1.28.88.2.87-1.29,1.75-.85,2.53-.14-.88.68-1.19.85-1.42l-.07.35a.59.59,0,0,1,.1-.16c.11.4.22.79.35,1.18.67-.69-.43-.35.13-1.51.59-.35.58.35.55,1s0,1.3.37.86c.62-.73-.12-.87-.05-1.69l-.1.18.46-1.73c.27.05.23.62.23.62a10,10,0,0,1,.63-1.14c.22-.3.42-.53.63-.77a14.17,14.17,0,0,0,1.49-1.9c-.17.09-1.07,0-.65-.91.28-.7.72-.5,1.12-1-.14.35,0,.86-.5,1.08l.48.28c-.35,1.77.58,1.34-.39,3.31.15.15.06.58-.14,1.1a7.92,7.92,0,0,1-.73,1.67l.57-.35c.12,1.37-.61,0-.74,1.59-1,.26-2.13,1.14-2.41.05-.56,1-.32,1.54-.67,2.5-.79.42-.51-.5-1.13-.58a3.87,3.87,0,0,0-.14,1.11c.05.29.17.43.4.2l-.59,1.35c-.13,0,0-.51.06-.7a3.51,3.51,0,0,0-.1,2c0-.12,0-.5.13-.63a6,6,0,0,0,.18,1.83c-.09-.91.59-.83.43-1.8a.6.6,0,0,1,.23.78c.53-.64.64-1.37,1.11-1.57a1,1,0,0,0-.08,1.16,4.75,4.75,0,0,0,.32-2c.67.12.61-2,1-1.15-.19-.19.06-1,.35-1.29.27.15.06,1.19.24,1.72-.4,2-.47-.19-.84.2a9.15,9.15,0,0,0-.4,1.56c.13-.13.3.75.52-.27a2.42,2.42,0,0,1-.18,2.33c.15.22.26-.36.32-.54.14.24.61,1.32,1,.14-.12.34-.17-.67-.55-.1,0-.51.65-1.77.88-1.14a17.14,17.14,0,0,1,.24-2.29c.35,0,0,.45,0,.73l.43-1.72-.49.36a3.4,3.4,0,0,0,.39-1.67,9.8,9.8,0,0,1,.11-1.62c.43.36.09,1.18.05,1.91.88-.34-.13-.52.44-1.48a.28.28,0,0,1,.4.07l-.05-1c.16-.2.21,0,.19.1.05-.81-.12-.9-.23-1s-.14-.27.29-1.21c-.9.92-.23,1.07-.71,2-.59.38-.15-1.42-.13-1.77.65-.82,1.4-.49,1.68-1.81-.24.9.41.3-.23,1.39-.12.74.41-.2.74-.15.09-.34-.6-.12,0-.86l0,.07.14-.81.22-.78a6.47,6.47,0,0,0,1.25-1.9A2.45,2.45,0,0,1,285,56l-.59-.21c.6-.69,1.41-1.72,1.84-2.21a.68.68,0,0,1-.17.57c-.12.24-.3.49-.48.77a22.71,22.71,0,0,0,1.53-1.69,10.51,10.51,0,0,0,1-1.7,10.36,10.36,0,0,0-1.7.66,1,1,0,0,1,.85-.91,2.16,2.16,0,0,0,1.27-.78c.37.42-.05.63.56.84.23-.63,1.05-1.14,1.38-1.8.59.23.36,1-.72,1.84-1.18.23-1.47,1.69-2.42,1.92l.62-.1c-.65.84-1.24,1.13-1.64,2l0-.08.11.71.32-.35a4.6,4.6,0,0,1-.46,1.74c.9-1.1.32-1.82.48-2.66,1-.88,2.05-.49,2.39-1.44.22.15.93-.12.66.46-.43.59-1,.67-.83,1,.54-.52.48-.16,1.28-1a3.84,3.84,0,0,1,.71-2.2,5.58,5.58,0,0,1,1-1,6.47,6.47,0,0,1,1.18-.59,2.84,2.84,0,0,0-.85.89c-.16.3-.16.58,0,.66.13-.72,1.66-.54,1.06-1,.45-.24,1-.59,1.56-.82s1-.26,1.19,0a3.64,3.64,0,0,1-.59.37,5,5,0,0,1-.61.31,5.17,5.17,0,0,0-1.11.63c.2-.1.46-.08.42.1l-1,.55c.92-.21.87,0,1.8-.59-.09,0-.26,0-.18-.09.23-.16.55-.32.78-.49l.29.47a4.35,4.35,0,0,1,1.58-.69,9.22,9.22,0,0,0,1-.39l.5-.27a3.5,3.5,0,0,0,.49-.29l-.08.15c1.17-.3.88-1.36,2.12-2-.29.38-.05.54.1.76.53-.49,1-.1,1.69-.14-.83-.12.35-.69-.23-.72-.19-.53,1.17-.89,1.88-1,.54.58-2,.94-.84,1.38.68-.12.76-.56.26-.56.21,0,.45-.09.71-.12l.8,0a3.41,3.41,0,0,1,1.37.23,4.34,4.34,0,0,1,1.13-.6,1.67,1.67,0,0,0,.88-.58c-.56.08-.55.53-1.28.36.24-.22.48-.41.72-.59a14.71,14.71,0,0,1,2.58.33l-.73.28,0-.09c-.27.25-1.22.18-1.09.56.63-.53,1.18-.09,2-.48l0,.08c1.56-.36,2.6.89,3.65-.07-.28,0-.82-.41-.63-.6.34.22,1.3.28,1.23.57l-.32.06a5.83,5.83,0,0,0,1.7.28c.3-.32.09-.63.77-.74,1.51.44-.78.74.22,1.19a10.47,10.47,0,0,1,1.48-.06l.23.4a11.83,11.83,0,0,0,2.93.56c.49.05,1,.1,1.51.18a5.09,5.09,0,0,1,1.57.45c-.1.28-.52.24-1,.21a7.22,7.22,0,0,1-1.31-.24c.48.69,1.68.38,2.38,1.14.74.45,1.55.29,1.57,0,1.08.3.55.62.63.77.59-.35,1.66.56,2.49.9l-.15.31.7.17.67.24c-.26-.24.17-.3.29-.47l.27.24a1.86,1.86,0,0,0-.7-.9,6.53,6.53,0,0,0-1.08-.47,2.78,2.78,0,0,1-1.83-1.4c.44.1,0-.36.46-.24s.34.3.31.43c.32-.12.95,0,.28-.42.38-.6,1.65.37,2.73.74.47.85-1.15.08-1.71.16.37.17.83.08,1.24.54l-.42.37c1.36.6.59-.15,1.16-.39s1.07.84,1.42,1l-.44-.16c.78.89,1.4.54,2.13,1.31l.09.66c-.62-1.32-1.69-.49-2.1-1.14,1.18,1.51-1,.63-1.72.67a2.83,2.83,0,0,1,1.36,1.34c1.3.23,1.56,1.76,2.94,1.91.34.51-.62-.13-.2.35A15.21,15.21,0,0,0,339,58.66c.37.53.11.59,0,.87a8,8,0,0,0,1.21,1.6,15.63,15.63,0,0,0,1.13,1.28,12.4,12.4,0,0,1,1.18,1.36,11,11,0,0,1,1,2l-.48-.32c.24.67.44,1.23.92,1.42-.28.6.11,1.24.51,1.93a6.11,6.11,0,0,1,.52,1.06,1.57,1.57,0,0,1-.09,1.07c.18,1.48,1,1.34,1.4,2.49-.21,0-.65-.24-.65.38.22.92.45,1.83.63,2.74l.3,2.78c.11.94,0,1.89,0,2.87a22,22,0,0,1-.22,3.07c-.07,0-.11-.27-.13-.38a20,20,0,0,0-.21,2.05c-.1.67-.17,1.34-.24,2a9.57,9.57,0,0,1-.95,3.62c0,.46-.32,1.76.17,1.52a.66.66,0,0,1,1-.25c-.47,2.15-1.06.7-1.53,2-.84.08-.05-1-.63-1.27l-.44,2c-.71.89-1,2-1.78,2.71.29-.33-.38-.41.22-.88,0,.11.05.07,0,.18.91-1.4.21-.93.77-2.29a15.81,15.81,0,0,1-.89,2,6.9,6.9,0,0,1-1.11,1.72c.55.08-.39.87-.34,1.32l-.08,0c.17.12-.15.8-.23,1l-.66-.15c-.24.46.33.08.08.54-.38.62-2.09,2.63-2.68,2.28-.61.61-.56,1-1.29,1.6-.06-.17.06-.36,0-.45-.37.3-.75.63-1.14,1l-1.27.93c-.42.31-.85.62-1.27.89a6.25,6.25,0,0,1-1.32.61c-.59.45-1.14.87-1.62,1.28a7.57,7.57,0,0,0-1.28,1.11c.34-.21,1.47-.59,1,0-.25.41-.86.6-1.39,1,0-.36-1.56.41-.52-.34-.53-.45-2.45,1.12-2.68.46a3.84,3.84,0,0,1-1.08.58,5.1,5.1,0,0,0-1.35.69c-.23-.26.86-.44.8-.64l-.75.29-.06-.2c-1.51.19-1.57,1.16-2.46,1.45l0-.08-.6.21.61-.68c-.95.23-1.37.81-2.46,1.1l-.13-.16a5.24,5.24,0,0,1-.64.29c.11,0,.14-.12.06-.16-.58.57-2.05.44-2.63.93-.46,0-.84-.67-1.44-.26l.11-.66c1.47-.08.56.46,2.11.14a8.22,8.22,0,0,0-2.86-.65c-1.2-.13-2.51-.09-3.56-.27a6,6,0,0,1-1.45,0,9.81,9.81,0,0,1-1.53-.28c-1-.25-1.85-.39-2.35,0l.29-.35a20.25,20.25,0,0,1-2.64-1.21,16.72,16.72,0,0,1-1.73-.58l-1.62-.77c-.52-.26-1.05-.45-1.54-.67a7.23,7.23,0,0,0-1.43-.55l-.26-.56c-1.16,0-2.55-.9-3.92-1.73s-2.52-1.83-3.51-1.77c-.31-.51-.14-.56.1-.45s.64.25.77.2a2.23,2.23,0,0,0-.57-.43l-.69-.46a1.73,1.73,0,0,1-.93-1.18c.16-.14.93.73.68.26-.11-.7-.87-.38-1-1.17-.13.51-1.36-.29-2-1.08.1.16.1.16.11.25-.16.31-.57-.35-.86-.66a.28.28,0,0,1,.18.06l-.68-.76c-.22-.27-.41-.55-.62-.83l-1.23-1.73a15.67,15.67,0,0,1-1.08-1.87c-.34-.65-.71-1.29-1-2a27.4,27.4,0,0,1-2.23-8.45l.45,1a7.82,7.82,0,0,1-.41-2.67l.05.11c.45-1.55-.74-1.65-.1-2.85l.08.22c-.19-1.81.66-2.85.34-4.61a2.45,2.45,0,0,1,.52-1.2,3.42,3.42,0,0,0,.58-.85,1.51,1.51,0,0,0-.31-1.26l-.09.37c-.43.36-.19-.87-.27-1.47-.63.31-1.49-.11-2.33,1.48,0,1.26-1.16,1.09-1.16,2.54.74.86-.67,2,0,3.38-.56-.7-.23,1.58-.86.43-.39.57.6,2.82.2,3.91-.14-.16-.27-.1-.35-.35.51,1.44-.22,1.06-.05,2.16l.54-.13c.24.39-.13.58,0,.94,0-.31.18-1,.45-.68a5.66,5.66,0,0,1,.54,1.38c-.21,0-.36-.3-.47-.54,0,0,.13,1.17-.07,1.3-.3-.37-.35-.92-.73-1.23.1,1.59-.15.15-.46,1,.56-.34.61,1.27,1,2.07-.23.15-.23-.56-.48-.72-.67,1.89.75,2.36,1.28,4.39-.09,0-.24-.23-.31-.35.51.88.19,1.75.76,2.22.26.93-.61.45,0,1.8.41-.68.65,1.65,1.31,1.36.05.4.06.83.14,1.22.86.67.92-.81,2,.81.7,1.64-1.09.47-.86,1.56l.56.16.23.91a.47.47,0,0,1-.1-.1c.41.37.9,1.2.73,1.33s-.53-.44-.72-.42c.42.26.74,1.11,1.15,1.92a5.52,5.52,0,0,0,.7,1.09,1.36,1.36,0,0,0,1,.45c.21.52.94,1.33.6,1.45.34,0,.71.49,1.09,1a3.66,3.66,0,0,0,1.21,1.11c-.18.06.14.71.63,1-.42-.62.05-.44.58-.31a4.37,4.37,0,0,0,1,1.16c.43.37.8.74.73,1,1,.35.94-.19,1.36-.39.29.65,1.94,1.8,1.3,2.11-.41-.36-1.29-1.21-1.37-.71.7.82.47.12,1.19.58-.13.07.27.64,0,.71a7.76,7.76,0,0,1,1.65,1.06c-.82-.84.86,0,.41-.59l-1.18-.16c-1.15-.67,0-.45-.38-.84,2,1.07,2,.29,4,1.07a12.72,12.72,0,0,0,1.05.85c-.65-.28-.81.31-.49.59,1.31.06,1.8,1.24,2.69,1.74-.74-.47-.17-.65.17-.67,2.06.37.67.49,1.42,1.06A20.62,20.62,0,0,1,299,122c.63.29,1.24.48,1.82.7s1.15.42,1.74.58a5.91,5.91,0,0,0,1.85.26,11.23,11.23,0,0,1-1.09-.76l-.5.41c-.84-.62.42-1.1,1-1.31.09.22,1.64.33,1,.53h1.52c-.19-.26-1.15-.3-.43-.44.46.23,2,.56,1,.73.79.14,1.81.07,1.66-.27,1.28,0-.18.7-.78.81,1,.16.85.54.52.69h1.45c-.32.14-.33.35-.66.48,1,.24,1.66-.32,2.47.15l.37-.43a23,23,0,0,0,2.49.28,22,22,0,0,0,2.37,0l-.44-.3c1.78-.76,1.41.35,3.88-.27a6,6,0,0,0,1.58-.63c.34-.22.47-.43.33-.66a1.37,1.37,0,0,1,1.38,0,5.7,5.7,0,0,1,2.69-1.35,8,8,0,0,1-1.63.94c.35.5,2.09-.58,3.15-.71.3-.25.95-.7,1.62-1.26s1.35-1.22,1.82-1.7c-.71-.13-.77-.79,0-1.65,0,.18.38.1.85-.07a11.32,11.32,0,0,1,1.4-.56c-.18.46,1.89-.26.54.72-.5.11-.91-.16-1.39.32a8.18,8.18,0,0,0,2.7-.47c0,.18-.37.66-.88,1C334.52,117.33,334.31,117.34,334.21,117.25Z" transform="translate(-42.68 -38.56)"/><path class="cls-1" d="M278.81,64.52l.09-.13-.19.12C278.77,64.47,278.8,64.48,278.81,64.52Z" transform="translate(-42.68 -38.56)"/><path class="cls-1" d="M354.36,89.91c0-.09,0-.27-.1-.29A.59.59,0,0,0,354.36,89.91Z" transform="translate(-42.68 -38.56)"/><path class="cls-1" d="M352.73,65.94s-.08.06-.11.09S352.69,66,352.73,65.94Z" transform="translate(-42.68 -38.56)"/><path class="cls-1" d="M274.84,64.29l.08-.41A1.86,1.86,0,0,0,274.84,64.29Z" transform="translate(-42.68 -38.56)"/><path class="cls-1" d="M249.47,193.66c.24.15.63.35.94.52C249.46,193.8,249,193.59,249.47,193.66Z" transform="translate(-42.68 -38.56)"/><path class="cls-1" d="M262.33,199.88c-3.38-1.49-8.72-3.86-11.92-5.7C253.44,195.41,261.75,198.44,262.33,199.88Z" transform="translate(-42.68 -38.56)"/><path class="cls-1" d="M249.58,191.79l4.06,2.16C251.07,193.13,251.73,192.86,249.58,191.79Z" transform="translate(-42.68 -38.56)"/><polygon class="cls-1" points="208.02 154.84 207.64 155.1 205.56 153.75 208.02 154.84"/><path class="cls-1" d="M120.67,160.29c.19.58.32,1-.06.9C120.62,160.89,120.63,160.59,120.67,160.29Z" transform="translate(-42.68 -38.56)"/><path class="cls-1" d="M119,148.34c.12-1,.25-1.72.34-2.31C119.29,146.72,119.17,147.29,119,148.34Z" transform="translate(-42.68 -38.56)"/><path class="cls-1" d="M130,166.8c-.7-.2-1.38-.51-2.07-.76C128.57,166.25,129.28,166.56,130,166.8Z" transform="translate(-42.68 -38.56)"/><path class="cls-1" d="M222.73,131.57a12,12,0,0,1,1,4,6.24,6.24,0,0,0-.34-.88,5.37,5.37,0,0,1-.25-.69,3.85,3.85,0,0,1-.31-1C222.77,132.41,222.79,132.05,222.73,131.57Z" transform="translate(-42.68 -38.56)"/><path class="cls-1" d="M151.74,113l.11-.54C152.31,112.27,152.58,112.21,151.74,113Z" transform="translate(-42.68 -38.56)"/><path class="cls-1" d="M124.54,146.55a.35.35,0,0,1-.37-.28l.17-.43Z" transform="translate(-42.68 -38.56)"/><path class="cls-1" d="M138.4,167.34l.12,0c.57.06,1.13,0,1.7.05A3.09,3.09,0,0,1,138.4,167.34Z" transform="translate(-42.68 -38.56)"/><path class="cls-1" d="M163,103.53a7.93,7.93,0,0,1,1.85-.67C163.68,103.67,163,103.87,163,103.53Z" transform="translate(-42.68 -38.56)"/><path class="cls-1" d="M119.4,145.75s0,0,0,0l-.07.3Z" transform="translate(-42.68 -38.56)"/><path class="cls-1" d="M127.2,157.54a4.73,4.73,0,0,1-.55-.72,4.34,4.34,0,0,1-.5-.78c.23.31.48.56.64.82S127.09,157.35,127.2,157.54Z" transform="translate(-42.68 -38.56)"/><path class="cls-1" d="M222.73,131.57a13.4,13.4,0,0,0-.61-1.27A2.71,2.71,0,0,1,222.73,131.57Z" transform="translate(-42.68 -38.56)"/><path class="cls-1" d="M237.9,189.3c-1.36-.6-1.59-1-1.75-1.27A10.74,10.74,0,0,1,237.9,189.3Z" transform="translate(-42.68 -38.56)"/><path class="cls-1" d="M266.36,197.91l-.37.46A3.63,3.63,0,0,1,266.36,197.91Z" transform="translate(-42.68 -38.56)"/><path class="cls-1" d="M298.29,149.86a7.5,7.5,0,0,1,.31-.82C298.66,149.59,298.48,149.89,298.29,149.86Z" transform="translate(-42.68 -38.56)"/><path class="cls-1" d="M264.24,111.23c3.06,2.09,5.19,5.36,7.45,7.58l-.51-1,2.08,2.45.37-.43c3.63,3.85,8.52,8.2,9,10.22l.28-1c.51.76,1.07,1.54,1.47,2.26a24.15,24.15,0,0,1,1.23,2.21,28,28,0,0,0-1.27-2.66,24.75,24.75,0,0,1,4.72,7.94,22.92,22.92,0,0,1,1.19,5.53l.26-.52a3.43,3.43,0,0,1,.2,1.2c0,.39-.08.79-.09,1.24l.45-.73a34.43,34.43,0,0,1-.09,5.18,29.1,29.1,0,0,1-.72,4.21,21.67,21.67,0,0,1-4.95,9.29c-.74,1-.49.75,0,.29s1.15-1.26,1.27-1.19a6.3,6.3,0,0,1-1.38,2l-.15.16-.14.16a18.89,18.89,0,0,1-2.25,2.3c.79-.14,2.18-1.83,2.57-2,.12-.1.15-.09.08.06a5.33,5.33,0,0,1-.52,1.16c-1.82,1.7,1.61-.87-1.17,2.44l-1.85.71c-1.34,2,.33.87-2.08,3.8-3,3.15,2.36-4.89-2.06.52-2.1,2.8-2.69,7.25-7.29,12.26-3.19,4.94,3.13-1.45-2.06,4.77l3.72-3.68c-.6,1.24.32.88-2,3.51a19.7,19.7,0,0,0-3.93,3.5c5.27-5.51-3.19,5.95,1.95,1l-1.66,2c.24-.23.37-.24.32-.06l-2.1,2.8c1.5-1.56,4.73-5.55,3.86-3.21l-3,4.11c1.28-.72.32.88.85.93l10-11.08c-.62.26-2.12,1.81-1.89,1,2.21-3.31,2.48-2.18,4.41-5.41l-1.37,1c.32-.13.68-.51.23.17-.58,1.21-1.2,1.46-1.43,1.29.36-1.38,3-4.12,4-4.76,2.92-3.86-.19-1.41.33-2.36,2.29-1.39,5-6.38,7.15-8.48L286.08,175a21.38,21.38,0,0,1,3.91-5.32l.05,0,0,0c.72-.67,1.29-1.25,1.77-1.77l-1,.42a21.21,21.21,0,0,0,3.22-6,15.5,15.5,0,0,1,2.95-5l-.51.46c.66-2.24,1.05-5.67,1.74-7.84-.2-.07-.43-.49-.45-1.41.74-1.22.3-3.71-.51-7a2.76,2.76,0,0,1-.31,2,4,4,0,0,0-.47,2,11.51,11.51,0,0,1-.54-4.66,7.92,7.92,0,0,0-.46-4.21c-.73-1.1-.58-.52-.35.42l.38,1.52a3.74,3.74,0,0,1,.1,1.08,19.33,19.33,0,0,0-4.54-8.3c-1.93-2.28-3.79-4.1-4.43-6.17.73.55,1.48,1.07,2.21,1.66-1.34-2.17-2.27-3.16-2.19-2.82a1.86,1.86,0,0,1,.7,1.2,44.28,44.28,0,0,1-6.45-7.2,41.13,41.13,0,0,0-6.5-7.21c.18.63.9,1.44.74,1.68-2.78-2.11-1.29-3.61-6-6.86l.56,1c-1.55-1.08-2.22-2.42-1.95-2.34-.57.53-2.78-1.46-5.43-3.67s-5.72-4.63-7.86-5.1c-1.58-2.4-7.37-7.81-9.59-8.89-3.3-1.36,1.82,2.66.28,2.56-2.15-1.63-2.76-3.17-6.17-5.33.44-.73,7.43,3.39,1.62-1.55L239.6,82a14.9,14.9,0,0,1,2.46,1.67c1.46,1.72-1.4-.33-1.94-.45-2.14-1.67-4.29-3.33-6.48-5,0-1.09,3.91,1.91,4.45,2-5.38-3.65-12.56-6.87-17.52-10.38l.33.59c-3.18-2.24-4.44-2.34-5.4-2.47s-1.68-.24-4.39-2c-1.66-.41-1.42-.08-1.4.16s0,.2-.37.21a6,6,0,0,1-.78-.07l-.62-.1c-.24,0-.52,0-.84-.06-.73-.08-.89-.1-.83-.21s.33-.24.47-.28a4.69,4.69,0,0,0-2.05.33,7.11,7.11,0,0,0-1.14.52,5.36,5.36,0,0,0-1,.74c-.46.42-.92.7-3.5,1.76l1.51.22C194.58,72,188,74.67,183.69,78.37c.71.39,3.49-1.75,4.95-2.09-7,3.37-14.77,10.89-20.66,14.83,1.24-1.83-3.53,1-.34-2.28,1.52,0,2.77-1.83,4.75-3.27-2.19.41-5.25,3.2-8,5.84s-5.11,5.11-6.16,4.82l-.3,1.24c-.9.63-3.35,2-2.07.6-1.86,1.84-3.72,3.69-5.55,5.56,2.41-1.45,7.61-4.3,8.47-6.08,2.19-.86-2.09,2.49,0,1.88-4.74,2.51-2.08,2.49-6.28,5.9,1.09-2.45-5,2.55-5.13,2a33.81,33.81,0,0,1-5.73,4.53c-2.35,2.12-6.84,7.84-10.49,11.41,1.53-1.23,3.93-3.13,4.27-2.5-2,1.53-3.8,3.58-3.51,4.45,3.46-2.78,3.63-3.56,3.66-4.37s-.05-1.58,3.08-4.09c2-.76,3.71-2.13,6.83-4.76-1,1.66-.23,1.26-.35,2.23-4.92,2.09-9.31,9-14.23,13.28a4.42,4.42,0,0,1-2.23.94c-.69.22-1.66.79-3.66,3.28.93-1.59,1.92-3.13,2.94-4.66-1.71,2.49-2,2.71-2.34,2.73s-.65-.11-2.24,1.88c.56-.43,1.13-.84,1.7-1.25a23.91,23.91,0,0,1-3.8,4.67c.76-.59,1.5-1.16,2.27-1.69-.88,1.41-2.37,4.16-2.87,4,0,.5.08.72.23.8a6.89,6.89,0,0,0-1.56,2.85c.55-1.13.88-1.92,1.15-1.82a10.88,10.88,0,0,0-1.26,3.46c-.09.61,0,.77.12.84s.53-.06,0,2.22c.18-.34.27-.17.29.28a17.29,17.29,0,0,1,0,2c-.72-.13-1.4,2.18-1.17,5a16,16,0,0,0,.31,2.14c.16.71.38,1.4.57,2.05l.68,1.75a12.83,12.83,0,0,1,.53,1.3v0a18.69,18.69,0,0,0,5,5.34c-1.18-.93.36-.3,2.26.45l-.3-.15c1.06.38.62-.29.67-.61,0-.17.16-.26.64-.14a6.73,6.73,0,0,1,1,.36l1.76.65,1.56.58c.53.17,1.06.3,1.61.45-.59-.13,0-.28.32-.35l1.67.3c.56.08,1.13.12,1.7.18a69.14,69.14,0,0,1,7.32-1.66,16.36,16.36,0,0,0,7.36-3.34,12.46,12.46,0,0,1-2.27,1.4c-.68.3-1.08.33-.69-.12a17.59,17.59,0,0,1,3.31-1.8l-.34,0,1.22-.71,1.17-.78a28.16,28.16,0,0,0,2.27-1.67c1.48-1.16,2.88-2.5,4.13-3.63a17.94,17.94,0,0,0-2.74,2.16c-1,.87-1.76,1.33-1,.16.69-1.67,3.22-3.39,4.53-4.74.13.45-2,3.24.57.8.13-.45,2.13-3.16.84-2.21,2.75-2.35,6.55-5.93,9.32-7.71.6-.85-.65.18-1.06.52l-.1.26c-1.68,1.39-1-.48-3.64,2.86-1.19-.66,4-4.66,6.55-7.4l-4.84,3.59c5.78-8.45,17-16.45,24.4-23.08-1.9,2.26-4,3.63-3,4.14,2.44-1.9,3.48-2.75,4.5-3.63l1.68-1.46.85-.71.86-.68-.24.14a3.87,3.87,0,0,1,.48-.59,4.12,4.12,0,0,1,1.24.44c.43.2.7.36,1.49.73a10.06,10.06,0,0,0,3.49,1.2c-1-1.12-4.23-1.38-3.83-2.43,2.31,1,4.61,2.17,6.83,3.41a16.05,16.05,0,0,0-4.41-2.58l-1.37-.58-1.26-.5c-.67-.26-1.28-.5-1.81-.74-.76-.25,0,.08.84.54a5.28,5.28,0,0,1,1,.7c.29.25.46.48.14.55l-1.36-.61a10.65,10.65,0,0,0-1.08-.48,45,45,0,0,1-6.35,3.41c-2.15.89,1.81-2.73,2.83-3.63,1.09-.59,2.15-1.19,3.16-1.8.92.41,1.83,1,2.71,1.44l1.49.79,1.62.83,6.91,3.51c1.27.42,2.51.91,3.76,1.43a7.21,7.21,0,0,1,1.61,3,6.53,6.53,0,0,0,.92,1.53c.25.3.54.65.9,1.06s.79.85,1.28,1.39c-.23-.57-.46-1.16-.75-1.73a11.56,11.56,0,0,1,1.33,1.07,5.22,5.22,0,0,1,.78.87,31.83,31.83,0,0,0-4.82-6.66c1.86.59,3.91,2.47,5.51,4.93a16.69,16.69,0,0,1,2.69,8,1.62,1.62,0,0,0,.07-.46c0-.21,0-.48-.07-.76l-.06-.83a2,2,0,0,1,0-.64,9.47,9.47,0,0,1,.45,5.9,12.34,12.34,0,0,1-2.73,5.08c-2.56,2.92-5.13,5.55-7.17,7.85-1.2,2.39,3.51-3.75,3.37-2.25-2.25,2.38-4.07,5.66-5.24,5.81,1.81-.32-4.93,5.67,0,1.69a74.81,74.81,0,0,1-6.54,7.1c-1.18,1.13-2.28,2.09-3.48,3.12s-2.49,2-3.89,3l-.23.17-.12.08s0,0,.07.06l.44.22.88.45,1.82.93,3.83,2,7.63,3.92c-.39-.54-.28-.8.27-.8-1.84-.82-4.09-1.9-6.09-3a12.37,12.37,0,0,1-3.74-2.59,7.45,7.45,0,0,1,3,1.49c.41.3,1,.7,1.4.94a2.22,2.22,0,0,0,1,.43c-.54-.39-1.5-.89-2.15-1.29s-1-.7-.8-.93c.34.07.64.14.91.22l.38.12.49.2a15.45,15.45,0,0,1,1.73.92c1.05.64,2,1.31,3,1.86l-1.32-.28c6.61,3.78,3,3.5,10.5,6.48,2.94.56.2-.52.5-1.32,1.6,1.07,7.56,2.71,9,4.33l-4.48-1.91c3,1.6,6,2.91,8,4.14a1.85,1.85,0,0,0-.89-.88c2.37,1.35,5.57,2.7,6.61,3.78l1.07-.52c-1.65-.29-6.09-2.19-6.63-3,.75-.54,5,1.9,7,2.71-8.52-4.06-8.05-5.4-15.59-8.11l1.12.8c-4.82-1.39-9-4.5-13-6.24,1.2.32,1.56.12,1.09-.25-1.42-.51-2.82-1.05-4.22-1.61l-2.09-.85-1.94-.81L206,172l-1.32-.59-.67-.29-.34-.15-.08,0,.06,0,.14-.11c.93-.73,1.82-1.51,2.7-2.35.42-.4.94-.92,1.44-1.44l1-1.05c.35-.37.72-.75,1.06-1.14,1-.59,2-1.18,3-1.81l-.36-.62c3.46-4.23,1.51-.22,3.82-2.89-.89,1-.81.75-1.12.84,4.75-4.3,1.84-3.07,4.27-5.67-1.6.87-4.61,5.06-4.31,3.23a88.42,88.42,0,0,0,7.13-7.72c1.09-1.28,2.08-2.42,2.92-3.22a4.63,4.63,0,0,1,2.08-1.61,17.71,17.71,0,0,0,1.66-5.23,14.25,14.25,0,0,0-.32-5.81,17.9,17.9,0,0,0-2.29-5.17,27.23,27.23,0,0,0-3.3-4.19,46.45,46.45,0,0,0-7.5-6.28,62.36,62.36,0,0,0-7.26-4.3c-1.36-.35.68.59.1.56a14.52,14.52,0,0,0-3.51-2l-.53-.22-.81-.33c-.56-.21-1.13-.43-1.69-.62-1.11-.38-2.21-.75-3.22-1-1.49,1.41-2.77,2.65-3.73,3.5l-.56.5a4.06,4.06,0,0,1-.35.25c-.2.13-.35.17-.42.1a8,8,0,0,0-1.62,2.92,64.49,64.49,0,0,0-6.8,5.27l1.84-1.39-.1.25-2.62,2,0-.12c-5.89,5.16-12.23,11.62-17.87,16.07,3.28-2.53,0,1.45,1.6.31a29.23,29.23,0,0,0-6.67,5.21c-1.27,1.23-2.58,2.55-3.83,3.94l-3.54,3.87c.22.18,0,.71.71.32-.48.4-1,.71-1.53,1.07a16.75,16.75,0,0,1-1.56,1l.59,0a19.61,19.61,0,0,1-8.48,4.35,44.68,44.68,0,0,1-7.41.94c2.39.23,2.46.39,2.75.83a16.26,16.26,0,0,1-6.49-.63,11.71,11.71,0,0,1-5.52-3.61c.12.23.17.41.11.49a6.69,6.69,0,0,1-2-3.32l-.69.15a19.7,19.7,0,0,1-1-4,10.08,10.08,0,0,1,.55-4.59,3,3,0,0,1,.2-1.76,10.9,10.9,0,0,1,1.22-2.63c1.16-1.92,2.9-4,3.95-5.76,1-1.16-2.61,2.29,0-1.22.77.19,1.63-.92,2.52-2s1.8-2.08,2.52-1.7c.68-1.1,1.38-2.2,2.11-3.3l1.16-.1c1.15-3.45,3.9-3.25,7-7.08-.31.07-.72.41-.62.15,1.24-1,4-3.54,2.2-1.24,1.84-1.89,8.69-7.77,5.16-5.62.52.13-2.44,2.39-3.7,3.39-.33-.64,2.74-3.2,3-4.41a9.74,9.74,0,0,0,1-.49l.13-.69c4.18-2.85,7.64-6.63,11-8.28,0-.3.58-1,1.92-2.08l.61.6,4.05-3.44-2.7.65c4.32-4,8.41-5.46,12.29-8.26.09-1.9,7.7-5.32,10.29-8.74l-3.23,1.91c3.28-2.29,5.07-3.75,6.83-5.14a43,43,0,0,1,6.7-4.48c-2.48,1.87-3.75,2.81-5.26,4s-3.27,2.72-6.61,5.92A75.39,75.39,0,0,1,198,77.37l4.83-2.86,2.33-1.37,1.07-.61.45-.26c.11-.07.07-.08.09-.11s-.05-.16-.14-.2a2.09,2.09,0,0,0-.45,0c-.15,0-.24,0-.21-.14s.21-.27.43-.45a1.49,1.49,0,0,0,.42.23v0H207a.56.56,0,0,1,.16,0c.27.08.54.14.8.2a9.59,9.59,0,0,1,1.46.53c.33.2.42.36.09.46a7.09,7.09,0,0,0,1.4.23,7.2,7.2,0,0,0,1.07.08,4.45,4.45,0,0,1,1.88.31c2.34,1.54,4.64,3.28,6.9,5.09l-.14-.29c6.78,3,12.34,7.39,17.64,12s10.42,9.41,16.44,13.92l.07-.54,2.45,2.94c-2-2.25,1.34.4,1.77.25q3.35,3.52,6.57,7.12C265.94,113.73,266.13,112.67,264.24,111.23Zm-99.17-10-1.78,1.44a5.45,5.45,0,0,1-1.12.92l1.12-.92C164.11,101.77,164.54,100.93,165.07,101.18ZM229,138.5c-.23.69-.23.18-.19-.6a12.31,12.31,0,0,0-.13-2.34,13.45,13.45,0,0,1-.16,4.61C228.63,140.85,229,139.2,229,138.5Zm-67.6-41.41.62-1.27,1.55-.73Zm25.77-20.45-2.84,1.67.15-.25,2.82-1.66Zm31.12-1.78a5.35,5.35,0,0,1-.48-.4,3.64,3.64,0,0,1,.48.4c1.9,1.58,3.27,1.24,4.46,3.13C220.22,77.41,219.34,75.87,218.3,74.86ZM173.23,93.17a12.34,12.34,0,0,0-1.94,1.45c.65-.1,2.66-1.09,1.5,0-1.12.39-4,2.69-4.45,2.29C171.22,95.32,172,92.65,173.23,93.17ZM123.55,147.6v-.7l-.36,1.25c-.1.42-.16.85-.25,1.28A14.5,14.5,0,0,1,123.55,147.6Zm2.94,10.75a5.78,5.78,0,0,0,2.32,2.55,17.5,17.5,0,0,0,4,1.8c.42-.23,0-.64-.82-1.18l-3.18-1.93c-1.19-1.16-1.51-1.21-1.75-1.07S126.83,159,126.49,158.35Zm66-81.19-1,.06.6-.49-2.81,1.6c3-3,6.29-3.68,8.19-4.66C195.89,74.62,191,76.56,192.47,77.16ZM151,158.23l1-.51,1.1-.66c.77-.43,1.49-1,2.17-1.41,1.34-.91,2.32-1.64,2.36-1.28-.3-.39-1.24.1-2.22.77s-2.07,1.45-2.59,1.83A7.07,7.07,0,0,1,151,158.23Zm.91,1.58a12.87,12.87,0,0,1-4,1.54,10.59,10.59,0,0,1-1.55.19c-.55.05-1.17.11-2,.12a12.29,12.29,0,0,1,3.77-1.27c.79,0,1.15.26,1.06.6,2.74-1.1,1.9-1.39,3.1-2.35Zm-5-.18c-.45.3-.92.51-1.39.77-.77.57-1.21,1-1.79,1.46a2.43,2.43,0,0,1-1.08.39,4,4,0,0,1-1.68-.09,24.29,24.29,0,0,0,2.33-.75c.74-.34,1.51-.6,2.22-1A9.26,9.26,0,0,1,146.92,159.63Zm25.72-24.2-1.51,1c1.28-1.22,1.53-1.26,1.51-1l1.26-.84C171.38,137.57,172.57,135.92,172.64,135.43Zm-19,20.06c-.59.53-1.24,1-1.85,1.47s-1.29.88-1.94,1.3c.24.13.92-.3,1.7-.85A22.56,22.56,0,0,0,153.59,155.49Zm18.84-18.64c-1.51,1.56-5.38,5.69-4.87,5.09C167.55,141.22,171.24,137.61,172.43,136.85ZM203,169.65c.73-.6,1.44-1.2,2.13-1.82a5.53,5.53,0,0,0-.15,1Q204.1,169.2,203,169.65Zm23.15-28.89.07.88a9.24,9.24,0,0,1-.36.92l-.45.87a10.22,10.22,0,0,0,.44-1.32Zm-21.68-24.49c.21-.07.21-.28,0-.54a3.5,3.5,0,0,1-1-.76,2.55,2.55,0,0,1,1,.76,22.36,22.36,0,0,0,4.1,1.81c-.35-.58-2.35-1.47-3-2,1.65.31,3.86,1.84,5.46,3s2.71,1.87,2.41.33c.53.47,1.73,1.48,2.55,2.33s1.3,1.5.52,1.2a37.8,37.8,0,0,0-6.08-3.7,36.82,36.82,0,0,0-5.94-2.4,2.13,2.13,0,0,1-1.1-.23A5.08,5.08,0,0,1,204.49,116.27ZM169.3,143.39a12.28,12.28,0,0,1-1.65,1.41c-.91.7-1.7,1.14-1.69.68,2.12-1.8,1.08-.34,1.69-.68A19.84,19.84,0,0,0,169.3,143.39Zm-5.66,6.1c1.1-.94,2.18-1.9,3.29-2.82l-1.87,1.22,5.2-4C168,146.85,164.48,149.49,163.64,149.49Zm-.72,1.41-1,.28,1.34-.61-.33.33.23-.06c-1.74,1.7-3.38,3.43-5.18,5.14C159.69,154.29,161.26,152.58,162.92,150.9Zm-35.36-18.19c.07-1.66-1.2-.61-2.63,1s-2.92,3.94-3.67,4.41c.19.29.2,1.2.57,1.19s1-.93,3-3.92a15.25,15.25,0,0,1-2.57,4c-.45.5-.75.82-.65,2.83a19,19,0,0,1,3.61-6c-.6,1-1.19,2-1.71,3a6.14,6.14,0,0,0,2.07-3A10.92,10.92,0,0,1,127.56,132.71Zm25.68-27.06,3.44-3-3.33,2.76Zm93.14-16.24c0-.56,5.17,2.44,5.72,4C249.71,91.64,247.19,89.61,246.38,89.41Zm36.25,32.16c-1.09-1.33-2.21-2.63-3.34-3.93,1.43,0,3.22,3.29,5,4.92C284.51,123.52,283.43,121.91,282.63,121.57Zm13,29.67c-.15.54-.28,1.08-.45,1.6.45-.49.86-1,1.3-1.56Zm1.59-2.17c.19.56.4-.08.55-1a12.14,12.14,0,0,0,.07-2.56A27.87,27.87,0,0,1,297.19,149.07Zm-13.48,27.58,1.27-1.73-1.9,1Zm1.27-3.34c.82,0,1.37.71,4.06-3.44-.41-.58-1.23.48-.73-1.45a17.64,17.64,0,0,0-2.17,3.07c.76-.8,1.34-2,1.88-2a15.6,15.6,0,0,1-3,3.78,1.55,1.55,0,0,0-1.1.54C284.05,174,284.46,173.75,285,173.31Zm9.34-15.48a5.36,5.36,0,0,0,.24-1.51l.26-.23a2.58,2.58,0,0,1-.5,1.74,20.52,20.52,0,0,1-.75,2.37c.14.37.69-.17,1.24-1s1.12-1.78,1.42-2.19c-.73,1.59-1.78,2.72-2.5,4.87.28-.2.28.13.89-1.17-.4,1-.87,1.91-1.35,2.84-1.26,1.33-1.51,1.19-1.24.41s1-2.28,1.54-3.8a2.07,2.07,0,0,1,0-1A5.22,5.22,0,0,1,294.32,157.83Zm-14.46,18.8,1.12-1.16c.68-.52.54,0,.85-.09C280.63,176.84,278.81,178.54,279.86,176.63ZM257.64,100c.93.55-.52-1.56-2.49-2.94l1.52.15c-.3.47,3.44,3.52,3.82,3.91C260.63,102.24,259.41,100.78,257.64,100Zm-92-4.27c-1.37-.27-5.63,4.21-6.83,4.9C161.07,98.31,166.49,93.44,165.66,95.7ZM157.87,103c-1.27,1.09-1.55,1.49-1.78,1-.76.37-1.56,1.47-2.32,1.86,2.12-2.54,2.54-1.76,4.1-2.83.33-.29.71-.61,1.2-1A10.71,10.71,0,0,1,157.87,103Zm52.58-34.48c.59.48,1.16,1,1.71,1.51,1,.44,2.06.86,3.07,1.37A45.56,45.56,0,0,0,210.45,68.48Zm30.6,20.72c0-.53,3.23,1.87,3.74,2.57.17-.64-2-2.2-3.66-3.54a6.71,6.71,0,0,0-1.07-.9c.31.28.67.57,1.07.9.55.59-.07.5-.2.66L240,88.4l2.24,1.9Zm47.07,44.43a7,7,0,0,1,1.38,1.76,9.36,9.36,0,0,1,.61,1.58A18.29,18.29,0,0,1,288.12,133.63ZM224.69,78.28c3.5,1.9-1.12-1.79,1.23-.62l-1.79-1.08c3.2,1.3,1.67,1.87,3.75,3l-1.39-.78c-1.36-.23,1.82,1.68,1.81,2.21C226.64,80.2,223.31,77.52,224.69,78.28Zm64.78,58.5a8.26,8.26,0,0,1,.93,1.75,3,3,0,0,1,.12,1.08,5.18,5.18,0,0,0,0,2,4.66,4.66,0,0,1-.66-2.39A5.08,5.08,0,0,0,289.47,136.78ZM244,94.32l-.27-.06,2.32,2.24.27.07Z" transform="translate(-42.68 -38.56)"/><path class="cls-1" d="M296.74,139.18a9.35,9.35,0,0,1,.59,2.29C297.15,140.74,297,140,296.74,139.18Z" transform="translate(-42.68 -38.56)"/><path class="cls-1" d="M147.87,106.51c0,.18-.17.47-.48.83C147.38,107.24,147.48,107,147.87,106.51Z" transform="translate(-42.68 -38.56)"/><path class="cls-1" d="M141.88,111.66l-.22.21-.21.13Z" transform="translate(-42.68 -38.56)"/><path class="cls-1" d="M235.44,189c1.23,1.35-1.52-.54-2.76-1.09C233.92,188.48,234.6,188.22,235.44,189Z" transform="translate(-42.68 -38.56)"/><path class="cls-1" d="M226.26,183.62a16.33,16.33,0,0,0,2.86,1.73A12,12,0,0,1,226.26,183.62Z" transform="translate(-42.68 -38.56)"/><path class="cls-1" d="M234,187.41a45.15,45.15,0,0,1-4.9-2.06A35.42,35.42,0,0,1,234,187.41Z" transform="translate(-42.68 -38.56)"/><path class="cls-1" d="M199.59,172a11,11,0,0,0,2.65,1.47c1,.46,1.9.78,1.9.78-3.74-1.43-3.83-1.24-2.63-.49s3.61,2,3.86,2.33a20,20,0,0,1-4.26-2.44C200.47,173.09,200.24,172.64,199.59,172Z" transform="translate(-42.68 -38.56)"/><path class="cls-1" d="M205.67,165.9c-.52.51-1,1-1.36,1.4A10.6,10.6,0,0,1,205.67,165.9Z" transform="translate(-42.68 -38.56)"/><path class="cls-1" d="M207.24,163.77a12.45,12.45,0,0,1,3.76-2.43c-1.76,2.39-3.63,3.13-5.33,4.56C207,164.69,208.13,163.56,207.24,163.77Z" transform="translate(-42.68 -38.56)"/><path class="cls-1" d="M198.39,119.57l.42-.32.25-.17c.17-.09.32-.13.39,0l-2.39,2.17C195.75,122.19,197.83,120.15,198.39,119.57Z" transform="translate(-42.68 -38.56)"/><path class="cls-1" d="M186.53,128.6c-2.37,2.17-.65,1.55-1.95,2.55l-.53-.82Z" transform="translate(-42.68 -38.56)"/><path class="cls-1" d="M184.51,123.81l.77-.58-.83.72Z" transform="translate(-42.68 -38.56)"/><path class="cls-1" d="M176.05,140l2.32-.8C176.27,140.93,175.64,140.35,176.05,140Z" transform="translate(-42.68 -38.56)"/><path class="cls-1" d="M168,149.25l1.55-1.12c-1.45,1.33-2.86,2.68-4.28,4Z" transform="translate(-42.68 -38.56)"/><path class="cls-1" d="M157.19,159.8c-.09.18-.18.37-.28.54l-1.81,1.28-1.88,1.16A39.91,39.91,0,0,0,157.19,159.8Z" transform="translate(-42.68 -38.56)"/><path class="cls-1" d="M199.54,67.39c.5.23-.74,1.09-2.23,2.09s-3.28,2.13-4,2.76C193.77,70.55,197.83,69.67,199.54,67.39Z" transform="translate(-42.68 -38.56)"/><path class="cls-1" d="M294.12,133.72a38,38,0,0,0-3.33-5.64c1.63,1.95,1.82,2.26,1.95,2.61a6.88,6.88,0,0,0,.31.78l.41.84Z" transform="translate(-42.68 -38.56)"/><path class="cls-1" d="M179.85,178.39a.59.59,0,0,0,0,.28A.33.33,0,0,0,179.85,178.39Z" transform="translate(-42.68 -38.56)"/><path class="cls-1" d="M222,181.86h-.51C221.76,181.92,221.89,181.91,222,181.86Z" transform="translate(-42.68 -38.56)"/><path class="cls-1" d="M155.42,186.69s0-.05,0-.08l-1.62.84Z" transform="translate(-42.68 -38.56)"/><path class="cls-1" d="M278.75,245.06l-.13-.54A2.12,2.12,0,0,0,278.75,245.06Z" transform="translate(-42.68 -38.56)"/><path class="cls-1" d="M253.36,200a2,2,0,0,1,.66.33C253.77,200.09,253.55,199.93,253.36,200Z" transform="translate(-42.68 -38.56)"/><path class="cls-1" d="M140.47,189.73l.86-.17C141.22,189.44,140.89,189.47,140.47,189.73Z" transform="translate(-42.68 -38.56)"/><path class="cls-1" d="M122.44,210.86a.23.23,0,0,0,.11,0S122.5,210.82,122.44,210.86Z" transform="translate(-42.68 -38.56)"/><path class="cls-1" d="M130.27,203.43c.13-.19.26-.43.4-.67C130.46,203,130.18,203.31,130.27,203.43Z" transform="translate(-42.68 -38.56)"/><path class="cls-1" d="M130.84,202.43l-.17.33C130.8,202.6,130.9,202.47,130.84,202.43Z" transform="translate(-42.68 -38.56)"/><path class="cls-1" d="M121.41,225a5.72,5.72,0,0,0,.57-2.08Z" transform="translate(-42.68 -38.56)"/><path class="cls-1" d="M259.22,319.14l0-.22C259.14,319.06,259.17,319.12,259.22,319.14Z" transform="translate(-42.68 -38.56)"/><path class="cls-1" d="M119,222.58l.33-.44A1.63,1.63,0,0,0,119,222.58Z" transform="translate(-42.68 -38.56)"/><path class="cls-1" d="M152.43,180.73c.54-.73,2.23-1.14,2-1.46C153.74,179.74,152.52,180.09,152.43,180.73Z" transform="translate(-42.68 -38.56)"/><path class="cls-1" d="M255.14,341.75l-.44.34A4.12,4.12,0,0,0,255.14,341.75Z" transform="translate(-42.68 -38.56)"/><path class="cls-1" d="M118.58,223.09a1.29,1.29,0,0,0,.26-.08,1.33,1.33,0,0,1,.13-.43Z" transform="translate(-42.68 -38.56)"/><path class="cls-1" d="M184.34,345.39h0l.17,0Z" transform="translate(-42.68 -38.56)"/><path class="cls-1" d="M180.17,344c.3,0,.59.07.92.08A1.66,1.66,0,0,0,180.17,344Z" transform="translate(-42.68 -38.56)"/><path class="cls-1" d="M122,222.92l.33-1.2A5.37,5.37,0,0,0,122,222.92Z" transform="translate(-42.68 -38.56)"/><path class="cls-1" d="M139.12,322.32l.34.26A1.14,1.14,0,0,0,139.12,322.32Z" transform="translate(-42.68 -38.56)"/><path class="cls-1" d="M250.9,197.63c-.06-.09-.17-.2-.25-.3S250.54,197.43,250.9,197.63Z" transform="translate(-42.68 -38.56)"/><path class="cls-1" d="M280.85,218.41h0Z" transform="translate(-42.68 -38.56)"/><path class="cls-1" d="M279.46,216.91a3.67,3.67,0,0,0,1.39,1.5A4.13,4.13,0,0,0,279.46,216.91Z" transform="translate(-42.68 -38.56)"/><path class="cls-1" d="M258.68,190.45l0,0h0Z" transform="translate(-42.68 -38.56)"/><path class="cls-1" d="M264.9,196.28a1.35,1.35,0,0,0-.28-.5A2.35,2.35,0,0,0,264.9,196.28Z" transform="translate(-42.68 -38.56)"/><path class="cls-1" d="M290.32,240.57h0l0,0Z" transform="translate(-42.68 -38.56)"/><path class="cls-1" d="M277,210.86a.39.39,0,0,0-.17,0A.15.15,0,0,0,277,210.86Z" transform="translate(-42.68 -38.56)"/><path class="cls-1" d="M126.65,204.71a.56.56,0,0,0,0,.12C126.7,204.76,126.69,204.73,126.65,204.71Z" transform="translate(-42.68 -38.56)"/><path class="cls-1" d="M135.18,317.26a.36.36,0,0,0-.19.06A.33.33,0,0,0,135.18,317.26Z" transform="translate(-42.68 -38.56)"/><path class="cls-1" d="M259.35,190.47c-.47-.25-.92-.52-1.4-.75.25.23.49.48.73.73C258.76,190.35,258.89,190.27,259.35,190.47Z" transform="translate(-42.68 -38.56)"/><path class="cls-1" d="M286.07,229.1a1.85,1.85,0,0,0,.28.28C286.23,229.16,286.14,229.11,286.07,229.1Z" transform="translate(-42.68 -38.56)"/><path class="cls-1" d="M290.66,240.15c-.31-.81-.29,0-.34.42C290.44,240.56,290.57,240.51,290.66,240.15Z" transform="translate(-42.68 -38.56)"/><path class="cls-1" d="M234,176.73c-.26,0-.34.07-.34.14C233.82,176.89,234,176.86,234,176.73Z" transform="translate(-42.68 -38.56)"/><path class="cls-1" d="M160,177a2.24,2.24,0,0,1,.31-.05A.81.81,0,0,0,160,177Z" transform="translate(-42.68 -38.56)"/><path class="cls-1" d="M164.19,176.31a4.38,4.38,0,0,0,.76-.38A2,2,0,0,0,164.19,176.31Z" transform="translate(-42.68 -38.56)"/><path class="cls-1" d="M249.85,185.35a2.32,2.32,0,0,0,.76.3A1.46,1.46,0,0,0,249.85,185.35Z" transform="translate(-42.68 -38.56)"/><path class="cls-1" d="M165.71,175.49c.34-.1.66-.23,1-.3,0,0,0-.07,0-.11C166.36,175.19,166,175.35,165.71,175.49Z" transform="translate(-42.68 -38.56)"/><path class="cls-1" d="M158.72,177.52c.38-.16.89-.4,1.24-.5A2.51,2.51,0,0,0,158.72,177.52Z" transform="translate(-42.68 -38.56)"/><path class="cls-1" d="M206.77,170.86h.12C207.72,170.7,207.2,170.73,206.77,170.86Z" transform="translate(-42.68 -38.56)"/><path class="cls-1" d="M169.79,173.11l.14,0,.25-.25Z" transform="translate(-42.68 -38.56)"/><path class="cls-1" d="M154.48,179.27a1.86,1.86,0,0,0,.42-.33,3.37,3.37,0,0,0-.56.21A.29.29,0,0,1,154.48,179.27Z" transform="translate(-42.68 -38.56)"/><path class="cls-1" d="M191.05,169.72c-.28.23-.38.4-.38.51C191,170.18,191.23,170.08,191.05,169.72Z" transform="translate(-42.68 -38.56)"/><path class="cls-1" d="M126.65,204.71a.56.56,0,0,0,0,.12C126.7,204.76,126.69,204.73,126.65,204.71Z" transform="translate(-42.68 -38.56)"/><path class="cls-1" d="M295.68,266.24a14.47,14.47,0,0,0-.6-2.64,13.93,13.93,0,0,1-1.05-5.86l.17.45c-.34-.9-.43-2.63-.58-2.64-1,.76.63.92.14,2.59-.87-.1-.62-2-1.27-1.84.21-1.26-.3-2-.48-3,.3-1.88-.37-4.46,0-5.94a11.06,11.06,0,0,1-1.85-3.56c.35-1.5.71.18.53-1.72l-.56-.18c-.27-1.53-.08-1.33.16-1.33-.34-1.63-1-1.16-1.25-3.25l.79,1a34.65,34.65,0,0,1-1.29-4.13c.29,0,.57.78.64,1.42.4-1.35-.93-1.81-1-2.43-.15.24.23,1.67-.47,1.14-.26-1-1.37-1.91-1.05-2.82l.83.93c-1.08-2-.95-.91-1.69-3.33.09.11.18,0,.3,0a6.16,6.16,0,0,1-1.26-2.46c-.35-1-.67-2-1.13-3.13l.31.36c-.56-.81-1.17-1.1-1.37-1.57.32,1.34,0,1.08-.37,1.39,0-2-2.05-2-2.92-4.74.29-.11.91.35,1,1.19,1.2.49,1.91.27,3.08,1.68-.69-.9-1.39-2-.94-1.93l-.86.06c-.33-.59-.53-1.08-.76-1.53-.57,0-.1,1.58-1.1.38-1.08-1.37.25-1.19-.19-1.25-1.46-1.91-1.23-.43-2.14-2.54.17.16.51.48.54.68-.54-1.58-2.27-3.32-1.72-4.26.31.09.58,0,.85.55L277,212c1.46,1.08-.62-.85-.12-1.13-.46-.14-1.46-1.76-1.94-2.55l-.28.61c-3.45-1.81,1.08-.55-1.18-3.2-1.68-1.49.38.76-.78-.06-.85-1.21-.74-2-2.35-3.52-.22-.6-.8-1.75-.38-2.26-1-.86-2.54-3.2-3.52-3.31,1.15,2,2.12,1.14,3.22,3.74l-1-.14c-1.18-1.41-3.07-2.84-3.76-3.93.08.27.05.47-.16.45a20.07,20.07,0,0,0-2.48-1.69,12.21,12.21,0,0,1-2.25-1.83c.14-.65,1.2.38,2,1.1-.86-1.48-1.23-1.18-3-3,.23-.47,1.27,1.15,1.82,1l-2.23-1.72a.24.24,0,0,0,.06-.08c-.83.37-1.61-1.41-3.12-2.27a9.12,9.12,0,0,0-3.72-1.93c-1-.24-1.81-.3-2.94-.6-.37-.51-.4-.79-.07-.83.62.85.64.5,1,.5-1.18-.65-2-2.31-1.23-2.19-2-1,.42.8-.84.31l-1.24-.83-1.27-.76c.08.55.93,1.15-.56.67-1.18-.52-1.65-1-3.13-1.75.32-.08-.16-.84,1-.23a3.78,3.78,0,0,0-2.42-1c1.46,1.19-2.85-1-1.93.2-.48-.41-1-.76-1.49-1.14.38.18.55-.06,1.07.27-.19-.81-1.45-.45-2.06-.65-.53-.38-2-1.14-2.08-1.41a3.22,3.22,0,0,1-2-1.11c-.86-.2-.22.38-.53.48-.9-.38-1.81-.75-2.74-1.06,0-.4.07-1.44.54-1.43-1.18,0-.73.9-2.32.32,1.14-.36-2-1.24-.37-1.59-.77-.8-3.5-1.55-5-1.77-.53.17-.14.33.34.54s1.07.48,1,.74a9.33,9.33,0,0,0-2.59-.28,12.41,12.41,0,0,0-1.79.18,7.52,7.52,0,0,1-3.43-.12l.76.3a7.44,7.44,0,0,0-2.92.24c.31-.3-.14-.9-1.09-1.41a11,11,0,0,0-4-1.08c-.3.32,1.71.91,1.12,1.41-.7,0-1.4-.13-2.1-.13-.15-.07.09-.17.37-.24-1.9.11-3.45-1.2-4.05-.41-.62-.4-1.25-.74-1.88-1.12l.75.47c-.28.35-2.41.4-2.85.53a10.69,10.69,0,0,1-2.44.14,7.09,7.09,0,0,1-1.71-.45c.39.29,1.33.93-.35,1.09,0-1.15-3.59-.33-3.57-.88-.69.08-1.94-.16-2,.33l.05-.73c-.07,1-2.57,1.2-4.45,1.64.23-1.43-2.06.46-3.11-.63-.2,1-3.33.92-3.48,1.84-1.43.39-1.48-.49-1.92-.69l-.59.5a7.34,7.34,0,0,0-2.32.09c-1,.11-2.09.42-2.94.51l-1.24,1.25-.66-.18c-.18.27-1.36.77-.5.82l-.81.21c.22.84-1,.64-2.44,1.6-.41,0-.39-.23-.09-.48-.78.3-.62-.26-1.15-.38.62,0-2.18,2.58.05,2.15.27.28-.82,1-1.63,1.14l-.77-.53-.53,1.18c-1.09.64-1.79.4-2.76.75.92-.48,1.47-2.4-1-1.22a12.74,12.74,0,0,0,2.33-1.88c-.53.21-.83.26-.16-.43-1.86,1.15-.45.76-2.34,1.76-.2-.68-.88-.7-2.65,0,.49-.07,1-.14,1.49-.17a.6.6,0,0,1-.16.29c.52-.16.71-.12.93.08a7.56,7.56,0,0,0-1.12,1c-.45.44-.92.83-1.18.72,2.39,0-2.83,2.56-1.31,2.49-.11.3-1.36,1-1.68.8.63-.65.24-.67-.32-.6s-1.23.31-1.24,0c-.45.53,1.45-.29.84.42a5.42,5.42,0,0,1-2.37.77l.3-.36-1.55.61c0,.45,1.66-.33.5.63-.42.09-1.58,1.05-1.7.79.33-.8-.48-1.06.54-1.87-.92.57-3.62,2.68-2.11,2.42l-1,.73c.83-.23,2.93-1.09.94.49l-.06-.13-1.1,1.48-.84.15c.13.14,0,.43-.52.81-.27-.08-.81.23-.95,0-1.43,1.24-1.08,1.43-1.13,1.75-.78.71-1.18.85-1.08.21-.58.43-1.35,1.07-2.09,1.64a8.83,8.83,0,0,1-1.89,1.37c-1.18,1.58.39-.16-.09,1a3.76,3.76,0,0,0-1.7.78,9.78,9.78,0,0,0-1.81,1.7c-1.17,1.37-2.37,3-3.34,4.21,1.32,0-.31.7-.08,1.72,0,0,0,0,0,.12a.56.56,0,0,1,0-.12c-.29-.18-2.36,1.68-1-.44l-1,1.39c-1.21.53,1.41-2.47-.34-1.63-1.18,1.53-1,3.2-2.64,4.81-.2-1.07-.79,1.56-1.17.61a4.26,4.26,0,0,1,.8-1.57l-.35.23c-2.63,3.32,0,1.53-.78,3.62-1.32,2.16-1.58,1.36-2,1.27a5.65,5.65,0,0,0-1.09,2.1c.41-1.58,1.93-2.19,2-1.31-1.34.47-2,3.17-2.09,3.92,2.69-2.58,1.35-2.11,4-4.43,0-.54-.68-.91.76-2.38-.41,1.26.42.18.73,0-.6,0,.65-1.25.85-1.86.62-.23.16,1.6,1.48.06l-.64-1c.63-.52.41.74,1.27-.73-.11,1.06.83.3-.39,2.22,2.36-1.58,2.19-3.53,3.22-5.46-.09.21,0,.33-.07.54a4,4,0,0,1,1-1.65c1.13-.86-.38,1.14.09,1.07l1.5-1.67c.05,0,.08,0,.09,0,.29-.54.61-1,.94-1a12.74,12.74,0,0,0-.21,1.68l1-2.24c.09.43,1.76-1,.81.42.75-.88,1.58-1.67,2.37-2.52l.71.33c.51-.66.43-.78-.35-.16a18.81,18.81,0,0,0,1.9-2.34c.72-.81,1.38-1.36,1.61-.62,1.68-2.18,2.55-2.68,5-4.88-1.63,2,2.82-1,.86.81,1.44-.64,1.21-1.52,2.18-2.28,1.14-.36,1.1.51.22,1.39l1-1,.06.13.83-1c1.33-.38.63.47,1.84-.18l-.09-.71,1-.18c-.45-.08.18-.61,1-1.13l0,.14,1-.69c-.86.92,1-.41.78.26a27.05,27.05,0,0,0,2.52-1.48l-.49-.25c2-1.39.39.54,2.18-.26l-.33-.41a8,8,0,0,0,3.45-1.45,7.65,7.65,0,0,1,2.94-1.24c-1.08.55-.58,1-.61.84.8-.41,1.9-.85,3-1.35a15.73,15.73,0,0,0,3-1.48c.87.49,1.09.66,3,.4,1.33-.37,1.51-.48,1.85-1,1.37,0,3.73-1.05,3.9-.54.23-.47,1.21-.12,1.87-.59l.19.19-.2-.49a4.81,4.81,0,0,0,3.2-.31,4.83,4.83,0,0,1,3.22-.25l-.4.17,1-.3c.18.21-.22.39-.23.68,1.55-.12,3.09-.3,4.65-.27l-.94-.35c1-.08,1.63-.6,2.77-.32-1.85.82,1.56,0,1.87.55l-1,.23c1.37-.09,1.37-.09,1.25-.6,1.79-.18,1.21,1,2.86.47l-1.17,0c-.34-.3.51-.7,1.29-.67.19.09.73.33.14.38,1.41-.2,3.49.24,4.12.09.75.21.47.55,0,.66,3-.22,1.33.18,4.35.11l-.09.28,1.07-.22c.45.27.91.52,1.35.82l-.45-.46a11.43,11.43,0,0,1,2.71.39l-.53.34c2.77.23,3,1.34,5.64,1.32.16.12-.27.16-.49.18,2.52-.09,1.56,1.21,4.12,1.06-.18.1,0,.34-.11.43l1.14,0-.25.53,1.11-.52.46.78.49-.13a2.87,2.87,0,0,0,1.73,1.28,5.29,5.29,0,0,1,2,1.29l0-.78c2.18,0,4.24,1.2,6.29,2.51,1,.7,2,1.42,3.07,2.08a16,16,0,0,0,3.24,1.79l-.38.45c.7.14,1.37.33,2.06.5.66,1-.81.06-.68.5,2,.9,1.23-.27,3.4,1,.82,1.07-.59.07-1.22-.07,1.05.53,2.31,1.27,3.48,2a14.25,14.25,0,0,1,2.7,2.21c.07,0,.22-.06.17-.14a10.29,10.29,0,0,1,2.09,1.61c.68.64,1.37,1.29,2,1.86-.2.16-.55-.09-.91-.33.45.42.92,1.15,1.5,1.32l-.81-.08c.88,1,3,2.4,2.81,3.05.05-.27.4-.53,1.17.32-.1.53.5,1,1.24,1.6a7.28,7.28,0,0,1,2,2.14c-.31,0-1.22-1-1-.72a4.48,4.48,0,0,0,2,1.63l-.44,0,3,3.05c-.34,1,2.45,3.21,1.75,3.35.84,1.27-.4-1.28.77.26,0,.64,1.09,1.37.57,1.62l-.17-.14.76,1.11-.93-.41c.72.9,1.67,1.32,2.05,1.15.28,1.12,1.28,2.35,1.08,3l-.32-.28a10.16,10.16,0,0,1,1.35,3.79,5.89,5.89,0,0,0,1.47,3.16c0,.2-.14.24-.28-.11l.74,1.73-.58-.24c.63.85,1.17,1.75,1.77,2.63l-.28.07,1.24,3.51c.24.66.51,1.32.73,2s.43,1.33.63,2l-.24-.34c1.24,2.66.45,2.75,1.25,4.73a.43.43,0,0,1-.17-.19c.14.62.3,1.23.43,1.85q-.17-.18-.36-.36c.88,1.27-.09,4.08.28,3.14.43.72.94,2,1.31,2.22.29,2.05-.3.55-.39,1.85.18,1.48.66,1.7.56,3.75l-.29,0a22.3,22.3,0,0,1,.46,2.83l-.15-.39c.64,2.15-.74,2.69.48,4.38-.26.9-.12,2.63-.69,2.52.18,1.35.15,2.54.2,3.74s0,2.4-.06,3.74c-1,.3,0,.58-.76,2.1l.52,0c-.54,3.78-2.71,7.72-3.71,11.7l-.52-.05.27,1c-.42,1-.83,2.15-1.3,3.28l-1.48,3.36L272,298.76c-.48,1-1,1.87-1.38,2.66a11.91,11.91,0,0,1-1.71,4.51l0-.21a48,48,0,0,1-2.36,4.38c-.48.71-1,1.41-1.48,2.11a18.84,18.84,0,0,1-1.67,2c0-.3-.37-.12-.24-.51-.07,1-1.25,1.63-1.72,2.21l.84-.45a3.17,3.17,0,0,1-2.15,2l-.63,1.55c-.1.05-.27.12-.34.08v.39l-1.07.16c-.17.37-1.48,2-1.48,2.93-.27-.05-1.47.84-.72,0-1.44,1.28-2.86,2.57-4.39,3.75l.84-.41c.43.31-.69,1.7-1.52,2.12.63-1.1-.39-.61-1-.6-.44.7.82-.07.68.4a8.19,8.19,0,0,1-2.67,2.46l.34-.53c-.93,1-2,.61-3,1.41-.73,1-1.66,1.22-1,1.8-1.36,1.08-.89-.14-1.4.09-.46.78-2.62,1.87-3.12,1.61-.08.78-1.15,1.26-2.15,1.67s-2,.69-1.9,1.26l-1.52.1c.08.26.14,1-.86,1.59-1.12.16-1.1-.4-1.52-.54l-.22,1.28c-3.07.77-6.46,1.92-10,2.93-1.77.47-3.55,1-5.34,1.26a31.15,31.15,0,0,1-5.25.59c-1.46.39-3.13.71-4.87,1.1-.88.14-1.77.25-2.67.35a17.34,17.34,0,0,1-2.68.15l.38-.15-3.51-.2,2.56.43a12.13,12.13,0,0,1-2.11.37c-3.89-.44-8.93-1.27-13.69-1.48-1.61.34-2.08,0-2.5-.42a2.51,2.51,0,0,0-2.35-.71c.27-.06.4-.21.65-.28-3.17-.28-4.87-.52-8.14-.77.72-1-2-.64-1.5-1.16l-.41.39a11,11,0,0,0-1.23-.8c-.4-.27-.69-.51-.52-.64l-1.52.07.07-.52c-.43-.18-1-.38-1.6-.6s-1.24-.53-1.85-.82c-1.23-.57-2.29-1.23-2.47-1.93a32.82,32.82,0,0,1-7.52-3.61l-2-1.28c-.65-.43-1.27-.92-1.9-1.38s-1.25-.92-1.83-1.41l-1.7-1.42a4.94,4.94,0,0,1-1.58-.77c-.56-.4-1.15-.88-1.66-1.3l-.65-1.37A13,13,0,0,0,141,324l-4-1h-1.75a.82.82,0,0,0-.46.13l-1.47.87-2.79-.84a.9.9,0,0,0-.91.24l-.56.6-3.83-.94a.8.8,0,0,0-.46,0l-1.91.55a.9.9,0,0,0-.44,1.43,110.91,110.91,0,0,0,10,10.79,82.27,82.27,0,0,0,16.2,12c-1.73-1-.45-1.45.7-.5a9.34,9.34,0,0,0,4.58,3.24,16.6,16.6,0,0,1,5,2.62q2.7.91,5.2,1.95c1.7.61,3.34,1.32,5,1.89a30.46,30.46,0,0,0,10.31,2l0,.52c1,.42,1.34.12,2.44.26l-.05.14a23.73,23.73,0,0,0,4,.49,30.25,30.25,0,0,1,3.2.3l.14-.57c1.54.07.77.51,2.37.3l-.06.29c.62-.13,1.25-.28,1.87-.46-.22,1,4.35.25,5.58.6l4-.48a46.79,46.79,0,0,1,4.77-.45c.61.42,4.33.06,6.71-.17a142.56,142.56,0,0,0,16.57-4.55l-.33-.58,1.41-.6c0,.15.25.14.06.29,1.38.25,3.23-1.48,4.52-1.6-1-.24-1,.38-1.84.68-1.3.15-.39-.81,1.26-1.23l0,.15.92-.79c.32.42,1.38.2,1.72.6,4.54-2.33,7.16-4.7,11.63-7.34-.07.38.7-.15,1.44-.61s1.42-.91,1.28-.2c2.35-2.13-.88-.36-.12-1.76.72-.49,1.3-1.24,1.64-1-.19.43.94.07.41.56.57-.42,1.08-.89,1.62-1.33.2-.06-.07.33-.22.53a36.14,36.14,0,0,1,4.57-3.68c.75-.54,1.5-1.07,2.19-1.66a15.66,15.66,0,0,0,1.92-2.05c0-.45-1.17,1-1.21.53,2.28-3.15,2.88-1.92,5-4.87l-.15.88a6,6,0,0,1,2.12-2.91c.66.13-.7,1.55-1.12,2.42.91-1,3-3.6,1.89-3.17a7.78,7.78,0,0,1,2.28-2c-.09-.11-1.21.91-.85,0a30.66,30.66,0,0,0,2.59-2.85l2.51-3.39c.1.1.39.07.31.3.53-2.18,1.49-1.29,2.93-3.83,3.91-6.78,7.37-16.27,9.61-23.59a9.71,9.71,0,0,1,.13-3c.17-1.1.36-2.3.56-3.5l1.05,0c0-.68.11-1.36.11-2.05.45-.76-.1,1.58.54.21l-.48-.88c.39-.08,1.15-5.12,1.28-1.62.25-1.3.43-2.62.59-3.94s.36-2.63.44-4c.16-1.75-.77-1.09-.37-3,.32-.38.15.7.53.57A10.59,10.59,0,0,0,295.68,266.24Z" transform="translate(-42.68 -38.56)"/><path class="cls-1" d="M142.12,217.85v-.17A.48.48,0,0,0,142.12,217.85Z" transform="translate(-42.68 -38.56)"/><path class="cls-1" d="M135.77,216.84l.07-.09C135.79,216.76,135.78,216.79,135.77,216.84Z" transform="translate(-42.68 -38.56)"/><path class="cls-1" d="M145.91,218.27a.08.08,0,0,1,0,0l.27,0Z" transform="translate(-42.68 -38.56)"/><path class="cls-1" d="M122.28,215.8h.08S122.3,215.77,122.28,215.8Z" transform="translate(-42.68 -38.56)"/><path class="cls-1" d="M130.28,216.51a.22.22,0,0,1-.11.12C130.23,216.64,130.27,216.63,130.28,216.51Z" transform="translate(-42.68 -38.56)"/><path class="cls-1" d="M148.05,222l-.12-.25C147.94,221.86,148,222,148.05,222Z" transform="translate(-42.68 -38.56)"/><path class="cls-1" d="M151.84,220.91a.13.13,0,0,0,0-.06A.07.07,0,0,0,151.84,220.91Z" transform="translate(-42.68 -38.56)"/><path class="cls-1" d="M150.31,219.91s-.07.07-.11.11S150.31,220,150.31,219.91Z" transform="translate(-42.68 -38.56)"/><path class="cls-1" d="M150.15,220.09a.18.18,0,0,0,0-.07S150.15,220,150.15,220.09Z" transform="translate(-42.68 -38.56)"/><path class="cls-1" d="M73.48,217.86c-.11,0-.2.19-.29.35Z" transform="translate(-42.68 -38.56)"/><path class="cls-1" d="M110.09,215.85l0-.1A.18.18,0,0,0,110.09,215.85Z" transform="translate(-42.68 -38.56)"/><path class="cls-1" d="M73.43,220.08l-.08-.06S73.4,220.08,73.43,220.08Z" transform="translate(-42.68 -38.56)"/><path class="cls-1" d="M146,222.71c-.1.25-.34,0-.32.2C145.83,222.87,146,223.05,146,222.71Z" transform="translate(-42.68 -38.56)"/><path class="cls-1" d="M107.87,225.29h-.07S107.86,225.3,107.87,225.29Z" transform="translate(-42.68 -38.56)"/><path class="cls-1" d="M73.43,220.08l.09,0,0-.12A.14.14,0,0,1,73.43,220.08Z" transform="translate(-42.68 -38.56)"/><path class="cls-1" d="M97.41,216h0s0,0,0-.05Z" transform="translate(-42.68 -38.56)"/><path class="cls-1" d="M96.72,215.56l.15-.08A.12.12,0,0,0,96.72,215.56Z" transform="translate(-42.68 -38.56)"/><path class="cls-1" d="M73.19,218.21l-.17.2A.43.43,0,0,0,73.19,218.21Z" transform="translate(-42.68 -38.56)"/><path class="cls-1" d="M89.49,216.05l.06,0S89.5,216,89.49,216.05Z" transform="translate(-42.68 -38.56)"/><path class="cls-1" d="M130.79,216.65l.06,0C130.86,216.64,130.85,216.6,130.79,216.65Z" transform="translate(-42.68 -38.56)"/><polygon class="cls-1" points="83.36 184.8 83.35 184.8 83.35 184.8 83.36 184.8"/><path class="cls-1" d="M126.29,223c-.09,0-.2.13-.26.31C126.12,223.35,126.19,223.3,126.29,223Z" transform="translate(-42.68 -38.56)"/><path class="cls-1" d="M125.45,223.24l0,0Z" transform="translate(-42.68 -38.56)"/><path class="cls-1" d="M130.85,223.64v0Z" transform="translate(-42.68 -38.56)"/><path class="cls-1" d="M129.79,223.7a.24.24,0,0,0-.08-.11A.24.24,0,0,0,129.79,223.7Z" transform="translate(-42.68 -38.56)"/><polygon class="cls-1" points="80.15 185.43 80.15 185.42 80.14 185.42 80.15 185.43"/><path class="cls-1" d="M112.85,226a13,13,0,0,1,3.3-.56c.19-.52.51-.54.83-.66l0,.68.26-.22c.12.2-.2.13,0,.38l.09-.42c0,.24.69.15.26.64h1c.23,0,.11-.57.37-.41.06.2-.08.14-.05.39.77.49.82-1.34,1.54-1l-.06.09c.12-.18.35-.16.35-.26-.12-.69-.12.37-.35,0,0-.58.26-.31.23-.75.17.2.26-.13.4-.16.26.36.6.09.81.54.11-.18.22-.75.48-.78.2.45,0,.43.23.6l0-.34c.21.05.18.14.18.3.22,0,.16-.46.45-.25l-.14.33c.2-.13.28-.08.57-.05,0,.19-.11.18-.2.12.17.5.26-.21.34-.16,0-.15-.23-.21-.14-.54.14.06.28-.46.4-.07l-.14.33c.28-.27.14-.42.48-.3,0,0,0,.11,0,.18.2-.43.5-.05.82,0l-.06.09c.12-.12.18-.42.25-.39-.18-.19-.14-.29-.17-.62.26.55.34-.64.75-.32,0,.19-.09.43-.2.22-.12.57-.11,1.06-.34,1.32.14-.13.31-.21.29,0l0-.53c.09,0,.16,0,.23,0,0-.33-.2-.54,0-.76s.14.54.17.3c.32-.22.11-.57.43-.4,0,0-.09.14-.11.09.23.21.54-.11.63.53,0,.14,0,.33-.12.28v-.1c-.22.47.2-.13.15.45,0-.34.29-.27.43-.21l-.06-.39c.43-1.17,0,.77.46.62.29-.27-.11-.11.06-.39.2.07.29.41.57.24a1.5,1.5,0,0,1,.29.79c.17-.17.55.19.63-.23-.31-.37-.28.46-.66-.11l.09-.42c.24,0,.55-.2.72,0a.45.45,0,0,1,0-.28c.35-.17.43-.6.77-.47.06.39-.14.32-.28.36.23.31.23,0,.57.14,0,.34-.23,0-.25.32l.37-.11v.06c0-.57.29,0,.51-.12.55,0,.6-.77.89-1.24a.63.63,0,0,1,.09.45c-.15-.25-.12-.06-.16.09.18-.06.43.56.33.79.29-.17-.11-.3.06-.48l.4,0c-.06-.29-.2-.35,0-.58s.26,0,.48,0c0,.15.09.44-.08.43.12.11.29.12.34-.17-.26-.26.4-.25.2-.7l.26.26c-.06,0-.06.19-.14.13.09.44.2-.13.28-.17s.32.12.35.29c.07-.12.27,0,.32.2.11-.09,0-.29,0-.44l.4,0a4.56,4.56,0,0,1,0,1c.14-.23,0-.72.25-.7-.11.47.32.36.15.93a.49.49,0,0,0,.72.2c.11-.38-.23-.21-.23-.6.57-.15.56-1.21,1-1l-.11-.11a.83.83,0,0,0,.37-.5c-.05.48.35,1.28.78,1.17,0-.24-.26-.45-.2-.83l.28-.08a.22.22,0,0,1,0,.18c.25-.17.51.62.56.06l.29.69-.12-.29c0-.24.32-.32.37-.41.29-.27.41-.06.58.24-.06-.2-.21-.64,0-.72,0,.77.5.28.51.68.1,0,.27.23.27-.09v.48c0-.67.34-.65.6-.77,0,.91.29-.08.44.75,0-.62.45-.25.48-.78.2,0,.2.55.26.75l.09-.24c.11.29.49.33.72.53l.19-.55.09.25c0-.14.2-.23.08-.43l.12,0c0-.6.15-.17.37-.43a.33.33,0,0,1,0,.32c.11,0,.08.32.15.51-.09-.15.36-1.07.05-1.34,0-.24.14-.43.26-.32l.08.54.12-.57c.17-.08.26.26.4.32-.14,0-.28,1,.09,1-.19.07-.28.37-.38.49.08,0,.12.07,0,.3.29-.17.08-.33.37-.4,0,.48.09.63.35.79l-.2-.35a.23.23,0,0,1,0-.13c-.08,0-.1-.13-.12-.31.06,0,.31-.6.37-.31-.32-.75.48-.59.28-1,0-.14.23-.17.26.07-.23.37.2.55.18.88.08-.14-.21-.35-.09-.54.14,0,.26.27.34.42l-.05.09.23.21c0-.24-.23-.4,0-.53,0,.1.25,0,.26.16s0,.77-.17.86c.14,0,.6-.1.39-.55h.18c-.12-.2-.43-.56-.09-.63v.1l.23-.37.11.25c0-.13,0-.24.12-.23s.11.2.11.39c.26,0,.23-.27.26-.41s.2.06.14.35c.2.06.55,0,.69.24.26-.22-.05-.1.09-.43.26.84.89.32,1.32.2-.15-.73.11-.08.17-.75-.09.23.43.56.06.77l.23-.08c.17.41-.37.31-.12.86.26,0,.4-.83.72-.57-.08.53.23-.17.17.4,0,.19-.14.14-.23.18l.06.1c.58.14.14-.62.43-1,.34-.07.29.41.32.65s.23,0,.31-.12c-.2.32-.4-.32-.32-.65.18.59.52,0,.61-.19-.52-.62-.35,0-.84-.7-.06.19,0,.72-.31.51.16-.27,0-.3-.08-.38.07.3-.19.13-.27.26-.08-.25.14-.71-.14-.83l0,.72c-.12-.11,0-.53-.2-.36.11-.37-.06-.58.25-.7-.4-.61-.57.34-.85.61a1.33,1.33,0,0,1,.05-.19c-.05.19-.17.18-.26.22-.2-.16.15-.33.09-.52l-.32,0a.43.43,0,0,0,0,0c-.08.1-.15.16-.19,0a6,6,0,0,0,.17-.67l-.31.51c0-.24-.29-.41-.06-.58l-.49.1-.06-.48c-.11.09-.11.18,0,.24-.17-.11-.71.86-.66-.1-.37.41-.51.25-1,.5.34-.45-.43-.56-.06-.77-.23-.21-.26.31-.43.4a.81.81,0,0,1,0-.87l-.2.23v-.1l-.17.28c-.2-.26-.06-.49-.26-.55l0,.43-.15-.25c.06.19-.05.28-.2.32v-.1l-.17.09c.16-.27-.16-.09-.1-.4-.15,0-.15,0-.42.07l.06.29c-.34.26,0-.44-.32-.46l0,.34c-.43-.56-.68.33-1,0,.17-.08.11-.47.11-.38-.25.13-.69,0-.94.46-.12-.49-.15-.64-.43-.86-.21,0-.23.08-.29.37-.2-.19-.56.1-.58-.26,0,.29-.18,0-.28.19l0-.15,0,.34c-.38-.75-.57.44-1-.22l.06-.09-.14.14a2.32,2.32,0,0,1,0-.44l-.68-.05.14.25c-.14,0-.23.37-.4.16.25-.51-.23,0-.29-.4l.14-.14c-.2,0-.2,0-.17.38-.25.12-.2-.65-.43-.28h.17c.06.2-.05.48-.17.47s-.11-.2,0-.24c-.2.13-.51,0-.6.1a.42.42,0,0,1,0-.44c-.43.3-.2-.06-.63.24v-.19l-.14.23-.23-.41.08.25c-.14,0-.22.18-.4.07l.06-.29c-.4.16-.49-.47-.86-.07,0-.05,0-.14.06-.18-.35.45-.29-.51-.64,0a2.71,2.71,0,0,0,0-.29l-.16.18v-.38l-.11.57-.12-.4,0,.19c-.21-.74-.44-.18-.7-.73l.06.49c-.57,1-1.4-.55-2.12-.07v-.39l-.29.46c-.17-.3.09-.33,0-.53-.31.22-.11.57-.48.69-.21-.26,0-.28.14-.42-.35.19-.86.41-1.12.2a.64.64,0,0,0,0,.14c-.23.18-.54,0-.8,0,0-.18.06-.21.12-.25s-.22-.14-.29,0l.08-.33c-.2-.07-.57.24-.63-.15,0,.15,0,.44-.14.43-.12-.59-.46.25-.75-.06,0-.14.23-.18.17-.18-.14-.16-.25.12-.37.31l0-.24-.63.33c-.12-.58-.6.1-.57-.33-.23,0,.2.26-.09.33-.09-.25-.26.12-.26-.26l0-.05-.2,0,.11-.38c-.17.08-.28.46-.28.75-.17-.21-.4,0-.49-.38l.06-.09c-.46.16-.81-1-1.15-.38,0-.05,0-.15,0-.14l-.29,0,.06-.29-.46.45v-.2a4,4,0,0,0-1.21.1l.06-.09c-.43.3-.43-.18-.75,0,0,0,0-.07,0-.08H122l.05-.19c-.2.42-.63-.53-.48-.18a1.71,1.71,0,0,0-.35.65c-.31,0-.08-.25-.28-.41s-.26.32-.58.15v-.2c-.14,0-.23.18-.43.21l.06-.09c-.31.41-.43-.56-.66.28-.14-.15-.4,0-.4-.41a5.73,5.73,0,0,1-1.12.54c-.09-.64-.08,0-.34-.32l0,.34c-.58,0-1.27-.78-1.9-.63l0-.34-.11.38a11.7,11.7,0,0,0-2.13-.27c-.17.18-.42.6-.71.48l0-.05a2.08,2.08,0,0,1-1.55.17c0-.14,0-.24,0-.34-.12.38-.32,0-.43,0l.14.25c-.14.33-.37,0-.46-.23l-.23.37a.72.72,0,0,1,0-.14l0,.18-.15-.44c0,.09-.37.21-.45.64,0-.15-.26-.26-.09-.35l-.89-.12.14.16c0,.34-.22.56-.37.41.17-.28,0-.49-.09-.74-.11.19.12.3.06.49s-.45.35-.54.2l.08-.14c-.2.13-.31-.46-.51-.43-.17.28-.32,0-.26.61-.26.13-.11-.39-.2-.45-.11.28-.49.11-.55-.19-.11.86-.71-.29-.74.43l-.23-.4c0,.19,0,.62-.2.7-.17-.2-.15-.54-.2-.74l-.09.72c-1-.75-2.21-.22-3.27-.84a3.4,3.4,0,0,1-1.57.41l0-.09-.54-.19.4.32c-.11.09-.2.23-.32.22a2.35,2.35,0,0,0-2.11-.26c-.44.83-.34-.73-.77-.12,0-.08,0-.19.07-.28a4.81,4.81,0,0,0-1.2.92c0-.81-.31,0-.29-.4l0,.33c-.12-.2-.38-.27-.35-.51l-.2.42,0-.34c-.29,0-.89.27-1.06-.42a3.86,3.86,0,0,1-2.7.27c-.11.28-.37.31-.57.34l-.23-.4c-.2.13-.4.64-.6.38a.25.25,0,0,1,0-.1c-.21.09-.41-.13-.59.25a.49.49,0,0,1-.41-.61c0,.68-.49-.08-.49-.08s-11.79-1.45-14.52,2.25c-.08.34-.34.56-.22.95-.21.13-.32-.46-.35-.12.29.21,0,.86.24,1.27L73,220c0,.24.23-.27.2.16l0-.62a.66.66,0,0,1,.29.43c.12-.25.17-1.09.51-.73l-.09,0c.26,0,.17.4.23.5h0l.23.31c-.18-.21-.43.3-.29.26.32.17-.09-.15.14-.23s.12.3.12.49l.26,0c0,.29-.18,0-.06.29l.32-.31c.08.73.34-.36.51.33-.23.17,0,.24,0,.48l.58,0c.06.1-.15.23-.06.19.12.2.17-.18.23-.18.06.2.43,0,.43.47.4.32.14-.62.52-.35.06.3-.29.08-.12.38l.38-.12c0,.15-.06.48-.2.42,1,.37,1.64,1.91,2.56,1.5.14.35-.09.24-.18.47.66-.47,1,.76,1.56.7v-.28c.83.88,1.77.33,2.69.69l-.11-.2c.11-.28.31-.32.46-.45,0,.15-.09.62.17.5-.06-.11-.17-.21-.15-.35.81.74,2.44.52,3.73.87,1.72-.25,3.62.28,5.31.08-.26,0-.17-.69,0-.53.58,1.2.91-.22,1.49.6,1-.41,1.9.63,2.78-.32l0,.35c.14.15.17-.09.32-.12v.09c.34.12.74-.23.94-.07v-.38c.2,0,.12.29.32.07v.19l.23-.37c0,.68.57,0,.74.35.26-.12.75-.42,1.15-.3.09.35.57.34.89.51a7.69,7.69,0,0,1,2.24-.11l0-.44.19,0c0,.09,0,.14,0,.19.17.49.45-.16.63.14-.12-.39-.15-.06-.26-.06-.17-.21,0-.63.2-.42v.09l.14-.23c0,.34.17.5.21.84.65-.09,1.08-.69,1.77-.54,0,.38.49-.1.38.56.4-.25-.09-.53.08-1,.11,0,.23-.18.26.07s.1.4,0,.46l.28-.06c0,.05,0,.15-.06.19.54-.39,1,.42,1.49,0,0-.24-.2-.06-.17-.3.48-.49.46.42.91.07l-.08.33c.14-.23.2-.51.46-.25.06.39-.2.32-.32.51.18,0,.61-.1.46-.45.2-.13.29.21.4.32,0-.1-.2-.26-.08-.44a2,2,0,0,0,1.06.23c0,.09,0,.24,0,.29C112.47,225.24,112.48,226.1,112.85,226Z" transform="translate(-42.68 -38.56)"/><path class="cls-1" d="M131,223.7l-.14-.06a.41.41,0,0,1-.06.28Z" transform="translate(-42.68 -38.56)"/><path class="cls-1" d="M124.44,223.56a.66.66,0,0,0,0,.11A.14.14,0,0,0,124.44,223.56Z" transform="translate(-42.68 -38.56)"/><path class="cls-1" d="M122.88,224.27c.11-.09,0-.19,0-.29A.68.68,0,0,0,122.88,224.27Z" transform="translate(-42.68 -38.56)"/><path class="cls-1" d="M134.66,222.61a.27.27,0,0,0,0,.17A.28.28,0,0,0,134.66,222.61Z" transform="translate(-42.68 -38.56)"/><path class="cls-1" d="M144.91,222.72s0,0,0-.06A.09.09,0,0,0,144.91,222.72Z" transform="translate(-42.68 -38.56)"/><path class="cls-1" d="M144.32,222.12s-.06,0-.11.06S144.29,222.17,144.32,222.12Z" transform="translate(-42.68 -38.56)"/><path class="cls-1" d="M132.18,222.79a.24.24,0,0,0-.1.13A.14.14,0,0,0,132.18,222.79Z" transform="translate(-42.68 -38.56)"/><path class="cls-1" d="M144.09,222.27l-.14,0v.08Z" transform="translate(-42.68 -38.56)"/><path class="cls-1" d="M145.09,222.77a.41.41,0,0,1-.18-.05C145,222.83,145,222.83,145.09,222.77Z" transform="translate(-42.68 -38.56)"/><path class="cls-1" d="M138.4,222.05h0C138.28,222.23,138.35,222.16,138.4,222.05Z" transform="translate(-42.68 -38.56)"/><path class="cls-1" d="M143.49,222.94h0l0,.11Z" transform="translate(-42.68 -38.56)"/><path class="cls-1" d="M145.72,222.91a.12.12,0,0,0-.07.07.2.2,0,0,0,.08,0A.49.49,0,0,1,145.72,222.91Z" transform="translate(-42.68 -38.56)"/><path class="cls-1" d="M140.57,222.62a1.69,1.69,0,0,0,0-.32C140.56,222.31,140.54,222.37,140.57,222.62Z" transform="translate(-42.68 -38.56)"/><path class="cls-1" d="M64.1,258.09l.38.23C64.48,258.21,64.38,258.12,64.1,258.09Z" transform="translate(-42.68 -38.56)"/><path class="cls-1" d="M160.3,258l.09-.05A.2.2,0,0,0,160.3,258Z" transform="translate(-42.68 -38.56)"/><path class="cls-1" d="M78.88,265.93h0a.33.33,0,0,0-.1.06Z" transform="translate(-42.68 -38.56)"/><path class="cls-1" d="M184.87,258l.11-.18c-2.45-.46-4-.56-5.68.38-.26-1.15-2-.12-2.58-.49l.05-.09c-1.49.88-3.07-.74-4.51.05.06-.09.09-.4.42-.42-1.05.14-2.48.4-2.56-.27-2.51.17-6-.14-7.61.93l.11-.18c-.91.72-1.18.11-2.2.47-.06-.08-.13-.13-.12-.17-1,.72-2.9.12-3.71.42l-.05-.45-2,.11.74.09c-.26,1.23-1.5-.76-2.94,0-1.35-.16-2.73,2.54-4.13,1.94-.67.58.59-.93-.41-.49,0-.63.47-.4.21-.91-1,.31-1.6-.65-2.81-.22l-.05-.49c-1.58.9-3-.66-4,.21-1.62.41-1.09-1.48-2.78-.51l-.66-.67c-.72-.11-.51.83-1.32.5.05-.42-1-.34-.54-.74-1.82-.66-3.69.94-6.08-.18-.52.82-1.72.33-2.11.95-.06-.36-2.41,0-1.06-.83.12-.07.32-.06.31.08l.16-.49c-1.36-.92-2.48.51-3.83.37.4.16.94.12.58.46l-1.25-.07.26-.41-1.87-.24.26.51c-.92-.27-1.24-1.13-2.27-.41-.47.4.87.69-.1.85a29.44,29.44,0,0,0-4.32-1,86.71,86.71,0,0,1,.39-9c.14-1.95.38-3.8.48-5.46s.25-3.16.26-4.43c-.28-.78,0-2.64-.83-2.13.24-1.43,1.27-1.79.87-2.21-.88,1.77-1-1-2.2.68l.24-1.21c-.26-.35-.1,1.72-.63,1.24l.79.6a3.56,3.56,0,0,1-1.17,1.63c.07,1,1.14,1.91,0,3.9l.11-.61c-.44,1.75-.87.92-1.12,1.24l.11-.38c-.29.45-.57.9-.84,1.36.57-1,.38-3.09.16-2.11-.83,2,.37-.48,0,1.12-.21,1-.61.59-.88.47l-.4,1.78c-.41-.16.31-1.17-.3-.55,0,.78-.08,1.56-.09,2.34-1.15.19,0,2.54-1.2,3.37,0-1.67-.4.08-.7-.24-.19,1.35-.44,2.69-.55,4.06-.2.37-.21-1.12-.23-.49-.39.73.11,1.3.06,1.71-.38.32-.22,3-1,2.9a4.55,4.55,0,0,0-.13,1.23c-1-.36-2.3.16-2.67-.48,0,0-2-.33-2.52.41.41-.46-.72-.63-.39-1.18-.53.53-2.1,1-2.73.4l.12-.07c-2.32-.56-4,.78-6,.09.1.58-1,.27-.73,1-2.15.73-3.93-1.5-4.7.79-1,.12-1.17-.54-1.67-.66l.23-.12a21,21,0,0,1-3.73.16c-.68.22-.79,1.28-2,1,.4-.43-.1-.35-.56-.35.29-.06.38-.22-.22-.5a.88.88,0,0,1-.33.28s0-.06,0-.11c-.76.15-.63.28-.27.34,0,.06,0,.15.12.26-.79-.54-2.21,0-2.3-.68-2.29.16-3.93.91-5.83,1.19-.22-.37.23-.7.78-.84l-1.35.13c0-.53.78-.31,1.19-.41-1.61-.87-3.32.86-5.2.07l-.39.42-.12-.07c0,.22-.41.53-.69.6-.27-.47,0-1.08-.92-1.05-.74-.45-2.1.23-3.07.48.53.08.36.34.13.5-.46,0-.73-.45-1.09-.25l-.05-.63c.19.6-1.22.64-1.39.9-.27-.47.72-.4.84-.75l-2.81.08c-1,.48.18.6-.3,1.15-.88.13-1.74.57-2.75.19l.32.56a4.82,4.82,0,0,1-3.77-.2c-12.35,4.55-2.6,6.22-2.6,6.22,4.86,1.24,7.37-.39,13.16-.83,5.09.29,6.44,1.37,11.71.93,2.51.09,5.2-.16,7.66-.29,1.16-.85,3.22,0,4.6-.72l.54.48a1.61,1.61,0,0,1,1.51-.15l0,.14c.71-.37,1.51-.15,1.87-.33l0,.14.86-.06-.15.2a8.18,8.18,0,0,1,3.65-.24l-.1-.58c2.41.65,3.29-.55,5.46.22l0,.14c2.75-1.53,4.34,1,7.17-.41-.35.18.15.3.13.44,1.3-.17,2.69-.26,2.71-1.4,1,0,.77.36.9.8,0-.5.82-.71,1.56-.74l-.34.2,2.12-.17-.39-.89H111c.86.32.19,1.08,1.21.87v-.79c1.56.16,2.47,1.34,4,1.92,6.27.33,13-1.66,18.84-.29l.26.59c.11.86,1.61-1.27,1.83-.47l.68-.4c.19.16.59.32.25.51.63,0,.65-.1,1.1-.36l.67.53c2.48.42,4.58-.61,7.19-.41,3.13,1.09,9,.09,12.41-.49,4.78-1.28,10.33,2.13,15.21.67.16.12.57-.15.57-.25l4.47.12S201.34,265.08,184.87,258Z" transform="translate(-42.68 -38.56)"/><path class="cls-1" d="M129,302.68a.05.05,0,0,0,0,0C129,302.63,129,302.54,129,302.68Z" transform="translate(-42.68 -38.56)"/><path class="cls-1" d="M93.62,302.69h0a.25.25,0,0,1,0-.09Z" transform="translate(-42.68 -38.56)"/><path class="cls-1" d="M93.71,302.44c.08.11,0,.21-.07.24.09.2.18.22.28.13S93.74,302.61,93.71,302.44Z" transform="translate(-42.68 -38.56)"/><path class="cls-1" d="M132.59,303a2.35,2.35,0,0,0,0,.28h0Z" transform="translate(-42.68 -38.56)"/><path class="cls-1" d="M150.61,309.21l-.08.26a.27.27,0,0,0,.09-.12C150.62,309.3,150.61,309.26,150.61,309.21Z" transform="translate(-42.68 -38.56)"/><path class="cls-1" d="M137.49,304.74a.5.5,0,0,0,0-.12c-.08-.13-.3-.16-.59-.16l0,.46Z" transform="translate(-42.68 -38.56)"/><path class="cls-1" d="M151.11,309.76l0,.21c-.32-.22-.31-.76-.46-.91a.74.74,0,0,0,0,.15l0-.07a.35.35,0,0,1,0,.21c0,.12,0,.21-.11.17l0,0a.68.68,0,0,1-.47-.06V309c-.26.85-1.58-1.36-1.9-1.4-.3-.58-.73.12-1.12-.17-.64-.17-.31-.67-.62-1.07s.07.53-.09.55l-.47-.64c.28,0,.14-.32.09-.5-.42-.09-1.05-.93-1.21,0-.55-.45-.54-.81-.78-.86.08.16.23.32.23.5-.22-.41-.11.09,0,.18-.36.39-1.75-1.69-1.85-.7v-.18a6,6,0,0,1-.24,1.86l-.16-.34-.25.31a.66.66,0,0,1-.06-.53c-.41.33-.95-.09-1.42-.2l.45,2c-.39-.48-1.09-1.44-1.19-.8l-.22-.68c-.77-1.31-.58.55-.89.15l-.39-.75.41,0a4.77,4.77,0,0,1-.86-1.11v0a.14.14,0,0,1,0,.11h-.06c-.06.37-.27.62-.56.58s-.73.42-1.35-.37l-.18.75-.47-.47v-.6c.48.05,1.37-.15,2-.17l0-.27c-.36,0-.78.25-1,.18a1.21,1.21,0,0,1-.17-1.15l-.24.58a3.17,3.17,0,0,1-2.46-.65l.1.3c-.25.17-.5.34-.56-.15a2.83,2.83,0,0,1-2-1.29l-.12.7c-.16,0-.37-1.12-.48-.13l-.35.3c-.21-.06-.36.34-.6-.07h0a.79.79,0,0,1,0-.09v.06c-.49-.32,0,.64-.57.21-.17-.5-.22.9-.49.73l-.25-1c-.49-.6-.6.42-1.32.4a2.23,2.23,0,0,1-.23-2c-.29.78-.21.67-.44.89,0-.12-.1-.25-.14-.37s0-.17.08-.29c-.12-.16-.19-.16-.23-.11a87.07,87.07,0,0,1-4.15-14.73c-.23-1.3-.51-2.6-.66-3.93s-.39-2.64-.48-4-.28-2.67-.3-4l-.09-2,0-.56-1.33-.78a1.68,1.68,0,0,0-.82-.22h-1.88a1.63,1.63,0,0,0-1.16.48L114,272l-1.66-.83a1.63,1.63,0,0,0-.73-.17h-3a1.59,1.59,0,0,0-1.08.42l-.14.12a1.65,1.65,0,0,0-.54,1.16,19.44,19.44,0,0,1-.33,2.68,18.14,18.14,0,0,0-.42,5.47l.43,0a29,29,0,0,0-.08,4.77c.12,1.64.41,3.31.69,5s.74,3.38,1.13,5.08.84,3.39,1.24,5.06c0-.29,0-.57,0-.87a8,8,0,0,1,1.07,1.79c-.39-.62-1.13-.41-1.64-.52a30.47,30.47,0,0,1-3.12,1.1c-.67-1.5-1.79.47-2.54-.39l-.22.58c-.49-.95-1.29.18-2-.76a1.19,1.19,0,0,1-.32.35s.08.15.08.52c-.2-.27-.62,0-.57-.7l.06-.07c0-.75-.63.33-.84-.32l.1.8-.38-.14.11-.16c-1.73,1.73-2.42-.82-4,.76.23-.87-.33.45-.32-.51-.37-1.21-.74.24-1.08.55a.74.74,0,0,1,0,.18l-.56-.13c.37-1.2-.44,1-.1,0-1.46-.94-3.43-.08-5.14-.54l.07.31c-.43-.07-1,.29-1.3-.21s-.75.77-.88.81c-.38.53-.68-.54-.52-.49-.4.14-.79,1.23-1.32.75-.15-1-1.49,1-1.48-.19v.09c-.67-.83-1.36.54-2.08-.22a.8.8,0,0,1,0-.16L79,306.43l.32,3.86,1.23,3.16,3.57-.58,2.8,1.3,6.9-.23.52-.86c1.31,1.56,3.1-.14,4.53,1l0-.74c.41,0,.37.42.47.56,3.83-.06,7.8-.95,11.22.08.32.5,1.33.24,1.58.77a4.42,4.42,0,0,1,3.45-.72l0,.08.53-.13a.5.5,0,0,1,0,.21c.61-.64,1.53,0,2.25.32l0,.09c4.24.25,8.23-1,12.42.12,1.92,1.27,4.25-.35,6.47.72.39.76,5,.32,5.37,0l-.5-.92c1.7-.37,2.47.56,3.94-.13l-.09.19c.21.22.38-1.82,2.65.74v.09c.08,0,.09-.2.24.05l-.38-.57c.24-.22.47-.65.79-.7a1,1,0,0,1,.09.43l.79-.13.23.6c.25-.32.17-1.56.8-.85-.22-.86.33-.51.26-.94,0,.1.1.26.16.41.38-.09,1.11-.31,1.3-.74a18.14,18.14,0,0,1-1.83-2.78C151.6,310.4,151.21,310.05,151.11,309.76Zm-40.31-7.67h0a1.33,1.33,0,0,0-.1-.24Z" transform="translate(-42.68 -38.56)"/><path class="cls-1" d="M149.35,314.58h0C149.32,314.9,149.35,314.78,149.35,314.58Z" transform="translate(-42.68 -38.56)"/><path class="cls-1" d="M140.18,305.73h0l-.1-.45Z" transform="translate(-42.68 -38.56)"/><path class="cls-1" d="M146,305.73a.22.22,0,0,0,.25-.1C145.94,305.53,145.93,305.6,146,305.73Z" transform="translate(-42.68 -38.56)"/><path class="cls-1" d="M151.57,314c.14,0,.1-.16,0-.37l-.25.05C151.42,313.8,151.49,314,151.57,314Z" transform="translate(-42.68 -38.56)"/><path class="cls-1" d="M151.11,309.76l0-.26C151.07,309.56,151.08,309.66,151.11,309.76Z" transform="translate(-42.68 -38.56)"/><path class="cls-1" d="M270.69,320.12a3.67,3.67,0,0,0,.23-.29C270.82,320.15,270.75,320.3,270.69,320.12Z" transform="translate(-42.68 -38.56)"/><path class="cls-1" d="M273.34,316.24c-.7,1-1.63,2.61-2.42,3.59a11.81,11.81,0,0,1,.86-2.32C272.21,316.69,272.8,316.07,273.34,316.24Z" transform="translate(-42.68 -38.56)"/><path class="cls-1" d="M269,319.68c.3-.48.62-.93.95-1.38C269.8,319.29,269.41,318.91,269,319.68Z" transform="translate(-42.68 -38.56)"/><path class="cls-1" d="M270.14,319.52l.33.23c-.22.2-.45.41-.67.63C269.9,320.09,270,319.81,270.14,319.52Z" transform="translate(-42.68 -38.56)"/><path class="cls-1" d="M305.52,294a.58.58,0,0,1-.62-.06Z" transform="translate(-42.68 -38.56)"/><path class="cls-1" d="M308.54,291.41a7,7,0,0,0,.38-.63A1.84,1.84,0,0,1,308.54,291.41Z" transform="translate(-42.68 -38.56)"/><path class="cls-1" d="M304.47,297.05l.18-.61A1.65,1.65,0,0,1,304.47,297.05Z" transform="translate(-42.68 -38.56)"/><path class="cls-1" d="M290.17,332.5l-.81.22-.67.13a1,1,0,0,1,.75-.51A4.52,4.52,0,0,1,290.17,332.5Z" transform="translate(-42.68 -38.56)"/><path class="cls-1" d="M320.42,279.12l-.22-.28C320.4,278.76,320.56,278.75,320.42,279.12Z" transform="translate(-42.68 -38.56)"/><path class="cls-1" d="M313.76,292.69a.67.67,0,0,1-.36-.24l.14-.13Z" transform="translate(-42.68 -38.56)"/><path class="cls-1" d="M304.16,299.6l0,0-.37.4C303.85,299.78,304,299.63,304.16,299.6Z" transform="translate(-42.68 -38.56)"/><path class="cls-1" d="M323,274.76a2.94,2.94,0,0,1,.92-.34C323.54,274.85,323.16,275,323,274.76Z" transform="translate(-42.68 -38.56)"/><path class="cls-1" d="M309,290.7h0l-.05.08Z" transform="translate(-42.68 -38.56)"/><path class="cls-1" d="M311.52,297.21c.15-.23.27-.44.45-.68A1,1,0,0,1,311.52,297.21Z" transform="translate(-42.68 -38.56)"/><path class="cls-1" d="M290.17,332.5l.49-.14A.57.57,0,0,1,290.17,332.5Z" transform="translate(-42.68 -38.56)"/><path class="cls-1" d="M270.27,324.16a.62.62,0,0,1-.55.61A1.62,1.62,0,0,1,270.27,324.16Z" transform="translate(-42.68 -38.56)"/><path class="cls-1" d="M274.16,221.79l-.18-.06A.42.42,0,0,1,274.16,221.79Z" transform="translate(-42.68 -38.56)"/><path class="cls-1" d="M291.22,228.67a1,1,0,0,1,.12.32C291.16,229,291.14,228.84,291.22,228.67Z" transform="translate(-42.68 -38.56)"/><path class="cls-1" d="M310.29,230.79a3.28,3.28,0,0,1-1.56-1.24,8.16,8.16,0,0,0-1.29-1.42l.11.55-.78-.92-.3.48c-1.46-1.26-3.78-2-4-3.06l-.25.89-1.4-1.59.71,1.09a61.34,61.34,0,0,1-5.22-3.24l0,.39c-.4,0-.57-.32-.86-.58l0,.58c-3-1.52-4.26-.82-7.5-2.65-1-.25.46.35.37.62-.65.18-1.71-.64-1.9-.94,0,.83,1.52,1.16.21,1.34-.64-.66.27.87-1,.23l-.19-1.15c-.83-.1-.42.69-1.59.17-1.25-.89,2.08-.5-.12-1.41-1.16-.32-3.09,1.43-5.11.26-2,0,.54,1.79-2,.8l1.46,1.12c-.5.15-.38.7-1.42.18a3,3,0,0,0-1.4-1.36c2.21,1.38-2.4.56-.42,2.11l-.81-.25a.14.14,0,0,1,0,.23l-1.09-.2c.59.36,2.17.88,1.24,1.4-.53-.07-1.08-.15-1.56-.2.22.63-.32.74-.33,1.2,1.29.68,2.77,1.46,4.14,2.25-.08-.38-.67-.78-.33-1,1.29.08.81.87,2.07.78l-.37-.59c0,.19.19.3-.08.27-.48.16-.55-.21-.48-.49.57-.43,1.6.31,1.82.79,1.49.4.62-.88,1-.94.46,1.16,2.46.8,3.21,1.55l-.37-.78a3,3,0,0,1,2.72,1.09l-.07-.56c1.51.66,2.91-.57,3.39,1.55l0-.37c.68.11,1.78.19,2.16.94a.55.55,0,0,1,.59-.33c.05.78.9.61,1.86.92-.52-.45.05-1.17-.5-1.67,1.81-.15.88,1.5,2,2.08.9-.06-.4-.77-.42-1.15a5.45,5.45,0,0,0,3,.8c1,.14,1.85.4,2,1.49l-1,.08c.51.73.89.93.89.74-.26-.08-.25-.26-.25-.45,2.59.41,2.57,3,4.73,4.07,0-.38-.18-.66,0-.9,1.14.33-.11,2,1.71,2.51l0-.52c.62.16.63.87.49.91.5-.6,1.21,0,2.08.68s1.82,1.42,3,1.13c.13,1.19,1.27,3.45,2.12,3.7.69.13.74-.22.72-.64s-.15-.87.31-1c.62.66.21,1.59,1.26,2.41-.68.5-2.89-.87-1.83,1.24l.57,0c-.2-.16-.55-.31-.67-.64,0-.84.7,0,1,0a22.14,22.14,0,0,1,1.24,2.23c-.67.63-1.3-.71-1.56-.7a10.06,10.06,0,0,0,1.08,1.09l.63.54c.2.19.38.4.57.6a4.36,4.36,0,0,1,1.45,2.65l.25-.29c.07,1.24.59,1.4,1,1.57s.68.35.23,1.46c.5.91.83-.61,1.31.89.1.43-.29.24-.41.19,0,1.92,1,.71.4,2.55l.9-.48a5.84,5.84,0,0,1-.18.83c-.1.28-.22.56-.33.83l-.69,1.58c-.18.51-.45,1-.6,1.46a2.79,2.79,0,0,0-.16,1.36c.74,0,.77-1.12,1.38-1.53a5.54,5.54,0,0,0-.79,1.92c-.13.68-.36,1.37-.47,2.08a13,13,0,0,1-.44,2.05,6.9,6.9,0,0,1-.83,1.7c-.39-.82-1.7.49-1.76-1,1,0,.62-.85.95-1.51-1.19.29-1.32,1.48-1.4,2.65s-.31,2.24-1.19,2l.54.59c-.23.26-1.07.78-1.05.16-.14.75-.43,1.65-.66,2.49a16,16,0,0,0,1.73-1.19c.51-.44.87-.94.62-1.37,1-.31.06,1.14,1.13.95-1.78,1,.05,1.18-1,2.67-.6-1.21-2.09,1-2.52.67a3.9,3.9,0,0,1-1.63,1.88c-.55.91-.78,3.44-1.8,4.81.56-.44,1.38-1.17,2-.81-.69.58-1.06,1.4-.4,1.87,2.52-2-1.27-1.61.68-3.61,1.1-.2,1.6-.76,2.42-1.86.2.77.52.63,1,1.12-2.44.67-2,3.8-3.73,5.37-.88.6-1.69-.52-2.72,1.29l.19-1.86c-.31,2-.7.19-1.54,1.59l.82-.34a2,2,0,0,1-1.17,1.57l1.22-.39c-.11.54-.39,1.49-.91,1.28a1.09,1.09,0,0,0,.46.4c-.19,0-.38.22-.6.81.25-.29.29-.56.56-.45-1.14,2.09.73.91.07,2.23.29-.13.38.36.29.89-1.37-.62-2.68,2-3.74,2.41h0l-1.3,1.62c.26-.33.48.23.41.82l0-.09c0,.68,1.79-.09.69,1.51l-.77.76c.11-.15.26.1.34.23l-.76.8c.74,2-1.81,2.47-1.82,4.44.08-.54.47-1.26.77-.77a1.26,1.26,0,0,1-.62,1l.19,0-2.11,2.95c.58-.09,1.3-1.91,1.53-.89.46.73-.57,1.41-.84,2-.35-.21-.27-1.42-.88-.4.13.2.13,1.39.58,1-.8,1-1.64,2.52-2.68,3.27,0,.38.38-.06.5-.21l-.08-.12c.46-.59,1,.26,1.11-1.21,1.26.35-.38,2-.65,3.25l1.52-1.53c.5,3.75-2.92,7.28-4.25,10.23,0-1,.67-1.63-.31-1.91a20.62,20.62,0,0,0-1.94,3.21l.12-.13a2.91,2.91,0,0,1-.66,1.53c-.32.45-.58.89-.33,1.4.7-.13.2-1.51,1.22-1-.42.72-.81,1.46-1.26,2.14,1-.33,1.27-2.14,1.82-2.94.24-.65-.74,1.19-1.26.56,1-2.06,1.91-2.27,3.37-2.91,1-.35.31,1.28.12,1.69a8.53,8.53,0,0,0-3.87,4.88l0,1.55a3.24,3.24,0,0,1-1.75,0,1.53,1.53,0,0,0-1.55.8l.84,0a1.83,1.83,0,0,1-.37.92l1.43-.54,1.39-.62c.17.88-.51,1.54-1.43,2s-2,.74-2.78,1.14c.17.08.67-.25,1-.11a5.08,5.08,0,0,1-3.56,1.49,24,24,0,0,1-3.29-.28c-.77.63,1.55.24,1.29,1.12a4.65,4.65,0,0,0-1.55.1c-.46,0-.84,0-.95-.37.41,1.19-2.48-.13-.49,1.11a11.39,11.39,0,0,1-6-1.41,10.75,10.75,0,0,1-2.47-1.88,9.06,9.06,0,0,1-1.61-2.39.78.78,0,0,1-.69.51c.39.55.89,1.21,1.36,1.85a6.61,6.61,0,0,1,1.08,1.81,1.51,1.51,0,0,1-1.21-1c-.25-.48-.35-.92-.56-.9.14.56.93,1.15.62,1.61a1.73,1.73,0,0,1-1.32-1c-.24-.44-.32-.93-.57-1.31l.54.19a2.71,2.71,0,0,1-.15-2.37,1.78,1.78,0,0,0,.09-.75,5.69,5.69,0,0,0-.42-1.23c-.88-.72-.55.14-1.36.4a6.63,6.63,0,0,0-.38-1.71c-.16-.7-.17-1.43.29-1.75a15.09,15.09,0,0,0,.14,1.65,8.88,8.88,0,0,1,.56-3,.64.64,0,0,0-.48.34c.35-.87.52-2,1.19-2.31l-.82-.47c.21.63,0,2.18-.5,2.4-.79-.26,0-1.88.14-2.58a22.24,22.24,0,0,1-1.42,3.11,3.74,3.74,0,0,0-.13,3.09c.06-.18.14-.36.22-.54a9,9,0,0,1,.65,2.75,5.88,5.88,0,0,0,.85,2.67c-.44-.31-.78-.23-.77.06a17.53,17.53,0,0,0,4.67,3.74,13.5,13.5,0,0,0,5.59,1.66c.34.35.69.71,1.06,1.06l.16-.66c1.95-.11.32,1,1.6,1-.49,0-.39-.14-.48-.32a2.59,2.59,0,0,0,1.23.29.66.66,0,0,0,.51-.22.86.86,0,0,1,.95-.45c-.69-.65-2.56-.27-1.94-1.21a9.19,9.19,0,0,0,3.88.38c.66,0,1.24-.09,1.74-.05a1.59,1.59,0,0,1,1.16.52,28.75,28.75,0,0,0,5.92-4.68,28,28,0,0,0,3.93-5c0-.55-.34.16-.45-.11,1.53-.78,1.39-4.33,2.15-4a2.33,2.33,0,0,0-.55-1.42,8.5,8.5,0,0,0,1.79-2.38l-.51.62L301,322l.71-.89,0,.06c1.22-2.35,2.09-5.23,3.77-7.11-1,1.07-.83-.68-1.37-.2,1.68-.64,2.71-3.3,3.4-5.5-.27-.09-.42-.34-.73-.17l1-1.05-.38.05c.61-2.33,2.94-4.21,2.93-5.9-.51.84-.77.75-1.23.67a25.84,25.84,0,0,1,2.39-4.76.41.41,0,0,1-.33.06c.09-.53.63-1,1-1.42l-.6-.32c.68-.82.86-2.17,1.83-3.08-.49-.72,1.77-2.42,2.06-3.81.36-.43-1.18.75-.54-.61,1.43.4.81-1.76,2.31-1.22v-1.42l.84.06c-.88-1.62,1.29-1.26,1.57-2.93-.19,0-.32.14-.38,0,.37-.41,1-1.47,1-.44.36-.8,2-3.32.65-2.48.45.11-.43,1.05-.8,1.46-.58-.36.22-1.44-.3-2.05a2.51,2.51,0,0,0,.43-.18l-.3-.35c1.41-1.17,1.64-2.82,3.08-3.73-.16-.16-.18-.52.13-1.08l.79.31c.26-.62.54-1.22.78-1.85-.49.15-1,.27-1.51.4a5.15,5.15,0,0,1,.29-.72,6.77,6.77,0,0,1,.33-.66,9.92,9.92,0,0,1,.84-1.17,7.94,7.94,0,0,0,1.6-2.33c-.64-.41-.32-1.25,0-2.26a3.46,3.46,0,0,0,.14-3.08l-.52,1.41a12.64,12.64,0,0,0,.17-3.32,10.23,10.23,0,0,1,0-3.19c.28,1.22.34,1.86.49,2.63s.24,1.67.65,3.59a14.06,14.06,0,0,1,.11-2.63c.11-.82.13-1.64.21-2.44a9.4,9.4,0,0,0-.6-4.86c-.29.3-.38,1.18-.85.42a1.33,1.33,0,0,0,.2-.83,8.73,8.73,0,0,0-.21-1c-.16-.64-.28-1.14.2-1-.57-1-1.34-.9-1.68-1.45-.1-1.17-.17-2.42-.36-3.63l-.1.16a19.69,19.69,0,0,1-2.66-3.42c-.36-.58-.69-1.18-1-1.79l-1-1.77a16.64,16.64,0,0,0-5.17-6.35l-.22.42-.64-1.41c.56,1-.73.13-1.05.39-.69-1-1.44-2-2.2-2.95C309.86,229.57,309.5,230.43,310.29,230.79ZM323,273.53l-.4.75a.69.69,0,0,1-.25.47l.25-.47C322.72,273.84,322.52,273.41,323,273.53Zm-32.36,64c-.6-.09.51-.44.69-.7a11.34,11.34,0,0,1-1.32.76C290,337.94,290.46,337.64,290.68,337.57ZM318,271.4l-.36-.6.63-.31Zm2.61-10.12-.42,1-.11-.1.43-1Zm2.47-13a1.18,1.18,0,0,1,0,.26.78.78,0,0,1,0-.26,1.5,1.5,0,0,0-.44-1c-.21-.24-.35-.48-.08-1C323.77,246.64,323.19,247.62,323.07,248.24Zm.57,21a1.78,1.78,0,0,0-.38.81c.39-.08,1.12-.7,1-.1-.5.27-1,1.54-1.56,1.36C323.69,270.42,322.44,269.13,323.64,269.28ZM312.8,292.79l.05-.27-.79.74Zm-2.29,4c-.88.24-1.3,1.59-1.8,2.45.49.46,1.52-.2,1.89-1.28C311.61,297,309.89,297.17,310.51,296.83Zm13.7-36.7-.52.27a1.28,1.28,0,0,0-.05-.27c-.12.37-.28.74-.42,1.11a2,2,0,0,1-.1-1,2.55,2.55,0,0,1,.24-.88,12.74,12.74,0,0,0,.72-1.43C324.05,258.6,322.86,260.41,324.21,260.13Zm-17.62,45.75c-.77.76-1.91,2.23-2.33,1.9.88.4,1.79-.78,1.95-1.2A1.29,1.29,0,0,1,306.59,305.88Zm-1.68-.7c.92-1.18,1.38-1.12,2.61-1.81a1.17,1.17,0,0,1-1.84,1c-.77.77-.12.81-.2,1.35Zm3.06-.43.08-.59c-.12-.78-1.09-1.31.28-1.82l-.28,1.82A1,1,0,0,1,308,304.75ZM303.65,316l.52-.44c-.24.54-.4.55-.52.44l-.44.36C303.34,315.06,303.42,315.8,303.65,316Zm3-8.72.69-1.54C306.89,305.7,306.74,306.77,306.66,307.31ZM303,315.37c.2-.7.74-2.49.7-2.23C304.1,313.48,303.41,315,303,315.37Zm-27,21.32a10.21,10.21,0,0,0,1.05.39l-.72.5C276.24,337.28,276.13,337,276,336.69Zm12.62-.77c0,.15-.06.28-.09.42l-.61.24ZM296,327a.54.54,0,0,0,.47.16.68.68,0,0,1,.45-.23.5.5,0,0,1-.45.23,2.15,2.15,0,0,0-.58,1.39c.39,0,.67-.68,1-.83.23,1.38-3.13,2.27-.78,2.86-.5.27-1.88,1.27-1.91.58A9,9,0,0,0,296,327a.38.38,0,0,1,0-.43A1.08,1.08,0,0,1,296,327Zm5.55-14.58a1.46,1.46,0,0,1,.44-.6c.29-.29.63-.46.89-.25-.58.76-.62.12-.89.25A2.26,2.26,0,0,0,301.55,312.4Zm.83-2.63-.91,1.19.73-.5-1.65,1.68C300.56,310.82,301.74,309.73,302.38,309.77Zm-.23-.63.62-.08-.69.22.07-.14-.15,0,1.15-2.14Zm10.2-22.45c-1.37-1.6-2.11,1.41-3.13,1.48.55.35,1.1,1.58,2-.59-.22,2.12-1.64.68-.65,2.43a5.47,5.47,0,0,1,1.31-2l-.39,1.08C312.84,289,311.67,287.28,312.35,286.69Zm5-11.33L318,274l-.77,1.21Zm-3.5-34.19c-.28.36-2.13-.45-1.84-1.37C312.72,240.41,313.4,241.22,313.82,241.17Zm-12.29-10,1.24,1.19c-.81.7-1.25-.81-2-1.07C300.77,230.74,301.13,231.35,301.53,231.2Zm-9.77-5-.43-.36.11,1.15Zm.13,1.53c-.49.28.45.94.71,1C292.37,228.37,292.13,228,291.89,227.69Zm-9.4-2.77.67.18-.29-1.06Zm1.39-.62c-.06.67-.42,1.45,1.22,1.6.3-.61-.11-.76.73-1.3a2,2,0,0,0-1.22-.26c.31.22.81.11.74.57a1.81,1.81,0,0,1-1.47-.61.69.69,0,0,0-.16-.62A.71.71,0,0,0,283.88,224.3Zm5.71,1.44a1.13,1.13,0,0,0,.56-.08l0,.2a.37.37,0,0,1-.58-.12c-.25,0-.53,0-.82-.07-.38.46.49,1.24.63,1.64-.42-.35-.62-1-1.4-1,0,.19-.1.27.31.43l-.93-.25c-.72-1.15.34-1,1.39-.84a.71.71,0,0,1,.44-.26C289.39,225.4,289.48,225.58,289.59,225.74Zm-6.85-4,.46.33c.18.3-.05.46,0,.65C282.61,222.52,282,221.89,282.74,221.79Zm28.27,15c-.38-.11-.22.95.47,1.36l-.88.34c.18-.22,0-.58-.29-.91s-.63-.6-.68-.68C309.92,236.11,310.19,236.75,311,236.77Zm9.09,34c-1.12-.13-1.35,2-1.79,2.27C318.53,272,319.26,269.74,320.1,270.8ZM319,274.26c-.24.51-.23.69-.68.4-.32.14-.26.66-.58.81.05-1.19.8-.73,1.26-1.21.07-.13.15-.28.26-.46A.92.92,0,0,1,319,274.26Zm3-21.78.55-1a9.54,9.54,0,0,0-.44-1.16A18.87,18.87,0,0,1,322,252.48Zm-4.93-12.19c-.14.18-.43,0-.69-.27a1.87,1.87,0,0,1-.54-.79c-.37.46.32,1.09.71,1.73a1.36,1.36,0,0,0,.25.43,2.16,2.16,0,0,0-.25-.43c-.06-.31.29-.35.46-.48l.36.18-.53-.93Zm-17.68-14.4c-.95,0-.95-.15-1.37-.55C298.32,225.22,299,225.49,299.43,225.89Zm22.09,20.05c-.95-1.15-.47,1-1.17.33l.4.63c-1.12-.77.19-1.08-.37-1.76l.37.45c.72.14-.08-1,.25-1.31C321.54,244.78,321.9,246.41,321.52,245.94Zm-23.07-21c-1.49-.1-.74-1.07-1.45-1.52C298.22,223.45,297.6,224.36,298.45,225Zm19,12.35h.14l-.58-1.11h-.15Z" transform="translate(-42.68 -38.56)"/><path class="cls-1" d="M294.31,229.54a1.48,1.48,0,0,1-.64-.28A3.56,3.56,0,0,1,294.31,229.54Z" transform="translate(-42.68 -38.56)"/><path class="cls-1" d="M314,275.4a.4.4,0,0,1,.12.4C314,275.74,314,275.63,314,275.4Z" transform="translate(-42.68 -38.56)"/><path class="cls-1" d="M312.51,277.6l0,.08-.09.06Z" transform="translate(-42.68 -38.56)"/><path class="cls-1" d="M270.9,325c.78-.41.05.48.05.89C271,325.49,270.48,325.28,270.9,325Z" transform="translate(-42.68 -38.56)"/><path class="cls-1" d="M269.76,328.29a2.54,2.54,0,0,0,.29-1.1A1.69,1.69,0,0,1,269.76,328.29Z" transform="translate(-42.68 -38.56)"/><path class="cls-1" d="M270,325.51a6.82,6.82,0,0,1,.1,1.68A2.83,2.83,0,0,1,270,325.51Z" transform="translate(-42.68 -38.56)"/><path class="cls-1" d="M275.29,335.06a1.71,1.71,0,0,0-.73-.68l-.51-.24c1,.39,1,.11.8-.24a3.34,3.34,0,0,1-.62-1,2.18,2.18,0,0,1,.72,1A6.82,6.82,0,0,0,275.29,335.06Z" transform="translate(-42.68 -38.56)"/><path class="cls-1" d="M278.05,336.25a2.16,2.16,0,0,0-.64-.08A1,1,0,0,1,278.05,336.25Z" transform="translate(-42.68 -38.56)"/><path class="cls-1" d="M279,336c.73.25.94.76,1.26,1.21-1,.24-1.53-.69-2.18-1C278.6,336.35,279.13,336.52,279,336Z" transform="translate(-42.68 -38.56)"/><path class="cls-1" d="M294.34,322.77c-.12.14-.29.53-.55.42l.51-1.18C294.66,321.61,294.39,322.51,294.34,322.77Z" transform="translate(-42.68 -38.56)"/><path class="cls-1" d="M297.49,318.86c.44-1-.45-.72-.1-1.16l.88.41Z" transform="translate(-42.68 -38.56)"/><path class="cls-1" d="M301.78,321.24l-.21.27.17-.33Z" transform="translate(-42.68 -38.56)"/><path class="cls-1" d="M298.45,313.76l-1.26.3C297.77,313.33,298.57,313.62,298.45,313.76Z" transform="translate(-42.68 -38.56)"/><polygon class="cls-1" points="256.54 271.15 256.01 271.62 257 269.89 256.54 271.15"/><polygon class="cls-1" points="258.76 266.73 258.61 266.49 259.34 265.32 258.76 266.73"/><path class="cls-1" d="M319.7,256.56c.43-.14.66.29.74.84a7.61,7.61,0,0,0,.17,1.51c-.58-.19-.49-.59-.41-1.05a1.83,1.83,0,0,0,0-.7A1,1,0,0,0,319.7,256.56Z" transform="translate(-42.68 -38.56)"/><path class="cls-1" d="M296.12,230c.56.36,1.13.72,1.67,1.11C296.27,230.68,297.42,230.9,296.12,230Z" transform="translate(-42.68 -38.56)"/><path class="cls-1" d="M223,131.08c.34-.2,0-.13-.18-.21Z" transform="translate(-42.68 -38.56)"/><path class="cls-1" d="M222.82,130.87l-.13-.15A.18.18,0,0,0,222.82,130.87Z" transform="translate(-42.68 -38.56)"/><path class="cls-1" d="M221.46,129.71c.5,0,.71.56,1.15.34C222.41,129.6,221.79,129.36,221.46,129.71Z" transform="translate(-42.68 -38.56)"/><polygon class="cls-1" points="179.16 91.71 179.33 91.54 178.83 91.66 179.16 91.71"/><path class="cls-1" d="M221.93,130.58v-.1l-.6-.08C221.54,130.46,221.74,130.51,221.93,130.58Z" transform="translate(-42.68 -38.56)"/><path class="cls-1" d="M220.35,128.88l.39.14c.18.46-.43.25-.32.56.45.24.49-.49,1-.07.12-.3-.88-.52-.56-.88C220.44,128.24,220.68,128.86,220.35,128.88Z" transform="translate(-42.68 -38.56)"/><path class="cls-1" d="M202.7,135.78l-.07,0C202.68,135.82,202.73,135.82,202.7,135.78Z" transform="translate(-42.68 -38.56)"/><path class="cls-1" d="M198.6,141.07a.82.82,0,0,0-.26.14h.17Z" transform="translate(-42.68 -38.56)"/><path class="cls-1" d="M204.68,132a1.26,1.26,0,0,0,.26-.13A.33.33,0,0,0,204.68,132Z" transform="translate(-42.68 -38.56)"/><path class="cls-1" d="M174.22,161.25a.33.33,0,0,0-.06-.12h0l0,.14Z" transform="translate(-42.68 -38.56)"/><path class="cls-1" d="M194.11,147.11a1.06,1.06,0,0,0-.17.26C194.06,147.24,194.11,147.17,194.11,147.11Z" transform="translate(-42.68 -38.56)"/><path class="cls-1" d="M206.16,130.11l-.06.08.11-.07h-.05Z" transform="translate(-42.68 -38.56)"/><path class="cls-1" d="M200.52,139.84a.71.71,0,0,0-.21.15A.66.66,0,0,0,200.52,139.84Z" transform="translate(-42.68 -38.56)"/><path class="cls-1" d="M214.9,125.74a.29.29,0,0,0-.29-.07C214.65,125.76,214.73,125.81,214.9,125.74Z" transform="translate(-42.68 -38.56)"/><path class="cls-1" d="M212.62,124.93h0C212.64,124.87,212.63,124.88,212.62,124.93Z" transform="translate(-42.68 -38.56)"/><path class="cls-1" d="M211,124.34h0S211,124.27,211,124.34Z" transform="translate(-42.68 -38.56)"/><path class="cls-1" d="M214.61,125.67c-.12-.25,0-.83-.44-.32l0,.11c-.09-.2-.4,0-.58-.08a.91.91,0,0,0,0,.17l.34.2C214.11,126,214.36,125.72,214.61,125.67Z" transform="translate(-42.68 -38.56)"/><path class="cls-1" d="M202.63,135.69c.1.06.16-.11,0,0Z" transform="translate(-42.68 -38.56)"/><path class="cls-1" d="M203.57,133.8l-.15.14A.34.34,0,0,0,203.57,133.8Z" transform="translate(-42.68 -38.56)"/><path class="cls-1" d="M208.55,127.86l0,0C208.56,127.93,208.57,127.9,208.55,127.86Z" transform="translate(-42.68 -38.56)"/><path class="cls-1" d="M203.3,134.08l.12-.14S203.31,134,203.3,134.08Z" transform="translate(-42.68 -38.56)"/><path class="cls-1" d="M206.83,129.47l0,0Z" transform="translate(-42.68 -38.56)"/><path class="cls-1" d="M147.42,174.61c.11-.05.2.09.32.13.22-.46-.53.06-.19-.37a.5.5,0,0,0-.27.14l.18.4C147.68,174.74,147.3,174.78,147.42,174.61Z" transform="translate(-42.68 -38.56)"/><path class="cls-1" d="M172.2,161.81h.07c-.15-.12-.16-.19-.42-.1,0,.35.55.47.46,1a.39.39,0,0,1,.24-.16C172.26,162.39,172.21,162.09,172.2,161.81Z" transform="translate(-42.68 -38.56)"/><path class="cls-1" d="M172.55,162.49h0l.11,0a.35.35,0,0,1,.14-.06A.42.42,0,0,0,172.55,162.49Z" transform="translate(-42.68 -38.56)"/><path class="cls-1" d="M151.71,173.78l.16,0C151.77,173.71,151.73,173.73,151.71,173.78Z" transform="translate(-42.68 -38.56)"/><path class="cls-1" d="M190.6,143.2a2,2,0,0,0,.05-.24A.29.29,0,0,0,190.6,143.2Z" transform="translate(-42.68 -38.56)"/><path class="cls-1" d="M175.23,159.78a.67.67,0,0,0,.18-.07l.07-.09Z" transform="translate(-42.68 -38.56)"/><path class="cls-1" d="M168.12,170.54c-.17-.46-.06.09-.43,0l-.06.35A1.37,1.37,0,0,0,168.12,170.54Z" transform="translate(-42.68 -38.56)"/><polygon class="cls-1" points="104.59 135.92 104.59 135.96 104.6 135.95 104.59 135.92"/><path class="cls-1" d="M162.05,174.75h-.14A.23.23,0,0,0,162.05,174.75Z" transform="translate(-42.68 -38.56)"/><path class="cls-1" d="M173.78,161.73l.72-.56-.28.08C174.27,161.51,173.69,161.44,173.78,161.73Z" transform="translate(-42.68 -38.56)"/><path class="cls-1" d="M171.49,168.33l.24.17c.39-1,1.76-1,1.8-2.17,1.51,0,0-1.17,1.38-1.14l-.11-.09,2.11-1.53L179,162a20.91,20.91,0,0,0,3.64-3.5l.13.15c4-3.25,7.23-7.15,10.85-10.73.18-.47-.33-.56-.22-1,.14-.12.39-.43.57-.27-.13.35.16.35.15.5.37-.44,1.08-.79,1.2-1.36l-.52.1c0-.24.32-.41.45-.53.07.17.5.21.45.37.15-1.32.82-.39,1.2-1.27-.37-.58,0-1.8.11-2.67l.39-.18c-.35.39.37.32-.08.78.5-.27.62-.84,1-1.14a.31.31,0,0,1-.26-.41c.28-.17.55,0,.81-.21l-.07.4c.34,0,.23-.39.35-.58.26.13.64-.24.82,0,0-.62.3-.6.45-1.16-.57.22-.19-.34-.4-.45l-.32.53c.7-.52-.14.25.26.51-.43.16-.23-.93-.61-.38.34-.76.61-.75.85-1.63-.26.43-.18-.28-.46-.17.39-.49.23,0,.59,0,.21-.27.5-.18.43-.65.48-.33.22.29.55.21.12.37-1.31.9-.42,1.48-.18.22-.1.76-.39,1.06.34-.19.94-.36,1.06-.86l-.44-.4c.22-.27,0-.59.16-.74,0,.21.39.19.53-.05-.12,0-.17.1-.23,0,.3-.41,0-.73.34-1.26a4.56,4.56,0,0,1-1.14.43c-.24-.37.17-.29.31-.53,0,.07,0,.12.1.11l0-.35c.54-.36.41.45.89.18.5,0,.17-.5.49-.58l-.11,0a.33.33,0,0,1,.11-.08l0,0c.17-.29.42-.54.24-.81.13.06.16-.25.15-.4s0-.79.59-.68c0,0,0,0,0,0,.31-.28.63-.43.7-.26l.52-.43.27.31c.3-.54.08-.65,0-1.23a1.91,1.91,0,0,0,.85-1.21.51.51,0,0,0,.15-.2l-.28.1c.31-.36.1-.45.3-.69-.07,0-.1,0,.06-.08l.14-.12s0,.09-.09.13l.14,0c.57,0,.17-.6.54-.82a.38.38,0,0,1-.06.13c.23-.11.88,0,.67-.3.07,0,.06-.12,0-.23l.15-.1a.65.65,0,0,1-.15.09c0-.15-.08-.31,0-.27l.41-.42c.12-.05.17-.2.2-.33l.19,0c.11-.18.19-.12.21-.08a1.11,1.11,0,0,0,.28-.1.17.17,0,0,0,.11-.06.43.43,0,0,0,.09-.24c0-.18.11-.43.36-.34-.08-.36-.26-.34-.35-.46a2.92,2.92,0,0,1,.11-1,.17.17,0,0,0,0-.07c.22.27.54.56.76.83a1.11,1.11,0,0,1,.28.84c.3.14-.09-.4.07-.55l0,0a1.85,1.85,0,0,1-.35-.61c-.09-.34.4-.28.54-.14-.05.13-.09.27-.13.41.43,0,.47-.69,1-1,.41.32,0,.6,0,1l.51.06-.11.3c.33,0,.51-.23.88,0-.4.17.53.52,0,.74.19.19.48-.37.44.08.28-.26-.15-.24-.22-.38.07-.5.59,0,.91,0-.07.25-.29.21,0,.5.14-.16.4-.21.5.08.12-.3.39.08.57.18-.18-.15-.4-.48-.16-.69a.89.89,0,0,1,.73.14l-.19-.24c.5-.3.4.53.89.59-.26.09-.38,0-.63.19a7.29,7.29,0,0,1,1.13-.09l.17.59c.15-.19.4.21.53-.08.36.41-.52.18-.66.38.47.45.67-.28,1,.42l-.31.19c.17.1.6.11.55.26.05-.09-.06-.1-.17-.15.4-.53,1,0,1.26-.62l-.23-.17c.43.08.92-.18,1.1.18s-.37.31-.58.4c.33.22.63-.49,1-.2-.17-.22,0-.4.2-.48-.22-.17-.68-.57-.72-.27l.06.11c-.11.14-.27.12-.38.17-.34-.18,0-.35,0-.5-.52-.39-.35.57-.85.28v-.15c-.33,0-.73-.13-1,.21-.05-.5-.66-.13-.8-.47.34-.89.86.47,1.37.15-.19-.31.36-.33.57-.47l-1,0c0-.15-.08-.7-.38-.46l.06.05c-.4-.06-.46.34-.71.09,0-.1.14-.2.19-.25-.24-.2-.32.1-.54.09-.24-.2.3-.29.11-.49-.47.2-.49-.3-.78-.4-.09.54-1.4.22-1,.91l-.8.07c-.11-.34.73-.52.71-1l.54.23c.16-.65-1.29,0-1.39-.87-.29-.13-.24,0-.69-.54l-.11.6a.8.8,0,0,1-.2-.68,1.45,1.45,0,0,1-.48-.18.35.35,0,0,1,.27-.11c-.12-.39-.22-.3-.36-.16s-.3,0-.57-.06l.28-.14c-.16,0-.37,0-.41.1a1.18,1.18,0,0,0-.31,0,2,2,0,0,0,.39.77,13.56,13.56,0,0,1-2.24-1.31c0-.18.3-.32.2-.37-.46-.22-.84,0-.7.29-.08,0-.14,0-.18,0v0c-.1-.11-.23-.21-.36-.07-.06,0-.12,0-.23.09.14.61-.46,1-.44,1.34a2.21,2.21,0,0,0,.4-.48c0,.57,0,1.06-.25,1,.16-.72-.71.12-.24-.72-.8.06.07.62-.48,1a2.39,2.39,0,0,1-.43.17c-.29-.19.33-.69.15-.68l-.18.3c0-.45.91-1.33,1.22-2.39l-1.16,1.22a17.49,17.49,0,0,1-1.41,2.18,3.72,3.72,0,0,0-.86,1.83l0,0s.05.08.15.18l-.1,0,.06.34c-.41,0-.75.33-1.21.47.33-.06.33-.06.55.09s.32.37,0,.58c-.19-.15,0-.32-.36-.23.18,0,.23.17.15.32-.25.06-.5.31-.69.16,0-.12.12-.12.19-.15s-.42.17-.39-.18l-.19.33c-.3.05-.15-.31-.31-.33-.27.6,0,1.21-.28,1.76a2.76,2.76,0,0,0-.38-.35c-.41.23-.15,1.1-.44,1.52-.08-.16.09-.27.13-.43a17.22,17.22,0,0,1-3.3,2.75l.18.65-.52,0a11.56,11.56,0,0,0-2.59,3.22c-.27.36-.47-.06-.73,0-.7.69-.39,1.29-.92,2.08,0-.21-.25-.7-.54-.41.07.16.23.37,0,.49l0-.21c-.34,0-.32.32-.73.61a3.79,3.79,0,0,0-.85,2.43c-.55.52-.39-.47-.57-.44.51-.25.18-.34.11-.56-.07.32-.23.63-.62.47a1.44,1.44,0,0,0-.45.89c0-.24.3-.22.31,0-.31.15-.77.84-1.1.46-1.22,1.39-2.7,2.85-4.1,4.25-.06.41.25-.11.24.15-.1.58-.39.14-.48.61l-.08-.31c-.44.38-.52,1.17-.74,1.75-.15-.29-.51.14-.31-.32-.16.23-1.36-.53-1.31-.18l1.12.71c.08.1-.25.32-.16.35-.35,0-.77,0-.89.1-.28-.18.06-.42.23-.58-.36-.41-.79.29-.9-.3-.29.41.24.15.17.5l-.38.21.36-.09c-.14.36.06.74-.5.85v.72c-.33-.27-.31.19-.57.29l-.07-.31a.85.85,0,0,1-.65.31c-.12-.41.29-.14.1-.46l-.35.16c.16.18.13.48.42.4a1.39,1.39,0,0,1-.47,1.54c-.57,0,0-.56-.35-.75-.77.48-.05,1.55-.47,1.87-.6.33-.32.58-.81,1.05,0-.35-.56.09-.83,0v-.39c-.09.2-.32.25-.41.05.29.26-.41.85-.64,1.3l.28.19a3,3,0,0,1-.79,1c-.36.46-.07.59-.17,1.16a1.09,1.09,0,0,1-.76-.67c.22,0,.35-.23.61-.32.36-.69.32-1.59,1-1.95-.29-.8-.3.4-.75.42a.08.08,0,0,1,0-.1l-.08.05c.13-.25.36-.62.14-1-.27.34.29.8-.34.9-.15.43-.8.17-1,.29,0,.4.41.89-.16,1.23l-.08-.53c-.56.49.17.74-.37,1.16.22-.12.1.48.47.2a1.14,1.14,0,0,1-.75.81c0,.12.08.13.16.26.52,0,.31-.65.86-.52l-.09-.55c.41-.12.69.14.63.44.07-.08.1-.2.22-.19.52.51-.52.12-.23.67l.18-.22c.4.28-.22.72-.52.92-.45.09-.78.26-1,0l.32-.46c-.39,0-.43.56-.68.75a.31.31,0,0,0-.13,0,.16.16,0,0,1,.08.06.28.28,0,0,1-.22,0c-.23.16-.4.58-.67.65l.22.22-.08-.15c.2-.15.58-.23.58.07-.31.52-.77.14-1,0-.19-.44.43-.34.55-.65-.42-.25-.47.33-1.11.46-.14-.54.52-.42.33-.86-.42.23-.29.58-.74.79-.1-.22.25-.54,0-.75l-.34.09c.58-.52-.5-.41-.11-.88-.35,0-.05.57-.56.57.23.1.73.21.55.61l-.43.16c-.29-.07,0-.71-.33-.69l-.24.43c.1.1.32,0,.34.27-.3,0,0,.74-.07,1.1-.21.14-.38.24-.56.15-.23.73-.87,1.19-1.07,1.88.13-.48-.33-.4-.65-.44.32-.32,0-.7-.17-.92-.19.2,0,.7.17.74-.48.12-.06.45-.57.44-.3,0-.17-.45-.35-.54-.41.28.23.54-.26.78,0-.07,0-.12-.07-.16a.55.55,0,0,0-.32.69c-.61-.32-.66.58-1,0-.48.53.28.21.29.46s-.65.5-.84.51c.13-.11.17-.33.36-.35l-.36-.25c-.89.24.08,1.08-.82,1.26.24-.43-.06-.35,0-.71-.05.16-.66.43-.15.47a3.11,3.11,0,0,1-.72.27,1.83,1.83,0,0,0-.31.88,1.83,1.83,0,0,1-1.1.12c-.6.79-1.6.76-2.25,1.55l.07,0c-.68.33.57.3-.11.7-.17-.49-.57-.06-.93-.17-1,.22-1.25,1.15-2.19,1.22a.25.25,0,0,1,.1-.33,10.66,10.66,0,0,0-1.63.71v-.07c-1,0-1.59.79-2.45,1.22.05-.09,0-.28,0-.36-.49.08-1.2.2-1.39.74-.65-.33-.32.27-1.1-.07-.06-.08.05-.09.09-.12a3.46,3.46,0,0,0-.91,0c-.63.41-.79,1.11-1.62.93-.05-.7.49-.19.48-.74-.14.12-.28.27-.49.11.12-.27,0-.17.11-.43-.15-.15-.64.71-.64.65,0,.13,0,.2.18.2-.2.41-.77,0-1.13.07.11,0,.46.24.27.54-.48-.25-.8.39-1.27.51-.39-.45.54-.44.56-.94,0-.19-.07-.61.14-.74a.5.5,0,0,0-.49,0,1.88,1.88,0,0,1-.53.07l.07-.12a3.32,3.32,0,0,0-.75-.08c-.25-.05-.5-.12-.55-.37a1,1,0,0,0,.06.26c-.13,0-.27-.19-.57-.1.17-.15.09-.52.32-.55-.34.18-.61,0-.89-.18a1.35,1.35,0,0,0-.89-.39c.08-.23.4-.25.57-.3.11.34.07.51.4.5-.16-.23-.11-.5.06-.55-.54,0-1-.56-1.49-.55.11-.3.16-.55.54-.61-.55-.82-.94.88-1.31-.21.2-.61.63.33.54-.38l.09.1c.79-.74-.77-.14-.89-.75.5-.19.47.31.75-.16-.25-.48-1.07-.59-1-1.18l.24.06c-.09-.35-.06-1-.11-1.38.1,0,.09,0,.12.09.18-.64-.28-.27.08-.78a1.58,1.58,0,0,0-.26-.13c-.19.21-.44.78-.11,1.09-.33-.33-.63.6-1.09.47l.19.06a5.45,5.45,0,0,0-.44,3.65c.78.59.28,1.43,1.06,2.07.61-.19.17.09.71.66-.29-.29-.42.22-.34.5a1.38,1.38,0,0,1,.56.26c-.1.25.29,1.4.88,1.33.27.47-.22.08-.4.1,0,.37.5.08.5.35a.14.14,0,0,1-.11,0l.83.67a4.27,4.27,0,0,0,.91.65c.16-.26.37-.23.59-.14a1.34,1.34,0,0,0,.68.15c-.17.14.38.38.58.52l.52-.36c.47-.3.54.39,1.1.21l-.12-.12a1.53,1.53,0,0,1,.89.13,2.84,2.84,0,0,1,.89.42,13.15,13.15,0,0,1,4.32-.93,13.78,13.78,0,0,0,2.07-.26,7.31,7.31,0,0,0,2.21-.82c.13-.26-.28-.22-.23-.54a4.13,4.13,0,0,1,.65-.35c-.32,0-.19.13-.24,0l-.36.35s0-.07-.08-.13c-.13.11-.25.3-.46.36.22-.27.1-.71.55-.72,0,.07-.05.11-.13.19.33-.1.25-.3.52-.31s.19-.14.31,0l1-.21c.18-.69.93-.5,1.09-.54.1.41-.49.41-.53.87l.45.1-.13-.29.47-.16v.06c0-.14,0-.28.15-.24s.12.08.08.13l.22-.33c0,.39.32-.06.46.3,1.12-.4,1-1.17,2.14-1.25-.23-.07,0-.69.25-.79s.29,0,.27.22l.24-.38c.76.25.94-.37,1.67-.61l.06.17a1.23,1.23,0,0,1,.64-.8l.13.32c.55-.08-.08-.8.49-.94-.2-.29-.6-.25-.84-.51.32.23.84-.05.58-.19.36-.43.31-.21.4-.16l.14-.37c.33-.2.38.33.38.58.07-.53.55-.52.93-.7l0,.23.48-.26a1.34,1.34,0,0,1,.93-.9l0,.58c.4,0,0-.24.05-.35.26-.49.54-.3.91-.24C170,168.78,171.38,169.32,171.49,168.33Zm36.77-40.46-.1,0C208.19,127.71,208.19,127.58,208.26,127.87Zm-2.81,3.32c.19-.53.26-.26.39-.2-.43.31-.49.63-.9.88a.94.94,0,0,1,.3.11.46.46,0,0,1-.55.09C204.45,131.6,205.81,131.19,205.45,131.19Zm6.54-6.64-.09.08h0ZM208.8,124c-.07-.11-.19-.25-.28-.25C208.62,123.88,208.71,124,208.8,124Zm-4.07,4c-.23,0-.35.21-.43.39A1.89,1.89,0,0,0,204.73,128Zm-21.3,24c0-.17.12-.52-.17-.43,0,.21-.35.17-.25.43h0A2.05,2.05,0,0,0,183.43,152.07Zm-10.14,11.37c-.1-.17-.15-.41-.31-.47l.05,0c-.07,0-.14,0-.14-.1s-.25.09-.28.19C173,163.57,172.85,163.81,173.29,163.44Z" transform="translate(-42.68 -38.56)"/><path class="cls-1" d="M175.4,158.15l-.09.1A.47.47,0,0,0,175.4,158.15Z" transform="translate(-42.68 -38.56)"/><path class="cls-1" d="M172.63,163s.17,0,.35-.06C172.91,162.93,172.8,162.93,172.63,163Z" transform="translate(-42.68 -38.56)"/><path class="cls-1" d="M218.87,129.83h-.16l.17.31a1.09,1.09,0,0,0,1-.41c-.54.05-.7-.22-1.25-.4Z" transform="translate(-42.68 -38.56)"/><path class="cls-1" d="M219.64,127.81c0-.1,0-.35-.09-.4l-.16.14Z" transform="translate(-42.68 -38.56)"/><path class="cls-1" d="M214.4,124.45l.4.34C215,124.69,214.58,124.19,214.4,124.45Z" transform="translate(-42.68 -38.56)"/><path class="cls-1" d="M215.11,128.4l.32-.1c-.14-.25-.43-.34-.56-.14C215.19,128.15,214.89,128.3,215.11,128.4Z" transform="translate(-42.68 -38.56)"/><path class="cls-1" d="M213.17,124c-.28.31-.41-.33-.63,0C212.7,123.88,213,124.31,213.17,124Z" transform="translate(-42.68 -38.56)"/><path class="cls-1" d="M212.24,127.52c0,.4.35.18.6.36C212.61,127.8,212.42,127.31,212.24,127.52Z" transform="translate(-42.68 -38.56)"/><path class="cls-1" d="M209.88,124c0-.28.3-.18.6,0-.11,0-.17.17-.3.17a4.43,4.43,0,0,1,1,0c-.37-.32-1-.66-1-1C209.81,123.34,209.5,123.65,209.88,124Z" transform="translate(-42.68 -38.56)"/><path class="cls-1" d="M211.55,127.33c.2.18.25.47.53.55,0-.2,0-.5-.31-.57l.22-.26C211.77,126.72,212,127.49,211.55,127.33Z" transform="translate(-42.68 -38.56)"/><path class="cls-1" d="M207.92,123.19l.2,0a2.49,2.49,0,0,1,.11-.29c.42-.08,1,.16,1.2-.15a3.59,3.59,0,0,0-1.29-.13A2.83,2.83,0,0,0,207.92,123.19Z" transform="translate(-42.68 -38.56)"/><path class="cls-1" d="M210.69,126.4l-.11.44c.19.13,0-.16.11-.24.05.09.13.16.21.09C210.62,126.67,211,126.34,210.69,126.4Z" transform="translate(-42.68 -38.56)"/><path class="cls-1" d="M209.94,126.68a1.91,1.91,0,0,0-.21.14c.1.21.19.41.26.6C210.18,127.3,210,127.12,209.94,126.68Z" transform="translate(-42.68 -38.56)"/><path class="cls-1" d="M209.53,126.25l-.06-.11a.6.6,0,0,0-.07.28,6.4,6.4,0,0,0,0,.64c0-.24,0-.36,0-.49A2.11,2.11,0,0,1,209.53,126.25Z" transform="translate(-42.68 -38.56)"/><path class="cls-1" d="M202.6,130c.1.18.53,0,.26,0C202.78,129.9,202.26,130.15,202.6,130Z" transform="translate(-42.68 -38.56)"/><path class="cls-1" d="M206.42,131.06c-.23.06-.42.72-.49,1C206.06,131.76,206.66,131.19,206.42,131.06Z" transform="translate(-42.68 -38.56)"/><path class="cls-1" d="M205.9,132.2l0-.12S205.89,132.17,205.9,132.2Z" transform="translate(-42.68 -38.56)"/><path class="cls-1" d="M199.09,141.78a.09.09,0,0,0,0,.09Z" transform="translate(-42.68 -38.56)"/><path class="cls-1" d="M199.19,141.49c.17-.1.34-.45.22-.64a3.73,3.73,0,0,0-.32.93C199.16,141.66,199.37,141.64,199.19,141.49Z" transform="translate(-42.68 -38.56)"/><path class="cls-1" d="M197.32,143.44c0-.19.18-.29,0-.38S197.16,143.42,197.32,143.44Z" transform="translate(-42.68 -38.56)"/><path class="cls-1" d="M180.82,152.45c-.25.1-.3.25-.06.41C181,152.66,180.73,152.65,180.82,152.45Z" transform="translate(-42.68 -38.56)"/><polygon class="cls-1" points="137.89 114.57 137.77 114.49 137.5 114.45 137.89 114.57"/><path class="cls-1" d="M179,154a.22.22,0,0,1,0-.16C179,154,178.93,154,179,154Z" transform="translate(-42.68 -38.56)"/><path class="cls-1" d="M179,153.81a.17.17,0,0,0,0,.05Z" transform="translate(-42.68 -38.56)"/><path class="cls-1" d="M179.17,153.8l-.08-.12-.06.13A.1.1,0,0,1,179.17,153.8Z" transform="translate(-42.68 -38.56)"/><path class="cls-1" d="M178.6,154.34l.53.09c.11-.39-.43.11-.5-.46Z" transform="translate(-42.68 -38.56)"/><path class="cls-1" d="M177.84,155.23c-.33.11-.2.92-.68.66-.5.8.72.49.08,1.32.9-.46-.28-1.05.54-1.42C177.27,155.84,177.82,155.41,177.84,155.23Z" transform="translate(-42.68 -38.56)"/><path class="cls-1" d="M178.53,155.75c-.14-.22-.45,0-.42.25C178.21,155.94,178.6,156.06,178.53,155.75Z" transform="translate(-42.68 -38.56)"/><polygon class="cls-1" points="134.01 118.02 133.68 118.05 133.73 118.22 134.01 118.02"/><path class="cls-1" d="M175.84,157.19v-.4C175.86,156.93,175.54,157.18,175.84,157.19Z" transform="translate(-42.68 -38.56)"/><path class="cls-1" d="M174.52,157.87c-.26.09,0,.76.32.29l-.11.06C174.69,158.12,174.32,158.13,174.52,157.87Z" transform="translate(-42.68 -38.56)"/><path class="cls-1" d="M172.68,160.87c.14-.1.24-.3.12-.38l-.27.41Z" transform="translate(-42.68 -38.56)"/><path class="cls-1" d="M173.79,162.09c.4.21.33-.31.67-.41A1.67,1.67,0,0,0,173.79,162.09Z" transform="translate(-42.68 -38.56)"/><path class="cls-1" d="M171.88,160.76c0-.21.21-.25.32-.31C172,160.31,171.79,160.56,171.88,160.76Z" transform="translate(-42.68 -38.56)"/><path class="cls-1" d="M171.39,161.35c-.23,0-.12-.2-.29-.21a.65.65,0,0,0-.62.6c.18.08.57.38.6.63.32-.46,0-1.22.61-.93l-.12-.84C171.17,160.78,171.64,161.2,171.39,161.35Z" transform="translate(-42.68 -38.56)"/><path class="cls-1" d="M173.1,161.72h-.38c.19.14.05.31,0,.47C173.1,162.54,173,161.85,173.1,161.72Z" transform="translate(-42.68 -38.56)"/><polygon class="cls-1" points="126.64 124.92 126.24 125.38 126.41 125.28 126.64 124.92"/><polygon class="cls-1" points="126.23 125.02 126.12 124.91 125.93 125.4 126.23 125.02"/><polygon class="cls-1" points="125.62 125.25 125.69 125.23 125.89 124.91 125.62 125.25"/><path class="cls-1" d="M167.23,164.48l.23.11c.08-.14.48-.12.27-.34A.41.41,0,0,1,167.23,164.48Z" transform="translate(-42.68 -38.56)"/><path class="cls-1" d="M167.17,171.55c0-.18-.12-.25-.26-.32l.07.41S167.08,171.51,167.17,171.55Z" transform="translate(-42.68 -38.56)"/><path class="cls-1" d="M166.19,171.48l-.14.62c.48-.25.35-.57.7-.89-.24,0-.3.41-.57.45Z" transform="translate(-42.68 -38.56)"/><path class="cls-1" d="M158.06,176.16c-.1-.27-.17-.18.06-.5a4.88,4.88,0,0,1-1.23.78c.17.12-.07.58.09.41l.48-.42v.21C157.94,176.63,157.57,176.23,158.06,176.16Z" transform="translate(-42.68 -38.56)"/><path class="cls-1" d="M139.25,169.24a.46.46,0,0,0,.36-.14C139.41,168.8,139.29,169.3,139.25,169.24Z" transform="translate(-42.68 -38.56)"/></svg>