<svg xmlns="http://www.w3.org/2000/svg" viewBox="0 0 100 100"><defs><style>.cls-2{fill:#fff}</style></defs><g id="Logo" transform="translate(-410 -146)"><g id="Group_2" data-name="Group 2" transform="translate(410 146)"><circle id="Ellipse_1" data-name="Ellipse 1" cx="50" cy="50" r="50" fill="#44b09f"/><g id="Group_1" data-name="Group 1" transform="translate(31.52 18.321)"><path id="Path_1" data-name="Path 1" class="cls-2" d="M183.4 86.27h-6.358a16.2 16.2 0 0 1-5.462 12.12V79.94h-7v22.121a16.2 16.2 0 0 1-20.046-15.791v-6.33h-7v38.307h7v-16.282a22.525 22.525 0 0 0 20.043 6.594v9.688h7v-12.113A22.626 22.626 0 0 0 183.4 86.27z" transform="translate(-137.53 -79.94)"/></g></g><g id="Group_3" data-name="Group 3" transform="translate(431.881 209.756)"><path id="Path_2" data-name="Path 2" class="cls-2" d="M95.47 278.18h2.462v6.046a3.388 3.388 0 0 1 3.268-1.926c2.523 0 3.763 1.822 3.763 4.744v5.606H102.5v-5.585c0-1.763-.761-2.682-1.982-2.682-1.2 0-2.583.9-2.583 3.2v5.065H95.47z" transform="translate(-95.47 -278.18)"/><path id="Path_3" data-name="Path 3" class="cls-2" d="M156.72 304.8a5.842 5.842 0 0 1-4.584 1.941c-3.642 0-5.826-2.363-5.826-5.244a5.339 5.339 0 0 1 5.544-5.326c2.743 0 5.324 1.721 5.324 5.627h-8.409c0 1.6 1.3 2.863 3.484 2.863a4.322 4.322 0 0 0 3.062-1.242zm-7.827-4.666h5.766a2.691 2.691 0 0 0-2.8-2 2.942 2.942 0 0 0-2.966 1.999z" transform="translate(-134.658 -292.047)"/><path id="Path_4" data-name="Path 4" class="cls-2" d="M211.109 278.18v14.473h-2.462v-1.522a4.088 4.088 0 0 1-3.484 1.742c-2.982 0-4.944-2.363-4.944-5.324 0-2.863 1.861-5.246 4.964-5.246a4.163 4.163 0 0 1 3.463 1.721v-5.844zm-5.425 12.631a2.906 2.906 0 0 0 3-3.142 3.036 3.036 0 0 0-3.083-3.3 2.922 2.922 0 0 0-2.9 3.2 2.992 2.992 0 0 0 2.983 3.242z" transform="translate(-176.212 -278.18)"/><path id="Path_5" data-name="Path 5" class="cls-2" d="M268.19 304.8a5.843 5.843 0 0 1-4.584 1.941c-3.642 0-5.826-2.363-5.826-5.244a5.339 5.339 0 0 1 5.544-5.326c2.743 0 5.324 1.721 5.324 5.627h-8.409c0 1.6 1.3 2.863 3.484 2.863a4.322 4.322 0 0 0 3.062-1.242zm-7.827-4.666h5.766a2.691 2.691 0 0 0-2.8-2 2.942 2.942 0 0 0-2.966 1.999z" transform="translate(-220.58 -292.047)"/><path id="Path_6" data-name="Path 6" class="cls-2" d="M317 298.632a2.873 2.873 0 0 1 2.762-2.462 2.836 2.836 0 0 1 .841.14v2.423a3.639 3.639 0 0 0-1.16-.2c-.9 0-2.4.5-2.4 3.3v4.685h-2.463V296.39H317v2.241z" transform="translate(-264.362 -292.047)"/></g></g></svg>